<svg width="40" height="41" viewBox="0 0 40 41" fill="none" xmlns="http://www.w3.org/2000/svg">
<g clip-path="url(#clip0_921_2107)">
<path d="M39.9614 20.6561C39.9614 31.6441 31.0297 40.5758 20.0417 40.5758C9.05381 40.5758 0.12207 31.6441 0.12207 20.6561C0.12207 9.66818 9.05381 0.73645 20.0417 0.73645C31.0297 0.73645 39.9614 9.66818 39.9614 20.6561ZM27.4795 25.0898C27.4795 20.9131 23.0136 19.7244 21.0859 19.1782C17.4393 18.1661 17.1341 16.8489 17.1823 16.1742C17.3108 14.5357 19.11 14.134 20.7807 14.4875C22.0979 14.7766 23.4473 15.5477 24.2024 16.1421L26.5959 13.3469C25.4232 12.5437 23.9132 11.4995 21.7124 11.0818V8.36698H18.2264V10.9855C14.853 11.2425 12.604 13.363 12.604 16.2706C12.604 19.1139 14.6602 20.4473 16.7164 21.4433C18.4353 22.2625 23.2224 23.1139 22.9493 25.2826C22.8048 26.4553 21.5517 27.3228 19.4795 27.0657C17.6803 26.8408 15.7526 25.3308 15.7526 25.3308L13.1181 27.9493C14.7084 29.2344 16.3951 30.0376 18.2264 30.4071V32.9613H21.7124V30.5356C25.0377 30.1661 27.4795 27.9011 27.4795 25.0898Z" fill="url(#paint0_linear_921_2107)"/>
</g>
<defs>
<linearGradient id="paint0_linear_921_2107" x1="-32.5821" y1="-31.0384" x2="40" y2="44.6001" gradientUnits="userSpaceOnUse">
<stop stop-color="#311B92"/>
<stop offset="1" stop-color="#80E0FF"/>
</linearGradient>
<clipPath id="clip0_921_2107">
<rect width="40" height="40" fill="white" transform="translate(0 0.600098)"/>
</clipPath>
</defs>
</svg>
