<svg width="40" height="41" viewBox="0 0 40 41" fill="none" xmlns="http://www.w3.org/2000/svg">
<path d="M24.375 36.8859L20 40.8859L15.625 36.8859H4.67656C3.51914 36.8859 2.40912 36.4655 1.5907 35.7172C0.772284 34.9689 0.3125 33.9541 0.3125 32.8959V4.87586C0.3125 2.67186 2.26594 0.885864 4.67656 0.885864H35.3234C37.7341 0.885864 39.6875 2.67186 39.6875 4.87586V32.8959C39.6875 33.9541 39.2277 34.9689 38.4093 35.7172C37.5909 36.4655 36.4809 36.8859 35.3234 36.8859H24.375ZM7.65594 30.8859H32.7903C31.3807 29.0327 29.5015 27.519 27.313 26.4742C25.1246 25.4293 22.692 24.8844 20.2231 24.8859C17.7543 24.8844 15.3217 25.4293 13.1332 26.4742C10.9448 27.519 9.06551 29.0327 7.65594 30.8859ZM20 20.8859C21.0054 20.8859 22.001 20.7048 22.9299 20.353C23.8588 20.0012 24.7028 19.4856 25.4138 18.8356C26.1247 18.1856 26.6887 17.4139 27.0735 16.5646C27.4582 15.7154 27.6562 14.8051 27.6562 13.8859C27.6562 12.9666 27.4582 12.0564 27.0735 11.2071C26.6887 10.3578 26.1247 9.58613 25.4138 8.93612C24.7028 8.28611 23.8588 7.77049 22.9299 7.41871C22.001 7.06693 21.0054 6.88586 20 6.88586C17.9694 6.88586 16.022 7.62336 14.5862 8.93612C13.1504 10.2489 12.3438 12.0293 12.3438 13.8859C12.3438 15.7424 13.1504 17.5229 14.5862 18.8356C16.022 20.1484 17.9694 20.8859 20 20.8859Z" fill="url(#paint0_linear_921_2112)"/>
<defs>
<linearGradient id="paint0_linear_921_2112" x1="-18.5" y1="-32.8999" x2="64" y2="74.6001" gradientUnits="userSpaceOnUse">
<stop stop-color="#8F5FFF"/>
<stop offset="1" stop-color="#44BCFF"/>
</linearGradient>
</defs>
</svg>
