<svg width="65" height="65" viewBox="0 0 65 65" fill="none" xmlns="http://www.w3.org/2000/svg">
<path d="M36.5625 54.8437H28.4375C27.3601 54.8437 26.3268 54.4157 25.5649 53.6539C24.8031 52.892 24.375 51.8587 24.375 50.7812V42.9812C20.6542 41.3596 17.5046 38.6604 15.3322 35.2317C13.1599 31.8031 12.0646 27.8023 12.1875 23.7453C12.4114 18.597 14.5569 13.7196 18.2008 10.0757C21.8446 6.43189 26.722 4.28633 31.8704 4.0625C34.5903 3.97814 37.2996 4.44118 39.8371 5.42415C42.3747 6.40711 44.6889 7.88994 46.6423 9.7846C48.5957 11.6793 50.1484 13.9471 51.2084 16.4535C52.2683 18.9599 52.8139 21.6537 52.8125 24.375C52.8105 28.3256 51.6565 32.1898 49.4918 35.4945C47.3272 38.7993 44.2458 41.401 40.625 42.9812V50.7812C40.625 51.8587 40.197 52.892 39.4352 53.6539C38.6733 54.4157 37.64 54.8437 36.5625 54.8437ZM31.9922 8.125C27.8762 8.30864 23.9779 10.0261 21.0646 12.9395C18.1512 15.8529 16.4337 19.7511 16.25 23.8672C16.1435 27.3119 17.1349 30.7014 19.081 33.5457C21.0272 36.3901 23.8272 38.542 27.0766 39.6906C27.473 39.8292 27.8167 40.0872 28.0604 40.4291C28.3041 40.771 28.4359 41.1801 28.4375 41.6V50.7812H36.5625V41.6C36.5642 41.1801 36.696 40.771 36.9397 40.4291C37.1834 40.0872 37.5271 39.8292 37.9235 39.6906C41.5817 38.3999 44.6575 35.843 46.5949 32.4821C48.5323 29.1213 49.2034 25.1782 48.4871 21.3656C47.7707 17.5531 45.714 14.1226 42.6888 11.6942C39.6636 9.26585 35.8695 7.99983 31.9922 8.125Z" fill="url(#paint0_linear_921_2114)"/>
<path d="M30.4689 48.75V39.5688C26.8132 38.2783 23.6624 35.859 21.4716 32.6606C19.2809 29.4621 18.1637 25.65 18.2814 21.775C18.4642 15.6813 21.7548 11.7609 27.4626 8.9375C19.2767 9.07969 14.4626 16.25 14.2189 23.8063C14.1012 27.6813 15.2184 31.4934 17.4091 34.6918C19.5999 37.8903 22.7507 40.3095 26.4064 41.6V50.7812C26.4064 51.32 26.6204 51.8366 27.0013 52.2176C27.3823 52.5985 27.8989 52.8125 28.4376 52.8125H36.5626C37.1014 52.8125 37.618 52.5985 37.9989 52.2176C38.3799 51.8366 38.5939 51.32 38.5939 50.7812H32.5001C31.9614 50.7812 31.4448 50.5672 31.0638 50.1863C30.6829 49.8054 30.4689 49.2887 30.4689 48.75Z" fill="url(#paint1_linear_921_2114)"/>
<path d="M38.5938 60.9375H26.4062C25.8675 60.9375 25.3509 60.7235 24.9699 60.3426C24.589 59.9616 24.375 59.445 24.375 58.9062C24.375 58.3675 24.589 57.8509 24.9699 57.4699C25.3509 57.089 25.8675 56.875 26.4062 56.875H38.5938C39.1325 56.875 39.6491 57.089 40.0301 57.4699C40.411 57.8509 40.625 58.3675 40.625 58.9062C40.625 59.445 40.411 59.9616 40.0301 60.3426C39.6491 60.7235 39.1325 60.9375 38.5938 60.9375Z" fill="url(#paint2_linear_921_2114)"/>
<path d="M42.3515 23.2984C42.1686 23.0057 41.914 22.7644 41.6119 22.5974C41.3098 22.4304 40.9702 22.3431 40.625 22.3437H38.3296L40.3609 19.3984C40.5549 19.0987 40.6664 18.753 40.6842 18.3964C40.702 18.0398 40.6255 17.6848 40.4625 17.3672C40.2891 17.0228 40.0213 16.7349 39.6904 16.5371C39.3595 16.3392 38.9791 16.2397 38.5937 16.25H30.4687C30.0936 16.2511 29.7261 16.3561 29.407 16.5533C29.088 16.7505 28.8297 17.0322 28.6609 17.3672L22.5671 29.5547C22.4113 29.8639 22.3371 30.2078 22.3516 30.5538C22.3661 30.8997 22.4688 31.2362 22.6499 31.5313C22.8311 31.8264 23.0846 32.0703 23.3866 32.2399C23.6885 32.4094 24.0287 32.4989 24.375 32.5H30.4687V40.625C30.4562 41.0918 30.6049 41.5486 30.8898 41.9185C31.1747 42.2885 31.5783 42.549 32.0328 42.6562C32.1879 42.676 32.3449 42.676 32.5 42.6562C32.8751 42.6551 33.2425 42.5501 33.5616 42.3529C33.8807 42.1557 34.139 41.874 34.3078 41.5391L42.4328 25.2891C42.5914 24.9782 42.6672 24.6318 42.653 24.2831C42.6387 23.9344 42.5349 23.5953 42.3515 23.2984Z" fill="url(#paint3_linear_921_2114)"/>
<path d="M10.1565 12.1875C9.88918 12.1891 9.62418 12.1378 9.37669 12.0367C9.12921 11.9356 8.90412 11.7867 8.71432 11.5984L4.65182 7.53595C4.26932 7.15346 4.05444 6.63469 4.05444 6.09376C4.05444 5.82592 4.1072 5.5607 4.2097 5.31325C4.31219 5.0658 4.46243 4.84096 4.65182 4.65157C4.84121 4.46218 5.06605 4.31195 5.3135 4.20945C5.56095 4.10695 5.82617 4.0542 6.094 4.0542C6.63493 4.0542 7.1537 4.26908 7.53619 4.65157L11.5987 8.71407C11.7891 8.9029 11.9402 9.12756 12.0433 9.37509C12.1464 9.62261 12.1995 9.88811 12.1995 10.1563C12.1995 10.4244 12.1464 10.6899 12.0433 10.9374C11.9402 11.185 11.7891 11.4096 11.5987 11.5984C11.4089 11.7867 11.1838 11.9356 10.9363 12.0367C10.6888 12.1378 10.4238 12.1891 10.1565 12.1875Z" fill="url(#paint4_linear_921_2114)"/>
<path d="M8.125 26.4062H6.09375C5.55503 26.4062 5.03837 26.1922 4.65744 25.8113C4.27651 25.4304 4.0625 24.9137 4.0625 24.375C4.0625 23.8363 4.27651 23.3196 4.65744 22.9387C5.03837 22.5578 5.55503 22.3438 6.09375 22.3438H8.125C8.66372 22.3438 9.18038 22.5578 9.56131 22.9387C9.94224 23.3196 10.1562 23.8363 10.1562 24.375C10.1562 24.9137 9.94224 25.4304 9.56131 25.8113C9.18038 26.1922 8.66372 26.4062 8.125 26.4062Z" fill="url(#paint5_linear_921_2114)"/>
<path d="M6.09381 42.6563C5.82648 42.6578 5.56148 42.6066 5.314 42.5055C5.06652 42.4044 4.84142 42.2555 4.65162 42.0672C4.46124 41.8784 4.31012 41.6537 4.207 41.4062C4.10387 41.1587 4.05078 40.8932 4.05078 40.625C4.05078 40.3569 4.10387 40.0914 4.207 39.8438C4.31012 39.5963 4.46124 39.3717 4.65162 39.1828L8.71412 35.1203C9.09661 34.7378 9.61538 34.5229 10.1563 34.5229C10.6972 34.5229 11.216 34.7378 11.5985 35.1203C11.981 35.5028 12.1959 36.0216 12.1959 36.5625C12.1959 37.1034 11.981 37.6222 11.5985 38.0047L7.536 42.0672C7.3462 42.2555 7.1211 42.4044 6.87362 42.5055C6.62614 42.6066 6.36114 42.6578 6.09381 42.6563Z" fill="url(#paint6_linear_921_2114)"/>
<path d="M54.8438 12.1875C54.5765 12.1891 54.3115 12.1378 54.064 12.0367C53.8165 11.9356 53.5914 11.7867 53.4016 11.5984C53.2112 11.4096 53.0601 11.185 52.957 10.9374C52.8539 10.6899 52.8008 10.4244 52.8008 10.1563C52.8008 9.88811 52.8539 9.62261 52.957 9.37509C53.0601 9.12756 53.2112 8.9029 53.4016 8.71407L57.4641 4.65157C57.8466 4.26908 58.3654 4.0542 58.9063 4.0542C59.4472 4.0542 59.966 4.26908 60.3485 4.65157C60.731 5.03406 60.9459 5.55283 60.9459 6.09376C60.9459 6.63469 60.731 7.15346 60.3485 7.53595L56.286 11.5984C56.0962 11.7867 55.8711 11.9356 55.6236 12.0367C55.3761 12.1378 55.1111 12.1891 54.8438 12.1875Z" fill="url(#paint7_linear_921_2114)"/>
<path d="M58.9062 26.4062H56.875C56.3363 26.4062 55.8196 26.1922 55.4387 25.8113C55.0578 25.4304 54.8438 24.9137 54.8438 24.375C54.8438 23.8363 55.0578 23.3196 55.4387 22.9387C55.8196 22.5578 56.3363 22.3438 56.875 22.3438H58.9062C59.445 22.3438 59.9616 22.5578 60.3426 22.9387C60.7235 23.3196 60.9375 23.8363 60.9375 24.375C60.9375 24.9137 60.7235 25.4304 60.3426 25.8113C59.9616 26.1922 59.445 26.4062 58.9062 26.4062Z" fill="url(#paint8_linear_921_2114)"/>
<path d="M58.9063 42.6563C58.6389 42.6578 58.3739 42.6066 58.1264 42.5055C57.879 42.4044 57.6539 42.2555 57.4641 42.0672L53.4016 38.0047C53.0191 37.6222 52.8042 37.1034 52.8042 36.5625C52.8042 36.0216 53.0191 35.5028 53.4016 35.1203C53.7841 34.7378 54.3028 34.5229 54.8438 34.5229C55.3847 34.5229 55.9035 34.7378 56.2859 35.1203L60.3484 39.1828C60.5388 39.3717 60.6899 39.5963 60.7931 39.8438C60.8962 40.0914 60.9493 40.3569 60.9493 40.625C60.9493 40.8932 60.8962 41.1587 60.7931 41.4062C60.6899 41.6537 60.5388 41.8784 60.3484 42.0672C60.1586 42.2555 59.9336 42.4044 59.6861 42.5055C59.4386 42.6066 59.1736 42.6578 58.9063 42.6563Z" fill="url(#paint9_linear_921_2114)"/>
<defs>
<linearGradient id="paint0_linear_921_2114" x1="32.4954" y1="4.05273" x2="32.4954" y2="54.8438" gradientUnits="userSpaceOnUse">
<stop stop-color="#FF001C"/>
<stop offset="1" stop-color="#FF6B17"/>
</linearGradient>
<linearGradient id="paint1_linear_921_2114" x1="26.4022" y1="8.9375" x2="26.4022" y2="52.8125" gradientUnits="userSpaceOnUse">
<stop stop-color="#FF001C"/>
<stop offset="1" stop-color="#FF6B17"/>
</linearGradient>
<linearGradient id="paint2_linear_921_2114" x1="32.5" y1="56.875" x2="32.5" y2="60.9375" gradientUnits="userSpaceOnUse">
<stop stop-color="#FF001C"/>
<stop offset="1" stop-color="#FF6B17"/>
</linearGradient>
<linearGradient id="paint3_linear_921_2114" x1="32.5022" y1="16.2493" x2="32.5022" y2="42.6711" gradientUnits="userSpaceOnUse">
<stop stop-color="#FF001C"/>
<stop offset="1" stop-color="#FF6B17"/>
</linearGradient>
<linearGradient id="paint4_linear_921_2114" x1="8.12699" y1="4.0542" x2="8.12699" y2="12.1875" gradientUnits="userSpaceOnUse">
<stop stop-color="#FF001C"/>
<stop offset="1" stop-color="#FF6B17"/>
</linearGradient>
<linearGradient id="paint5_linear_921_2114" x1="7.10938" y1="22.3438" x2="7.10938" y2="26.4062" gradientUnits="userSpaceOnUse">
<stop stop-color="#FF001C"/>
<stop offset="1" stop-color="#FF6B17"/>
</linearGradient>
<linearGradient id="paint6_linear_921_2114" x1="8.12333" y1="34.5229" x2="8.12333" y2="42.6563" gradientUnits="userSpaceOnUse">
<stop stop-color="#FF001C"/>
<stop offset="1" stop-color="#FF6B17"/>
</linearGradient>
<linearGradient id="paint7_linear_921_2114" x1="56.8733" y1="4.0542" x2="56.8733" y2="12.1875" gradientUnits="userSpaceOnUse">
<stop stop-color="#FF001C"/>
<stop offset="1" stop-color="#FF6B17"/>
</linearGradient>
<linearGradient id="paint8_linear_921_2114" x1="57.8906" y1="22.3438" x2="57.8906" y2="26.4062" gradientUnits="userSpaceOnUse">
<stop stop-color="#FF001C"/>
<stop offset="1" stop-color="#FF6B17"/>
</linearGradient>
<linearGradient id="paint9_linear_921_2114" x1="56.8767" y1="34.5229" x2="56.8767" y2="42.6563" gradientUnits="userSpaceOnUse">
<stop stop-color="#FF001C"/>
<stop offset="1" stop-color="#FF6B17"/>
</linearGradient>
</defs>
</svg>
