<svg width="65" height="65" viewBox="0 0 65 65" fill="none" xmlns="http://www.w3.org/2000/svg">
<path d="M55.1063 5.93607L39.9403 1.14689C37.5334 0.386826 35.0242 0 32.5 0C29.9758 0 27.4666 0.386826 25.0597 1.14689L9.89371 5.93607C6.72471 6.93685 4.57031 9.87645 4.57031 13.1997V39.5285C4.57031 44.3691 6.8707 48.9216 10.7677 51.7931L25.6252 62.7407C27.617 64.2083 30.0261 65 32.5 65C34.9739 65 37.383 64.2083 39.3748 62.7407L54.2323 51.7931C58.1293 48.9216 60.4297 44.3691 60.4297 39.5285V13.1997C60.4297 9.87645 58.2753 6.93685 55.1063 5.93607ZM44.17 28.9093L31.6023 41.477C30.1149 42.9644 27.7035 42.9644 26.2162 41.477L20.83 36.0909C19.3426 34.6035 19.3426 32.192 20.83 30.7048C22.3173 29.2174 24.7288 29.2174 26.2161 30.7048L28.9091 33.3978L38.7838 23.5231C40.2712 22.0358 42.6827 22.0358 44.1699 23.5231C45.6574 25.0104 45.6574 27.4219 44.17 28.9093Z" fill="url(#paint0_linear_921_2126)"/>
<defs>
<linearGradient id="paint0_linear_921_2126" x1="9" y1="-5.20636e-07" x2="67.5" y2="93" gradientUnits="userSpaceOnUse">
<stop stop-color="#0399FE"/>
<stop offset="1" stop-color="#16FFC7"/>
</linearGradient>
</defs>
</svg>
