<svg width="65" height="65" viewBox="0 0 65 65" fill="none" xmlns="http://www.w3.org/2000/svg">
<path d="M5.24836 50.1385H26.6271V55.9981H22.455C21.7641 55.9981 21.1928 56.5561 21.1928 57.2603V60.9142C21.1928 61.6052 21.7508 62.1765 22.455 62.1765H42.545C43.2359 62.1765 43.8072 61.6185 43.8072 60.9142V57.2603C43.8072 56.5694 43.2492 55.9981 42.545 55.9981H38.3729V50.1385H59.7516C62.6482 50.1385 65 47.7867 65 44.8901V8.07185C65 5.17529 62.6482 2.82349 59.7516 2.82349H5.24836C2.3518 2.82349 0 5.17529 0 8.07185V44.8901C0 47.7867 2.3518 50.1385 5.24836 50.1385ZM7.16169 9.98518H57.8383V42.9369H7.16169V9.98518ZM36.1141 21.5714C36.1141 23.0197 35.2504 24.2687 34.0147 24.84V39.6285H30.9853V24.84C29.7496 24.2687 28.8859 23.0197 28.8859 21.5714C28.8859 20.1232 29.7496 18.8742 30.9853 18.3028V13.2936H34.0147V18.3028C35.2504 18.8609 36.1141 20.1099 36.1141 21.5714ZM46.3185 30.6066C46.3185 32.0549 45.4548 33.3039 44.2191 33.8752V39.6152H41.1897V33.8752C39.954 33.3039 39.0904 32.0549 39.0904 30.6066C39.0904 29.1583 39.954 27.9093 41.1897 27.338V13.2804H44.2191V27.338C45.4548 27.9093 46.3185 29.1583 46.3185 30.6066ZM25.8964 26.4478C25.8964 27.8961 25.0327 29.145 23.797 29.7164V39.6152H20.7676V29.7164C19.5319 29.145 18.6682 27.8961 18.6682 26.4478C18.6682 24.9995 19.5319 23.7505 20.7676 23.1792V13.2804H23.797V23.1792C25.0327 23.7505 25.8964 24.9995 25.8964 26.4478Z" fill="url(#paint0_linear_921_2128)"/>
<defs>
<linearGradient id="paint0_linear_921_2128" x1="32.5" y1="2.82349" x2="32.5" y2="62.1765" gradientUnits="userSpaceOnUse">
<stop stop-color="#673AB7"/>
<stop offset="1" stop-color="#3284FE"/>
</linearGradient>
</defs>
</svg>
