<svg width="40" height="32" viewBox="0 0 40 32" fill="none" xmlns="http://www.w3.org/2000/svg">
<path d="M40 18.4611V21.7778C40 23.7634 38.5169 25.3778 36.6917 25.3778H33.7644C33.0177 25.3778 32.4079 24.7167 32.4079 23.9022V16.3356C32.4079 15.5811 32.934 14.9656 33.603 14.8778C32.1168 8.20002 26.5911 3.2178 20.001 3.2178C13.411 3.2178 7.88417 8.20113 6.39804 14.8789C7.06808 14.9667 7.59307 15.5811 7.59307 16.3367V23.9034C7.59307 24.7178 6.98432 25.3789 6.23666 25.3789H3.30831C1.48307 25.3778 0 23.7634 0 21.7778V18.4611C0 16.4767 1.48307 14.8622 3.30831 14.8622H3.61064C5.15091 6.55002 11.9126 0.27002 20.001 0.27002C28.0895 0.27002 34.8511 6.55002 36.3914 14.8622H36.6948C38.5169 14.86 40 16.4756 40 18.4611ZM24.0907 25.4645C23.6239 26.2634 22.6801 26.8167 21.5811 26.8167C20.0215 26.8167 18.7559 25.7167 18.7559 24.36C18.7559 23.0011 20.0204 21.9011 21.5811 21.9011C22.6801 21.9011 23.6239 22.4545 24.0907 23.2534H30.8871C31.4386 21.7734 31.7491 20.1567 31.7491 18.4622C31.7491 11.4022 26.4889 5.68002 19.999 5.68002C13.509 5.68002 8.24779 11.4034 8.24779 18.4622C8.24779 25.5222 13.509 31.2445 19.999 31.2445C24.1081 31.2445 27.7218 28.9467 29.8218 25.47H24.0907V25.4645Z" fill="url(#paint0_linear_921_2097)"/>
<defs>
<linearGradient id="paint0_linear_921_2097" x1="12.5" y1="-1.01889e-07" x2="47.5" y2="72" gradientUnits="userSpaceOnUse">
<stop stop-color="#84E9FF"/>
<stop offset="1" stop-color="#5DEE39"/>
</linearGradient>
</defs>
</svg>
