<svg width="68" height="53" viewBox="0 0 68 53" fill="none" xmlns="http://www.w3.org/2000/svg">
<path d="M68 31.1266V36.8017C68 40.1992 65.4788 42.9616 62.3759 42.9616H57.3994C56.1301 42.9616 55.0935 41.8304 55.0935 40.4368V27.4896C55.0935 26.1987 55.9877 25.1454 57.1251 24.9952C54.5986 13.5689 45.2048 5.04391 34.0017 5.04391C22.7986 5.04391 13.4031 13.5708 10.8767 24.9971C12.0157 25.1473 12.9082 26.1987 12.9082 27.4915V40.4387C12.9082 41.8323 11.8733 42.9635 10.6023 42.9635H5.62413C2.52122 42.9616 0 40.1992 0 36.8017V31.1266C0 27.731 2.52122 24.9686 5.62413 24.9686H6.13809C8.75655 10.7456 20.2514 0 34.0017 0C47.7521 0 59.2469 10.7456 61.8654 24.9686H62.3811C65.4788 24.9648 68 27.7291 68 31.1266ZM40.9542 43.1099C40.1607 44.4769 38.5563 45.4237 36.6879 45.4237C34.0365 45.4237 31.8851 43.5415 31.8851 41.2201C31.8851 38.8949 34.0347 37.0127 36.6879 37.0127C38.5563 37.0127 40.1607 37.9595 40.9542 39.3265H52.508C53.4457 36.7941 53.9735 34.0278 53.9735 31.1285C53.9735 19.0482 45.0312 9.25699 33.9983 9.25699C22.9653 9.25699 14.0212 19.0501 14.0212 31.1285C14.0212 43.2088 22.9653 53 33.9983 53C40.9837 53 47.127 49.0683 50.697 43.1194H40.9542V43.1099Z" fill="url(#paint0_linear_921_2113)"/>
<defs>
<linearGradient id="paint0_linear_921_2113" x1="19.5" y1="6" x2="78" y2="83.5" gradientUnits="userSpaceOnUse">
<stop stop-color="#5AEBFF"/>
<stop offset="1" stop-color="#0295FF"/>
</linearGradient>
</defs>
</svg>
