<svg width="0" height="0" class="hidden">
  <symbol
    fill="none"
    xmlns="http://www.w3.org/2000/svg"
    viewBox="0 0 60 60"
    id="icon-save-money"
  >
    <path
      d="M30 0C46.5685 0 60 13.4315 60 30C60 46.5685 46.5685 60 30 60C13.4315 60 0 46.5685 0 30C0 13.4315 13.4315 0 30 0Z"
      fill="#FF9064"
      fill-opacity="0.08"
    />
    <path
      d="M40.7741 31.4152L34.8711 37.2555C34.1856 37.9619 33.1573 38.4612 32.0719 38.4612H27.6352C27.0734 38.4612 26.5688 38.6778 26.1975 39.0452L24.7218 40.4205H18L24.4647 33.9397L24.4552 33.9303C25.1407 33.2521 26.1023 32.8282 27.1591 32.8188H33.5382C34.2141 32.8188 34.7568 33.3557 34.7568 34.0245C34.7568 34.6933 34.2141 35.2302 33.5382 35.2302H28.3969C28.1779 35.2114 27.997 35.3904 27.997 35.6258C27.997 35.8613 28.1779 36.0309 28.4064 36.0309H33.5191C34.0618 36.0497 34.5759 35.8237 34.9568 35.4469C35.3376 35.0701 35.5471 34.552 35.5471 34.0245C35.5661 33.7796 35.4995 33.5158 35.4138 33.2897L39.0413 29.7008C39.5268 29.2204 40.2885 29.2204 40.7645 29.682C41.2596 30.1624 41.2501 30.9442 40.7741 31.4152ZM23.9982 25.3489C23.9982 21.8448 26.8354 19 30.3772 19C33.919 19 36.7753 21.8259 36.7753 25.3301C36.7753 28.8342 33.9095 31.6601 30.3867 31.6601C26.864 31.6601 23.9982 28.8342 23.9982 25.3489ZM31.2246 26.809C31.2246 27.2423 30.8628 27.5625 30.1297 27.5625C29.4442 27.5625 28.8063 27.3271 28.3969 27.1292L28.0731 28.4103C28.4445 28.6176 29.2157 28.8154 29.9773 28.8154V29.7762H30.8628V28.7871C32.1576 28.5045 32.767 27.7415 32.767 26.7524C32.767 25.7634 32.2052 25.1511 30.9961 24.7178C30.1201 24.3598 29.7107 24.1903 29.7107 23.7476C29.7107 23.4273 30.063 23.107 30.7104 23.107C31.3579 23.107 31.8339 23.3048 32.1291 23.4273L32.4909 22.1745C32.1005 21.9672 31.5673 21.8165 30.8342 21.8165V20.8368H29.9488V21.8824C28.7682 22.1179 28.1207 22.8715 28.1207 23.8417C28.1207 24.8873 28.8539 25.4714 30.0249 25.8764C30.8723 26.1967 31.2246 26.3757 31.2246 26.809Z"
      fill="#FF9064"
    />
  </symbol>
  <symbol
    fill="none"
    xmlns="http://www.w3.org/2000/svg"
    viewBox="0 0 60 60"
    id="icon-shield"
  >
    <path
      d="M30 0C46.5685 0 60 13.4315 60 30C60 46.5685 46.5685 60 30 60C13.4315 60 0 46.5685 0 30C0 13.4315 13.4315 0 30 0Z"
      fill="#ECE6FF"
    />
    <path
      d="M37.8194 20.1293C33.9921 22.8076 30.6211 20.301 30.4702 20.1702C30.3304 20.0434 29.8814 19.9044 29.5134 20.1702C29.4766 20.1702 26.0283 22.8076 22.1642 20.1293C21.649 19.749 20.8945 20.2642 21.0123 20.9389C21.0896 21.5768 23.04 36.1664 29.587 39.912C29.9881 40.0878 30.3156 39.9528 30.3892 39.912C36.973 36.1664 38.9271 21.5768 38.9639 20.9389C39.0302 20.2683 38.4082 19.7654 37.8194 20.1293ZM30.0286 38.2477C25.5536 35.3486 23.4485 26.0911 22.7714 22.3414C26.1534 23.8503 29.0423 22.4028 30.0102 21.7813C31.0222 22.3987 33.889 23.838 37.2453 22.3414C36.5682 26.0911 34.4999 35.3486 30.0286 38.2477Z"
      fill="#6F32FE"
    />
  </symbol>
  <symbol
    fill="none"
    xmlns="http://www.w3.org/2000/svg"
    viewBox="0 0 60 60"
    id="icon-type-account"
  >
    <path
      d="M30 0C46.5685 0 60 13.4315 60 30C60 46.5685 46.5685 60 30 60C13.4315 60 0 46.5685 0 30C0 13.4315 13.4315 0 30 0Z"
      fill="#E7F7FB"
    />
    <g clip-path="url(#clip0_764_380)">
      <path
        d="M26.1016 21.5486C26.1495 21.5644 26.1981 21.572 26.2459 21.572C26.4388 21.572 26.6184 21.4496 26.6823 21.2565C26.7474 21.0596 26.9306 20.9274 27.1382 20.9274H29.6831C29.937 20.9274 30.1428 20.7216 30.1428 20.4677C30.1428 20.2138 29.937 20.008 29.6831 20.008H27.1382C26.5333 20.008 25.9992 20.3937 25.8094 20.9679C25.7297 21.2089 25.8605 21.4689 26.1016 21.5486Z"
        fill="#00E5A8"
      />
      <path
        d="M32.3099 20.9274H36.0312C36.285 20.9274 36.4908 20.7216 36.4908 20.4677C36.4908 20.2138 36.285 20.008 36.0312 20.008H32.3099C32.056 20.008 31.8502 20.2138 31.8502 20.4677C31.8502 20.7216 32.056 20.9274 32.3099 20.9274Z"
        fill="#00E5A8"
      />
      <path
        d="M40.207 37.9058C39.9531 37.9058 39.7473 38.1116 39.7473 38.3655V39.2593C39.7473 39.524 39.532 39.7393 39.2674 39.7393H37.9165C37.6626 39.7393 37.4568 39.9451 37.4568 40.199C37.4568 40.4528 37.6626 40.6586 37.9165 40.6586H39.2674C40.0389 40.6586 40.6667 40.0309 40.6667 39.2593V38.3655C40.6667 38.1116 40.4609 37.9058 40.207 37.9058Z"
        fill="#00E5A8"
      />
      <path
        d="M40.2069 31.5578C39.9531 31.5578 39.7473 31.7636 39.7473 32.0175V35.7387C39.7473 35.9926 39.9531 36.1984 40.2069 36.1984C40.4608 36.1984 40.6666 35.9926 40.6666 35.7387V32.0175C40.6666 31.7636 40.4608 31.5578 40.2069 31.5578Z"
        fill="#00E5A8"
      />
      <path
        d="M40.2069 25.2098C39.9531 25.2098 39.7473 25.4156 39.7473 25.6695V29.3907C39.7473 29.6446 39.9531 29.8504 40.2069 29.8504C40.4608 29.8504 40.6666 29.6446 40.6666 29.3907V25.6695C40.6666 25.4156 40.4608 25.2098 40.2069 25.2098Z"
        fill="#00E5A8"
      />
      <path
        d="M35.2897 39.7392L31.5684 39.7392C31.3146 39.7392 31.1087 39.945 31.1087 40.1989C31.1087 40.4528 31.3145 40.6586 31.5684 40.6586L35.2897 40.6586C35.5435 40.6586 35.7493 40.4528 35.7493 40.1989C35.7493 39.945 35.5436 39.7392 35.2897 39.7392Z"
        fill="#00E5A8"
      />
      <path
        d="M39.2673 20.008H38.6579C38.4041 20.008 38.1982 20.2138 38.1982 20.4677C38.1982 20.7216 38.4041 20.9274 38.6579 20.9274H39.2673C39.5319 20.9274 39.7472 21.1427 39.7472 21.4073V23.0427C39.7472 23.2965 39.953 23.5023 40.2069 23.5023C40.4608 23.5023 40.6666 23.2965 40.6666 23.0427V21.4073C40.6666 20.6358 40.0389 20.008 39.2673 20.008Z"
        fill="#00E5A8"
      />
      <path
        d="M31.0998 32.5222C30.9203 32.7017 30.9203 32.9928 31.0998 33.1723C31.1896 33.2621 31.3073 33.3069 31.4249 33.3069C31.5425 33.3069 31.6602 33.2621 31.75 33.1723L37.0726 27.8496C37.2521 27.6701 37.2521 27.379 37.0726 27.1995C36.8931 27.02 36.6021 27.02 36.4225 27.1995L31.0998 32.5222Z"
        fill="#00E5A8"
      />
      <path
        d="M32.1473 29.8541C33.0334 29.8541 33.7544 29.1332 33.7544 28.247C33.7544 27.3609 33.0334 26.64 32.1472 26.64C31.2611 26.64 30.5402 27.3609 30.5402 28.247C30.5402 29.1332 31.2611 29.8541 32.1473 29.8541ZM32.1473 27.5593C32.5265 27.5593 32.835 27.8678 32.835 28.247C32.835 28.6262 32.5265 28.9347 32.1473 28.9347C31.7681 28.9347 31.4596 28.6262 31.4596 28.247C31.4596 27.8678 31.7681 27.5593 32.1473 27.5593Z"
        fill="#00E5A8"
      />
      <path
        d="M36.0251 30.5178C35.1389 30.5178 34.418 31.2386 34.418 32.1247C34.418 33.011 35.1389 33.732 36.0251 33.732C36.9112 33.732 37.6321 33.011 37.6321 32.1247C37.6321 31.2386 36.9112 30.5178 36.0251 30.5178ZM36.0251 32.8126C35.6459 32.8126 35.3373 32.504 35.3373 32.1247C35.3373 31.7456 35.6459 31.4371 36.0251 31.4371C36.4043 31.4371 36.7128 31.7456 36.7128 32.1247C36.7128 32.504 36.4043 32.8126 36.0251 32.8126Z"
        fill="#00E5A8"
      />
      <path
        d="M28.9847 35.4109C28.7924 35.4109 28.606 35.4522 28.4308 35.5337C27.7732 35.8394 27.4868 36.6232 27.7925 37.2808C28.0075 37.7432 28.4758 38.0419 28.9858 38.0419C29.1781 38.0419 29.3644 38.0006 29.5396 37.9191C29.8582 37.771 30.1001 37.5077 30.2206 37.1776C30.3412 36.8476 30.326 36.4904 30.1779 36.1718C29.963 35.7096 29.4946 35.4109 28.9847 35.4109ZM29.3571 36.8623C29.3208 36.9616 29.248 37.0408 29.1521 37.0854C29.0991 37.1101 29.0432 37.1225 28.9858 37.1225C28.832 37.1225 28.6909 37.0325 28.6262 36.8933C28.5342 36.6954 28.6203 36.4595 28.8183 36.3674C28.8713 36.3428 28.9272 36.3303 28.9847 36.3303C29.1384 36.3303 29.2795 36.4203 29.3442 36.5594C29.3887 36.6553 29.3933 36.7629 29.3571 36.8623Z"
        fill="#00E5A8"
      />
      <path
        d="M31.8633 35.3884C31.3514 34.2871 30.243 33.5705 29.0305 33.5524L27.6002 30.4758L30.4037 24.445C30.7141 23.7774 30.4234 22.9817 29.7557 22.6712L29.6764 22.6344C29.3529 22.484 28.9903 22.4686 28.6553 22.591C28.3203 22.7134 28.053 22.9589 27.9026 23.2823L26.0794 27.2043L24.2563 23.2823C24.0381 22.813 23.5626 22.5097 23.0449 22.5097C22.8497 22.5097 22.6605 22.5517 22.4826 22.6344L22.4031 22.6713C21.7355 22.9818 21.4448 23.7774 21.7552 24.445L24.5587 30.4758L23.1285 33.5524C21.9229 33.5703 20.8114 34.2787 20.2956 35.3884C19.5579 36.9754 20.2488 38.8668 21.8358 39.6046C22.2675 39.8053 22.7214 39.9002 23.1689 39.9002C24.3662 39.9001 25.5148 39.2196 26.0519 38.0643C26.0615 38.0437 26.0704 38.023 26.0795 38.0022C26.0886 38.023 26.0974 38.0438 26.107 38.0644C26.6257 39.18 27.7561 39.9009 28.987 39.901C28.987 39.901 28.9871 39.901 28.9872 39.901C29.4506 39.901 29.9001 39.8013 30.3232 39.6045C31.9102 38.8668 32.6011 36.9754 31.8633 35.3884ZM28.7364 23.6699C28.7832 23.5691 28.8664 23.4927 28.9708 23.4546C29.0751 23.4164 29.188 23.4211 29.2889 23.4681L29.3682 23.505C29.5762 23.6017 29.6667 23.8495 29.57 24.0575L27.0933 29.3853L26.5864 28.2948L28.7364 23.6699ZM25.2182 37.6768C24.6942 38.8041 23.3506 39.2949 22.2233 38.7709C21.096 38.2468 20.6052 36.9033 21.1293 35.7759C21.5289 34.9162 22.4315 34.3956 23.3757 34.4804C23.5686 34.4977 23.7519 34.3921 23.8337 34.2163L25.0656 31.5662L25.5725 32.6567L24.6674 34.6039C24.5857 34.7797 24.623 34.9878 24.7607 35.1242C25.434 35.7913 25.6179 36.8171 25.2182 37.6768ZM26.0795 35.4523C25.965 35.1901 25.8148 34.9415 25.6295 34.7151L26.0795 33.7472L26.5294 34.7151C26.3442 34.9415 26.194 35.19 26.0795 35.4523ZM29.9356 38.7709C29.6348 38.9107 29.3157 38.9816 28.9872 38.9816C28.9872 38.9816 28.9871 38.9816 28.987 38.9816C28.1124 38.9816 27.3092 38.4694 26.9407 37.6768C26.5411 36.8171 26.725 35.7913 27.3983 35.1242C27.536 34.9878 27.5734 34.7796 27.4916 34.6039L22.5889 24.0574C22.4922 23.8495 22.5828 23.6016 22.7907 23.505L22.8701 23.4681C22.9257 23.4422 22.9845 23.429 23.0448 23.429C23.2063 23.429 23.3545 23.5236 23.4225 23.6698L28.3252 34.2162C28.407 34.3921 28.5904 34.4974 28.7832 34.4803C28.8495 34.4744 28.9169 34.4713 28.9835 34.4713C29.8581 34.4713 30.6612 34.9834 31.0296 35.7758C31.5537 36.9033 31.0629 38.2468 29.9356 38.7709Z"
        fill="#00E5A8"
      />
      <path
        d="M23.7282 35.5337C23.0705 35.228 22.2868 35.5143 21.981 36.1719C21.833 36.4904 21.8178 36.8477 21.9384 37.1776C22.0589 37.5077 22.3008 37.771 22.6193 37.9191C22.7982 38.0022 22.9863 38.0416 23.1718 38.0416C23.6679 38.0416 24.1439 37.7596 24.3665 37.2809C24.5146 36.9623 24.5297 36.6051 24.4092 36.2751C24.2886 35.9451 24.0468 35.6818 23.7282 35.5337ZM23.5328 36.8933C23.4407 37.0912 23.2048 37.1773 23.0068 37.0854C22.911 37.0408 22.8382 36.9616 22.8019 36.8623C22.7656 36.7628 22.7702 36.6553 22.8147 36.5595C22.8593 36.4636 22.9385 36.3908 23.0379 36.3545C23.0822 36.3383 23.1281 36.3302 23.1739 36.3302C23.2308 36.3302 23.2875 36.3426 23.3406 36.3674C23.4365 36.412 23.5093 36.4912 23.5456 36.5905C23.5819 36.6898 23.5773 36.7974 23.5328 36.8933Z"
        fill="#00E5A8"
      />
    </g>
    <defs>
      <clipPath id="clip0_764_380">
        <rect
          width="20.6667"
          height="20.6667"
          fill="white"
          transform="translate(20 20)"
        />
      </clipPath>
    </defs>
  </symbol>
    <symbol
    fill="none"
    xmlns="http://www.w3.org/2000/svg"
    viewBox="0 0 59 59"
    id="icon-dollar"
  >
    <g clip-path="url(#clip0_721_937)">
      <path
        d="M25.3729 58.8323V52.0843C20.6096 51.8705 15.9914 50.5908 13.2871 49.0285L15.4222 40.7109C18.4092 42.344 22.5997 43.8357 27.2234 43.8357C31.2744 43.8357 34.0475 42.2733 34.0475 39.4313C34.0475 36.7288 31.7728 35.0215 26.5111 33.2434C18.9059 30.686 13.7149 27.1316 13.7149 20.2387C13.7149 13.982 18.1247 9.07915 25.7299 7.58565V0.832275H32.6936V7.08903C37.4568 7.3029 40.6577 8.29253 43.0012 9.43259L40.9404 17.4656C39.0935 16.6844 35.8237 15.0459 30.7016 15.0459C26.0834 15.0459 24.5899 17.036 24.5899 19.028C24.5899 21.3715 27.0784 22.865 33.1213 25.1397C41.5766 28.1267 44.9914 32.0326 44.9914 38.4344C44.9914 44.76 40.5109 50.1613 32.3383 51.5841V58.8323H25.3729Z"
        fill="#32BEA6"
      />
    </g>
    <defs>
      <clipPath id="clip0_721_937">
        <rect
          width="58"
          height="58"
          fill="white"
          transform="translate(0.13916 0.832275)"
        />
      </clipPath>
    </defs>
  </symbol>
  <symbol
    fill="none"
    xmlns="http://www.w3.org/2000/svg"
    viewBox="0 0 46 46"
    id="icon-level-up"
  >
    <path
      d="M30.4999 2.88013V34.9258C30.4999 39.344 26.9181 42.9258 22.4999 42.9258H3.13916M30.4999 2.88013L13.6777 11.8718M30.4999 2.88013L42.8295 11.8718"
      stroke="#6F32FE"
      stroke-width="5"
      stroke-linecap="round"
      stroke-linejoin="round"
    />
  </symbol>

    <symbol
    fill="none"
    xmlns="http://www.w3.org/2000/svg"
    viewBox="0 0 401 156"
    id="top-word"
  >
    <path
      fill-rule="evenodd"
      clip-rule="evenodd"
      d="M48.1999 153V20.6H0.399902V3.19998H114.6V20.6H66.7999V153H48.1999ZM65.7999 19.6H113.6V4.19998H1.3999V19.6H49.1999V152H65.7999V19.6ZM247.271 134.307L247.268 134.31C232.945 148.498 215.557 155.6 195.164 155.6C174.771 155.6 157.383 148.498 143.06 134.31L143.053 134.304C128.841 119.955 121.764 101.222 121.764 78.2C121.764 55.1781 128.841 36.4445 143.054 22.0962L143.057 22.0929C157.379 7.77047 174.768 0.599976 195.164 0.599976C215.56 0.599976 232.949 7.77047 247.271 22.0929C261.619 36.4406 268.764 55.1753 268.764 78.2C268.764 101.225 261.619 119.959 247.271 134.307ZM246.564 133.6C232.431 147.6 215.297 154.6 195.164 154.6C175.031 154.6 157.897 147.6 143.764 133.6C129.764 119.467 122.764 101 122.764 78.2C122.764 55.4 129.764 36.9333 143.764 22.8C157.897 8.66664 175.031 1.59998 195.164 1.59998C215.297 1.59998 232.431 8.66664 246.564 22.8C260.697 36.9333 267.764 55.4 267.764 78.2C267.764 101 260.697 119.467 246.564 133.6ZM156.483 121.305C166.957 132.039 179.829 137.4 195.164 137.4C210.501 137.4 223.374 132.038 233.848 121.302C244.298 110.591 249.564 96.2603 249.564 78.2C249.564 60.1401 244.298 45.7398 233.844 34.8939C223.369 24.0261 210.497 18.6 195.164 18.6C179.831 18.6 166.959 24.0261 156.484 34.8939C146.167 45.6028 140.964 60.0006 140.964 78.2C140.964 96.2632 146.165 110.595 156.483 121.305ZM385.75 83.3829L385.749 83.384C375.906 91.1763 361.851 95 343.728 95H318.128V153H299.328V3.19998H346.328C363.145 3.19998 376.466 7.16953 386.167 15.2309C395.896 23.315 400.728 34.5485 400.728 48.8C400.728 63.8401 395.769 75.4229 385.75 83.3829ZM317.128 94H343.728C361.728 94 375.528 90.2 385.128 82.6C394.861 74.8666 399.728 63.6 399.728 48.8C399.728 34.8 394.995 23.8666 385.528 16C376.061 8.13331 362.995 4.19998 346.328 4.19998H300.328V152H317.128V94ZM372.219 70.3569C378.385 65.6212 381.528 58.4981 381.528 48.8C381.528 39.437 378.486 32.4902 372.509 27.7857C366.487 23.0445 357.675 20.6 345.928 20.6H318.128V77.6H343.728C356.561 77.6 366.003 75.131 372.219 70.3569ZM317.128 78.6V19.6H345.928C357.795 19.6 366.861 22.0666 373.128 27C379.395 31.9333 382.528 39.2 382.528 48.8C382.528 68.6666 369.595 78.6 343.728 78.6H317.128ZM195.164 138.4C179.564 138.4 166.431 132.933 155.764 122C145.231 111.067 139.964 96.4666 139.964 78.2C139.964 59.8 145.231 45.1333 155.764 34.2C166.431 23.1333 179.564 17.6 195.164 17.6C210.764 17.6 223.897 23.1333 234.564 34.2C245.231 45.2666 250.564 59.9333 250.564 78.2C250.564 96.4666 245.231 111.067 234.564 122C223.897 132.933 210.764 138.4 195.164 138.4Z"
      fill="#052DFF"
      fill-opacity="0.05"
    />
  </symbol>
  <symbol
    version="1.1"
    id="icon-solution"
    xmlns="http://www.w3.org/2000/svg"
    xmlns:xlink="http://www.w3.org/1999/xlink"
    x="0px"
    y="0px"
    xml:space="preserve"
    viewBox="0 0 229.018 229.018"
  >
    <g>
      <path
        d="M114.512,51.743c-32.669,0-59.248,26.579-59.248,59.248c0,13.37,4.384,26.003,12.672,36.527
		c1.636,2.083,3.355,4.077,5.175,6.188l0.1,0.116c5.568,6.46,11.325,13.142,13.475,21.01c0.486,1.803,0.555,5.26,0.527,7.923v4.526
		c0,4.142,3.358,7.5,7.5,7.5h39.272c4.142,0,7.5-3.358,7.5-7.5v-4.579c-0.025-3.478,0.155-6.016,0.518-7.333
		c2.162-7.816,8.542-15.321,14.222-22.001l0.245-0.288c1.639-1.926,3.188-3.745,4.598-5.538c8.3-10.53,12.687-23.169,12.687-36.551
		C173.754,78.322,147.178,51.743,114.512,51.743z M149.281,138.264c-1.235,1.571-2.691,3.282-4.233,5.093l-0.302,0.355
		c-6.635,7.804-14.155,16.649-17.203,27.667c-0.431,1.564-0.91,3.904-1.032,8.402h-24.312c-0.104-4.777-0.591-7.227-1.036-8.877
		c-3.05-11.164-10.557-19.875-16.59-26.876l-0.101-0.118c-1.705-1.977-3.315-3.845-4.746-5.665
		c-6.19-7.86-9.462-17.285-9.462-27.254c0-24.398,19.85-44.248,44.248-44.248c24.395,0,44.242,19.85,44.242,44.248
		C158.754,120.971,155.48,130.399,149.281,138.264z"
      />
      <path
        d="M133.984,196.91H94.713c-4.142,0-7.5,3.358-7.5,7.5s3.358,7.5,7.5,7.5h39.272c4.142,0,7.5-3.358,7.5-7.5
		S138.126,196.91,133.984,196.91z"
      />
      <path
        d="M124.166,214.018h-19.635c-4.142,0-7.5,3.358-7.5,7.5c0,4.142,3.358,7.5,7.5,7.5h19.635c4.142,0,7.5-3.358,7.5-7.5
		C131.666,217.376,128.308,214.018,124.166,214.018z"
      />
      <path
        d="M218,103.491h-25.873c-4.142,0-7.5,3.358-7.5,7.5c0,4.142,3.358,7.5,7.5,7.5H218c4.142,0,7.5-3.358,7.5-7.5
		C225.5,106.849,222.142,103.491,218,103.491z"
      />
      <path
        d="M44.394,110.991c0-4.142-3.358-7.5-7.5-7.5H11.018c-4.142,0-7.5,3.358-7.5,7.5c0,4.142,3.358,7.5,7.5,7.5h25.876
		C41.036,118.491,44.394,115.133,44.394,110.991z"
      />
      <path
        d="M114.51,40.881c4.142,0,7.5-3.358,7.5-7.5V7.5c0-4.142-3.358-7.5-7.5-7.5c-4.142,0-7.5,3.358-7.5,7.5v25.881
		C107.01,37.523,110.368,40.881,114.51,40.881z"
      />
      <path
        d="M174.693,160.569c-2.929-2.929-7.677-2.93-10.607-0.001c-2.929,2.929-2.93,7.677-0.001,10.607l18.296,18.301
		c1.465,1.465,3.384,2.197,5.304,2.197c1.919,0,3.838-0.732,5.303-2.196c2.929-2.929,2.93-7.677,0.001-10.607L174.693,160.569z"
      />
      <path
        d="M54.317,61.408c1.465,1.465,3.384,2.198,5.304,2.198c1.919,0,3.838-0.732,5.302-2.196c2.93-2.929,2.93-7.677,0.002-10.606
		L46.636,32.508c-2.929-2.93-7.677-2.93-10.606-0.002c-2.93,2.929-2.93,7.677-0.002,10.606L54.317,61.408z"
      />
      <path
        d="M54.325,160.569L36.028,178.87c-2.929,2.929-2.928,7.678,0.001,10.606c1.464,1.464,3.384,2.196,5.303,2.196
		c1.919,0,3.839-0.732,5.304-2.197l18.297-18.301c2.929-2.929,2.928-7.678-0.001-10.606C62.003,157.64,57.254,157.64,54.325,160.569
		z"
      />
      <path
        d="M169.393,63.605c1.919,0,3.839-0.732,5.304-2.197l18.292-18.295c2.929-2.929,2.928-7.678-0.001-10.606
		c-2.929-2.929-7.678-2.929-10.606,0.001l-18.292,18.295c-2.929,2.929-2.928,7.678,0.001,10.606
		C165.554,62.874,167.473,63.605,169.393,63.605z"
      />
    </g>
    <g />
    <g />
    <g />
    <g />
    <g />
    <g />
    <g />
    <g />
    <g />
    <g />
    <g />
    <g />
    <g />
    <g />
    <g />
  </symbol>
  <symbol
    id="icon-support"
    xmlns="http://www.w3.org/2000/svg"
    viewBox="0 0 24 24"
  >
    <rect id="view-box" width="24" height="24" fill="none" />
    <path
      id="Shape"
      d="M8,17.751a2.749,2.749,0,0,1,5.127-1.382C15.217,15.447,16,14,16,11.25v-3c0-3.992-2.251-6.75-5.75-6.75S4.5,4.259,4.5,8.25v3.5a.751.751,0,0,1-.75.75h-1A2.753,2.753,0,0,1,0,9.751v-1A2.754,2.754,0,0,1,2.75,6h.478c.757-3.571,3.348-6,7.022-6s6.264,2.429,7.021,6h.478a2.754,2.754,0,0,1,2.75,2.75v1a2.753,2.753,0,0,1-2.75,2.75H17.44A5.85,5.85,0,0,1,13.5,17.84,2.75,2.75,0,0,1,8,17.751Zm1.5,0a1.25,1.25,0,1,0,1.25-1.25A1.251,1.251,0,0,0,9.5,17.751Zm8-6.75h.249A1.251,1.251,0,0,0,19,9.751v-1A1.251,1.251,0,0,0,17.75,7.5H17.5Zm-16-2.25v1A1.251,1.251,0,0,0,2.75,11H3V7.5H2.75A1.251,1.251,0,0,0,1.5,8.751Z"
      transform="translate(1.75 2.25)"
    />
  </symbol>
  <symbol
    fill="none"
    xmlns="http://www.w3.org/2000/svg"
    viewBox="0 0 60 60"
    id="icon-type-account"
  >
    <path
      d="M30 0C46.5685 0 60 13.4315 60 30C60 46.5685 46.5685 60 30 60C13.4315 60 0 46.5685 0 30C0 13.4315 13.4315 0 30 0Z"
      fill="#E7F7FB"
    />
    <g clip-path="url(#clip0_764_380)">
      <path
        d="M26.1016 21.5486C26.1495 21.5644 26.1981 21.572 26.2459 21.572C26.4388 21.572 26.6184 21.4496 26.6823 21.2565C26.7474 21.0596 26.9306 20.9274 27.1382 20.9274H29.6831C29.937 20.9274 30.1428 20.7216 30.1428 20.4677C30.1428 20.2138 29.937 20.008 29.6831 20.008H27.1382C26.5333 20.008 25.9992 20.3937 25.8094 20.9679C25.7297 21.2089 25.8605 21.4689 26.1016 21.5486Z"
        fill="#00E5A8"
      />
      <path
        d="M32.3099 20.9274H36.0312C36.285 20.9274 36.4908 20.7216 36.4908 20.4677C36.4908 20.2138 36.285 20.008 36.0312 20.008H32.3099C32.056 20.008 31.8502 20.2138 31.8502 20.4677C31.8502 20.7216 32.056 20.9274 32.3099 20.9274Z"
        fill="#00E5A8"
      />
      <path
        d="M40.207 37.9058C39.9531 37.9058 39.7473 38.1116 39.7473 38.3655V39.2593C39.7473 39.524 39.532 39.7393 39.2674 39.7393H37.9165C37.6626 39.7393 37.4568 39.9451 37.4568 40.199C37.4568 40.4528 37.6626 40.6586 37.9165 40.6586H39.2674C40.0389 40.6586 40.6667 40.0309 40.6667 39.2593V38.3655C40.6667 38.1116 40.4609 37.9058 40.207 37.9058Z"
        fill="#00E5A8"
      />
      <path
        d="M40.2069 31.5578C39.9531 31.5578 39.7473 31.7636 39.7473 32.0175V35.7387C39.7473 35.9926 39.9531 36.1984 40.2069 36.1984C40.4608 36.1984 40.6666 35.9926 40.6666 35.7387V32.0175C40.6666 31.7636 40.4608 31.5578 40.2069 31.5578Z"
        fill="#00E5A8"
      />
      <path
        d="M40.2069 25.2098C39.9531 25.2098 39.7473 25.4156 39.7473 25.6695V29.3907C39.7473 29.6446 39.9531 29.8504 40.2069 29.8504C40.4608 29.8504 40.6666 29.6446 40.6666 29.3907V25.6695C40.6666 25.4156 40.4608 25.2098 40.2069 25.2098Z"
        fill="#00E5A8"
      />
      <path
        d="M35.2897 39.7392L31.5684 39.7392C31.3146 39.7392 31.1087 39.945 31.1087 40.1989C31.1087 40.4528 31.3145 40.6586 31.5684 40.6586L35.2897 40.6586C35.5435 40.6586 35.7493 40.4528 35.7493 40.1989C35.7493 39.945 35.5436 39.7392 35.2897 39.7392Z"
        fill="#00E5A8"
      />
      <path
        d="M39.2673 20.008H38.6579C38.4041 20.008 38.1982 20.2138 38.1982 20.4677C38.1982 20.7216 38.4041 20.9274 38.6579 20.9274H39.2673C39.5319 20.9274 39.7472 21.1427 39.7472 21.4073V23.0427C39.7472 23.2965 39.953 23.5023 40.2069 23.5023C40.4608 23.5023 40.6666 23.2965 40.6666 23.0427V21.4073C40.6666 20.6358 40.0389 20.008 39.2673 20.008Z"
        fill="#00E5A8"
      />
      <path
        d="M31.0998 32.5222C30.9203 32.7017 30.9203 32.9928 31.0998 33.1723C31.1896 33.2621 31.3073 33.3069 31.4249 33.3069C31.5425 33.3069 31.6602 33.2621 31.75 33.1723L37.0726 27.8496C37.2521 27.6701 37.2521 27.379 37.0726 27.1995C36.8931 27.02 36.6021 27.02 36.4225 27.1995L31.0998 32.5222Z"
        fill="#00E5A8"
      />
      <path
        d="M32.1473 29.8541C33.0334 29.8541 33.7544 29.1332 33.7544 28.247C33.7544 27.3609 33.0334 26.64 32.1472 26.64C31.2611 26.64 30.5402 27.3609 30.5402 28.247C30.5402 29.1332 31.2611 29.8541 32.1473 29.8541ZM32.1473 27.5593C32.5265 27.5593 32.835 27.8678 32.835 28.247C32.835 28.6262 32.5265 28.9347 32.1473 28.9347C31.7681 28.9347 31.4596 28.6262 31.4596 28.247C31.4596 27.8678 31.7681 27.5593 32.1473 27.5593Z"
        fill="#00E5A8"
      />
      <path
        d="M36.0251 30.5178C35.1389 30.5178 34.418 31.2386 34.418 32.1247C34.418 33.011 35.1389 33.732 36.0251 33.732C36.9112 33.732 37.6321 33.011 37.6321 32.1247C37.6321 31.2386 36.9112 30.5178 36.0251 30.5178ZM36.0251 32.8126C35.6459 32.8126 35.3373 32.504 35.3373 32.1247C35.3373 31.7456 35.6459 31.4371 36.0251 31.4371C36.4043 31.4371 36.7128 31.7456 36.7128 32.1247C36.7128 32.504 36.4043 32.8126 36.0251 32.8126Z"
        fill="#00E5A8"
      />
      <path
        d="M28.9847 35.4109C28.7924 35.4109 28.606 35.4522 28.4308 35.5337C27.7732 35.8394 27.4868 36.6232 27.7925 37.2808C28.0075 37.7432 28.4758 38.0419 28.9858 38.0419C29.1781 38.0419 29.3644 38.0006 29.5396 37.9191C29.8582 37.771 30.1001 37.5077 30.2206 37.1776C30.3412 36.8476 30.326 36.4904 30.1779 36.1718C29.963 35.7096 29.4946 35.4109 28.9847 35.4109ZM29.3571 36.8623C29.3208 36.9616 29.248 37.0408 29.1521 37.0854C29.0991 37.1101 29.0432 37.1225 28.9858 37.1225C28.832 37.1225 28.6909 37.0325 28.6262 36.8933C28.5342 36.6954 28.6203 36.4595 28.8183 36.3674C28.8713 36.3428 28.9272 36.3303 28.9847 36.3303C29.1384 36.3303 29.2795 36.4203 29.3442 36.5594C29.3887 36.6553 29.3933 36.7629 29.3571 36.8623Z"
        fill="#00E5A8"
      />
      <path
        d="M31.8633 35.3884C31.3514 34.2871 30.243 33.5705 29.0305 33.5524L27.6002 30.4758L30.4037 24.445C30.7141 23.7774 30.4234 22.9817 29.7557 22.6712L29.6764 22.6344C29.3529 22.484 28.9903 22.4686 28.6553 22.591C28.3203 22.7134 28.053 22.9589 27.9026 23.2823L26.0794 27.2043L24.2563 23.2823C24.0381 22.813 23.5626 22.5097 23.0449 22.5097C22.8497 22.5097 22.6605 22.5517 22.4826 22.6344L22.4031 22.6713C21.7355 22.9818 21.4448 23.7774 21.7552 24.445L24.5587 30.4758L23.1285 33.5524C21.9229 33.5703 20.8114 34.2787 20.2956 35.3884C19.5579 36.9754 20.2488 38.8668 21.8358 39.6046C22.2675 39.8053 22.7214 39.9002 23.1689 39.9002C24.3662 39.9001 25.5148 39.2196 26.0519 38.0643C26.0615 38.0437 26.0704 38.023 26.0795 38.0022C26.0886 38.023 26.0974 38.0438 26.107 38.0644C26.6257 39.18 27.7561 39.9009 28.987 39.901C28.987 39.901 28.9871 39.901 28.9872 39.901C29.4506 39.901 29.9001 39.8013 30.3232 39.6045C31.9102 38.8668 32.6011 36.9754 31.8633 35.3884ZM28.7364 23.6699C28.7832 23.5691 28.8664 23.4927 28.9708 23.4546C29.0751 23.4164 29.188 23.4211 29.2889 23.4681L29.3682 23.505C29.5762 23.6017 29.6667 23.8495 29.57 24.0575L27.0933 29.3853L26.5864 28.2948L28.7364 23.6699ZM25.2182 37.6768C24.6942 38.8041 23.3506 39.2949 22.2233 38.7709C21.096 38.2468 20.6052 36.9033 21.1293 35.7759C21.5289 34.9162 22.4315 34.3956 23.3757 34.4804C23.5686 34.4977 23.7519 34.3921 23.8337 34.2163L25.0656 31.5662L25.5725 32.6567L24.6674 34.6039C24.5857 34.7797 24.623 34.9878 24.7607 35.1242C25.434 35.7913 25.6179 36.8171 25.2182 37.6768ZM26.0795 35.4523C25.965 35.1901 25.8148 34.9415 25.6295 34.7151L26.0795 33.7472L26.5294 34.7151C26.3442 34.9415 26.194 35.19 26.0795 35.4523ZM29.9356 38.7709C29.6348 38.9107 29.3157 38.9816 28.9872 38.9816C28.9872 38.9816 28.9871 38.9816 28.987 38.9816C28.1124 38.9816 27.3092 38.4694 26.9407 37.6768C26.5411 36.8171 26.725 35.7913 27.3983 35.1242C27.536 34.9878 27.5734 34.7796 27.4916 34.6039L22.5889 24.0574C22.4922 23.8495 22.5828 23.6016 22.7907 23.505L22.8701 23.4681C22.9257 23.4422 22.9845 23.429 23.0448 23.429C23.2063 23.429 23.3545 23.5236 23.4225 23.6698L28.3252 34.2162C28.407 34.3921 28.5904 34.4974 28.7832 34.4803C28.8495 34.4744 28.9169 34.4713 28.9835 34.4713C29.8581 34.4713 30.6612 34.9834 31.0296 35.7758C31.5537 36.9033 31.0629 38.2468 29.9356 38.7709Z"
        fill="#00E5A8"
      />
      <path
        d="M23.7282 35.5337C23.0705 35.228 22.2868 35.5143 21.981 36.1719C21.833 36.4904 21.8178 36.8477 21.9384 37.1776C22.0589 37.5077 22.3008 37.771 22.6193 37.9191C22.7982 38.0022 22.9863 38.0416 23.1718 38.0416C23.6679 38.0416 24.1439 37.7596 24.3665 37.2809C24.5146 36.9623 24.5297 36.6051 24.4092 36.2751C24.2886 35.9451 24.0468 35.6818 23.7282 35.5337ZM23.5328 36.8933C23.4407 37.0912 23.2048 37.1773 23.0068 37.0854C22.911 37.0408 22.8382 36.9616 22.8019 36.8623C22.7656 36.7628 22.7702 36.6553 22.8147 36.5595C22.8593 36.4636 22.9385 36.3908 23.0379 36.3545C23.0822 36.3383 23.1281 36.3302 23.1739 36.3302C23.2308 36.3302 23.2875 36.3426 23.3406 36.3674C23.4365 36.412 23.5093 36.4912 23.5456 36.5905C23.5819 36.6898 23.5773 36.7974 23.5328 36.8933Z"
        fill="#00E5A8"
      />
    </g>
    <defs>
      <clipPath id="clip0_764_380">
        <rect
          width="20.6667"
          height="20.6667"
          fill="white"
          transform="translate(20 20)"
        />
      </clipPath>
    </defs>
  </symbol>
  <symbol
    fill="none"
    xmlns="http://www.w3.org/2000/svg"
    viewBox="0 0 24 24"
    id="icon-verified"
  >
    <path
      d="M11.5283 1.5999C11.7686 1.29437 12.2314 1.29437 12.4717 1.5999L14.2805 3.90051C14.4309 4.09173 14.6818 4.17325 14.9158 4.10693L17.7314 3.3089C18.1054 3.20292 18.4799 3.475 18.4946 3.86338L18.6057 6.78783C18.615 7.03089 18.77 7.24433 18.9984 7.32823L21.7453 8.33761C22.1101 8.47166 22.2532 8.91189 22.0368 9.23478L20.4078 11.666C20.2724 11.8681 20.2724 12.1319 20.4078 12.334L22.0368 14.7652C22.2532 15.0881 22.1101 15.5283 21.7453 15.6624L18.9984 16.6718C18.77 16.7557 18.615 16.9691 18.6057 17.2122L18.4946 20.1366C18.4799 20.525 18.1054 20.7971 17.7314 20.6911L14.9158 19.8931C14.6818 19.8267 14.4309 19.9083 14.2805 20.0995L12.4717 22.4001C12.2314 22.7056 11.7686 22.7056 11.5283 22.4001L9.71949 20.0995C9.56915 19.9083 9.31823 19.8267 9.08421 19.8931L6.26856 20.6911C5.89463 20.7971 5.52014 20.525 5.50539 20.1366L5.39427 17.2122C5.38503 16.9691 5.22996 16.7557 5.00164 16.6718L2.25467 15.6624C1.88986 15.5283 1.74682 15.0881 1.96317 14.7652L3.59221 12.334C3.72761 12.1319 3.72761 11.8681 3.59221 11.666L1.96317 9.23478C1.74682 8.91189 1.88986 8.47166 2.25467 8.33761L5.00165 7.32823C5.22996 7.24433 5.38503 7.03089 5.39427 6.78783L5.50539 3.86338C5.52014 3.475 5.89463 3.20292 6.26857 3.3089L9.08421 4.10693C9.31823 4.17325 9.56915 4.09173 9.71949 3.90051L11.5283 1.5999Z"
      stroke-width="1.5"
    />
    <path
      d="M9 12L11 14L15 10"
      stroke-width="1.5"
      stroke-linecap="round"
      stroke-linejoin="round"
    />
  </symbol>
    <symbol
    id="icon-platforms"
    xmlns="http://www.w3.org/2000/svg"
    viewBox="0 0 64 64"
  >
    <path
      d="M49,42.37H15a2,2,0,0,1-2-2v-21a6.26,6.26,0,0,1,6.25-6.26H44.79A6.26,6.26,0,0,1,51,19.34v21A2,2,0,0,1,49,42.37ZM17,38.37H47v-19a2.26,2.26,0,0,0-2.25-2.26H19.21A2.26,2.26,0,0,0,17,19.34Z"
    />
    <path
      d="M49.27,50.92H14.73A5.93,5.93,0,0,1,8.81,45V40.37a2,2,0,0,1,2-2H53.19a2,2,0,0,1,2,2V45A5.93,5.93,0,0,1,49.27,50.92ZM12.81,42.37V45a1.92,1.92,0,0,0,1.92,1.92H49.27A1.92,1.92,0,0,0,51.19,45V42.37Z"
    />
  </symbol>

    <symbol
    version="1.1"
    xmlns="http://www.w3.org/2000/svg"
    xmlns:xlink="http://www.w3.org/1999/xlink"
    viewBox="0 0 24 24"
    id="arrow-up"
  >
   
    <g
      id="directional"
      stroke="none"
      stroke-width="1"
      fill="none"
      fill-rule="evenodd"
    >
      <g id="arrow-up" fill="#fff">
        <polygon id="Shape" points="4 15 12 7 20 15 18 17 12 11 6 17" />
      </g>
    </g>
  </symbol>

</svg>
