<svg width="20" height="16" viewBox="0 0 20 16" fill="none" xmlns="http://www.w3.org/2000/svg">
<path d="M19.707 8.69471L12.707 15.6947C12.5184 15.8769 12.2658 15.9777 12.0036 15.9754C11.7414 15.9731 11.4906 15.8679 11.3052 15.6825C11.1198 15.4971 11.0146 15.2463 11.0123 14.9841C11.01 14.7219 11.1108 14.4693 11.293 14.2807L16.586 8.98771H1C0.734784 8.98771 0.48043 8.88235 0.292893 8.69482C0.105357 8.50728 0 8.25293 0 7.98771C0 7.7225 0.105357 7.46814 0.292893 7.28061C0.48043 7.09307 0.734784 6.98771 1 6.98771H16.586L11.293 1.69471C11.1108 1.50611 11.01 1.25351 11.0123 0.991311C11.0146 0.729114 11.1198 0.478302 11.3052 0.292894C11.4906 0.107485 11.7414 0.00231622 12.0036 3.78025e-05C12.2658 -0.00224062 12.5184 0.0985542 12.707 0.280712L19.707 7.28071C19.8945 7.46824 19.9998 7.72255 19.9998 7.98771C19.9998 8.25288 19.8945 8.50718 19.707 8.69471Z" fill="#2196F3"/>
</svg>
