<svg width="148" height="54" viewBox="0 0 148 54" fill="none" xmlns="http://www.w3.org/2000/svg">
<g clip-path="url(#clip0_721_757)">
<path d="M50.909 14.7715H53.7103L61.5139 33.5354H57.7121L55.8112 28.6448H48.908L47.0071 33.5354H43.2053L50.909 14.7715ZM54.5106 25.3511L52.4097 19.8617L50.3087 25.3511H54.5106Z" fill="#56ABFF"/>
<path d="M63.5149 14.7715H68.7173C77.3214 14.7715 78.8221 20.5604 78.8221 24.2533C78.8221 26.2494 78.3218 33.5354 68.8174 33.5354H63.5149V14.7715ZM68.7173 30.2417C70.6182 30.2417 75.3204 30.0421 75.3204 24.353C75.3204 18.4644 70.4181 18.2648 68.5172 18.2648H67.0165V30.2417H68.7173Z" fill="#56ABFF"/>
<path d="M81.3232 14.7715H86.7257C93.0287 14.7715 93.8291 18.9634 93.8291 20.76C93.8291 23.7542 91.8281 26.3492 88.7267 26.6487L94.0292 33.5354H89.7271L84.8248 26.6487H84.7248V33.5354H81.2231V14.7715H81.3232ZM84.8248 23.7542H86.9258C87.7262 23.7542 90.4275 23.6545 90.4275 20.9597C90.4275 18.2648 87.7262 18.165 86.9258 18.165H84.8248V23.7542Z" fill="#56ABFF"/>
<path d="M114.939 24.3531C114.939 29.7428 110.637 34.1344 105.034 34.1344C99.4317 34.1344 95.1296 29.8426 95.1296 24.3531C95.1296 18.9635 99.4317 14.572 105.034 14.572C110.637 14.572 114.939 18.8637 114.939 24.3531ZM111.437 24.2534C111.437 20.7601 108.736 17.8656 105.034 17.8656C101.333 17.8656 98.6313 20.7601 98.6313 24.2534C98.6313 27.8464 101.433 30.7409 105.034 30.7409C108.736 30.6411 111.437 27.7466 111.437 24.2534Z" fill="#56ABFF"/>
<path d="M33.0006 0H28.2983V40.1228H33.0006V0Z" fill="#1976D2"/>
<path d="M25.9974 18.4646H21.2952V52.0999H25.9974V18.4646Z" fill="#1E88E5"/>
<path d="M19.094 15.9692H14.3918V40.1227H19.094V15.9692Z" fill="#2196F3"/>
<path d="M12.0909 9.18237H7.38867V27.6469H12.0909V9.18237Z" fill="#42A5F5"/>
<path d="M5.18754 21.3589H0.485352V33.9348H5.18754V21.3589Z" fill="#64B5F6"/>
<path d="M119.746 14.8093H129.351V18.2028H123.248V22.4946H129.05V25.888H123.248V33.5732H119.746V14.8093Z" fill="#F44336"/>
<path d="M136.854 24.1913L130.351 14.8093H134.453L138.955 21.2969L143.457 14.8093H147.559L141.056 24.1913L147.559 33.5732H143.357L138.855 27.0857L134.353 33.5732H130.351L136.854 24.1913Z" fill="#F44336"/>
</g>
<path d="M47.2178 50H46.564V41.3291H43.5488V40.7197H50.2329V41.3291H47.2178V50Z" fill="#1976D2"/>
<path d="M56.2695 50V45.5249C56.2695 44.8309 56.1235 44.3273 55.8315 44.0142C55.5396 43.6968 55.0868 43.5381 54.4731 43.5381C53.6479 43.5381 53.0428 43.7476 52.6577 44.1665C52.2769 44.5812 52.0864 45.2562 52.0864 46.1914V50H51.458V40.123H52.0864V43.2651L52.0547 44.1475H52.0991C52.3573 43.7327 52.6831 43.4323 53.0767 43.2461C53.4702 43.0599 53.959 42.9668 54.543 42.9668C56.1087 42.9668 56.8916 43.8068 56.8916 45.4868V50H56.2695Z" fill="#1976D2"/>
<path d="M61.9126 50.127C60.9097 50.127 60.1268 49.818 59.564 49.2002C59.0054 48.5824 58.7261 47.717 58.7261 46.604C58.7261 45.5037 58.9969 44.6235 59.5386 43.9634C60.0802 43.299 60.8102 42.9668 61.7285 42.9668C62.541 42.9668 63.1821 43.2503 63.6519 43.8174C64.1216 44.3844 64.3564 45.1546 64.3564 46.1279V46.6357H59.3862C59.3947 47.5837 59.6147 48.3073 60.0464 48.8066C60.4823 49.306 61.1043 49.5557 61.9126 49.5557C62.3062 49.5557 62.651 49.5282 62.9473 49.4731C63.2477 49.4181 63.6265 49.2996 64.0835 49.1177V49.689C63.6942 49.8582 63.3345 49.9725 63.0044 50.0317C62.6743 50.0952 62.3104 50.127 61.9126 50.127ZM61.7285 43.5254C61.0641 43.5254 60.5309 43.7454 60.1289 44.1855C59.7269 44.6214 59.492 45.252 59.4243 46.0771H63.6899C63.6899 45.2773 63.5164 44.6532 63.1694 44.2046C62.8224 43.7518 62.3421 43.5254 61.7285 43.5254Z" fill="#1976D2"/>
<path d="M74.2651 46.7246H70.4946L69.1997 50H68.4824L72.2148 40.6816H72.6274L76.2837 50H75.5537L74.2651 46.7246ZM70.7295 46.1406H74.0493L72.7861 42.7954C72.6803 42.533 72.5534 42.1691 72.4053 41.7036C72.291 42.1099 72.1662 42.478 72.0308 42.8081L70.7295 46.1406Z" fill="#1976D2"/>
<path d="M80.1621 42.9668C80.4541 42.9668 80.7673 42.9964 81.1016 43.0557L80.981 43.6587C80.6932 43.5868 80.3949 43.5508 80.0859 43.5508C79.4977 43.5508 79.0153 43.8005 78.6387 44.2998C78.262 44.7992 78.0737 45.4297 78.0737 46.1914V50H77.4453V43.1001H77.9785L78.042 44.3442H78.0864C78.37 43.8364 78.6725 43.481 78.9941 43.2778C79.3158 43.0705 79.7051 42.9668 80.1621 42.9668Z" fill="#1976D2"/>
<path d="M84.3325 49.5684C84.7303 49.5684 85.0773 49.5345 85.3735 49.4668V49.9746C85.0688 50.0762 84.7176 50.127 84.3198 50.127C83.7104 50.127 83.2598 49.964 82.9678 49.6382C82.68 49.3123 82.5361 48.8003 82.5361 48.1021V43.646H81.5142V43.2778L82.5361 42.9922L82.8535 41.4307H83.1772V43.1001H85.2021V43.646H83.1772V48.0132C83.1772 48.5422 83.2703 48.9336 83.4565 49.1875C83.6427 49.4414 83.9347 49.5684 84.3325 49.5684Z" fill="#1976D2"/>
<path d="M95.9487 46.5405C95.9487 47.6662 95.6758 48.5464 95.1299 49.1812C94.584 49.8117 93.8307 50.127 92.8701 50.127C92.265 50.127 91.7318 49.981 91.2705 49.689C90.8092 49.397 90.4559 48.978 90.2104 48.4321C89.965 47.8862 89.8423 47.2557 89.8423 46.5405C89.8423 45.4149 90.1152 44.5389 90.6611 43.9126C91.207 43.2821 91.9561 42.9668 92.9082 42.9668C93.8561 42.9668 94.5988 43.2863 95.1362 43.9253C95.6779 44.5601 95.9487 45.4318 95.9487 46.5405ZM90.5024 46.5405C90.5024 47.4884 90.7098 48.229 91.1245 48.7622C91.5435 49.2912 92.1338 49.5557 92.8955 49.5557C93.6572 49.5557 94.2454 49.2912 94.6602 48.7622C95.0791 48.229 95.2886 47.4884 95.2886 46.5405C95.2886 45.5884 95.077 44.8499 94.6538 44.3252C94.2349 43.8005 93.6445 43.5381 92.8828 43.5381C92.1211 43.5381 91.5329 43.8005 91.1182 44.3252C90.7077 44.8457 90.5024 45.5841 90.5024 46.5405Z" fill="#1976D2"/>
<path d="M100.424 43.646H98.7988V50H98.1704V43.646H96.8882V43.2778L98.1704 43.043V42.5098C98.1704 41.6634 98.3249 41.0435 98.6338 40.6499C98.9469 40.2521 99.4569 40.0532 100.164 40.0532C100.544 40.0532 100.925 40.1104 101.306 40.2246L101.16 40.7705C100.822 40.6647 100.485 40.6118 100.151 40.6118C99.66 40.6118 99.3109 40.7578 99.1035 41.0498C98.9004 41.3376 98.7988 41.8073 98.7988 42.459V43.1001H100.424V43.646Z" fill="#1976D2"/>
<path d="M107.711 50H107.057V41.3291H104.042V40.7197H110.726V41.3291H107.711V50Z" fill="#1976D2"/>
<path d="M114.668 42.9668C114.96 42.9668 115.273 42.9964 115.607 43.0557L115.487 43.6587C115.199 43.5868 114.901 43.5508 114.592 43.5508C114.004 43.5508 113.521 43.8005 113.145 44.2998C112.768 44.7992 112.58 45.4297 112.58 46.1914V50H111.951V43.1001H112.484L112.548 44.3442H112.592C112.876 43.8364 113.178 43.481 113.5 43.2778C113.822 43.0705 114.211 42.9668 114.668 42.9668Z" fill="#1976D2"/>
<path d="M121.206 50L121.047 48.9082H120.997C120.65 49.3525 120.292 49.6678 119.924 49.854C119.56 50.036 119.128 50.127 118.629 50.127C117.952 50.127 117.425 49.9535 117.048 49.6064C116.672 49.2594 116.483 48.7791 116.483 48.1655C116.483 47.4927 116.763 46.9701 117.321 46.5977C117.884 46.2253 118.697 46.0285 119.759 46.0073L121.073 45.9692V45.5122C121.073 44.8563 120.939 44.3612 120.673 44.0269C120.406 43.6925 119.977 43.5254 119.384 43.5254C118.745 43.5254 118.083 43.7031 117.397 44.0586L117.163 43.5127C117.92 43.1572 118.669 42.9795 119.41 42.9795C120.167 42.9795 120.732 43.1763 121.104 43.5698C121.481 43.9634 121.669 44.577 121.669 45.4106V50H121.206ZM118.667 49.5557C119.403 49.5557 119.983 49.3462 120.406 48.9272C120.834 48.5041 121.047 47.918 121.047 47.1689V46.4897L119.841 46.5405C118.872 46.5871 118.18 46.7394 117.766 46.9976C117.355 47.2515 117.15 47.6493 117.15 48.1909C117.15 48.6226 117.281 48.959 117.543 49.2002C117.81 49.4372 118.185 49.5557 118.667 49.5557Z" fill="#1976D2"/>
<path d="M126.437 42.9668C126.936 42.9668 127.368 43.0578 127.731 43.2397C128.095 43.4217 128.421 43.7327 128.709 44.1729H128.747C128.722 43.6396 128.709 43.117 128.709 42.605V40.123H129.331V50H128.918L128.76 48.9463H128.709C128.184 49.7334 127.431 50.127 126.449 50.127C125.497 50.127 124.769 49.8307 124.266 49.2383C123.762 48.6458 123.51 47.7826 123.51 46.6484C123.51 45.4551 123.76 44.5431 124.259 43.9126C124.759 43.2821 125.484 42.9668 126.437 42.9668ZM126.437 43.5381C125.683 43.5381 125.116 43.8026 124.735 44.3315C124.359 44.8605 124.17 45.6286 124.17 46.6357C124.17 48.5908 124.93 49.5684 126.449 49.5684C127.228 49.5684 127.799 49.342 128.163 48.8892C128.527 48.4364 128.709 47.6895 128.709 46.6484V46.5405C128.709 45.4741 128.529 44.7082 128.169 44.2427C127.814 43.7729 127.236 43.5381 126.437 43.5381Z" fill="#1976D2"/>
<path d="M132.283 50H131.654V43.1001H132.283V50ZM131.565 41.1831C131.565 40.7769 131.699 40.5737 131.965 40.5737C132.097 40.5737 132.198 40.6266 132.27 40.7324C132.346 40.8382 132.384 40.9884 132.384 41.1831C132.384 41.3735 132.346 41.5238 132.27 41.6338C132.198 41.7438 132.097 41.7988 131.965 41.7988C131.699 41.7988 131.565 41.5936 131.565 41.1831Z" fill="#1976D2"/>
<path d="M139.411 50V45.5249C139.411 44.8309 139.265 44.3273 138.973 44.0142C138.681 43.6968 138.228 43.5381 137.615 43.5381C136.79 43.5381 136.184 43.7476 135.799 44.1665C135.418 44.5812 135.228 45.2562 135.228 46.1914V50H134.6V43.1001H135.133L135.253 44.0459H135.292C135.74 43.3265 136.538 42.9668 137.685 42.9668C139.25 42.9668 140.033 43.8068 140.033 45.4868V50H139.411Z" fill="#1976D2"/>
<path d="M147.65 43.1001V43.5381L146.222 43.627C146.603 44.1009 146.793 44.6214 146.793 45.1885C146.793 45.8529 146.571 46.3924 146.127 46.8071C145.687 47.2176 145.094 47.4229 144.35 47.4229C144.036 47.4229 143.816 47.4102 143.689 47.3848C143.44 47.516 143.249 47.6704 143.118 47.8481C142.987 48.0259 142.921 48.2142 142.921 48.4131C142.921 48.6331 143.004 48.7939 143.169 48.8955C143.338 48.9971 143.62 49.0479 144.013 49.0479H145.219C145.968 49.0479 146.542 49.2002 146.939 49.5049C147.337 49.8053 147.536 50.2518 147.536 50.8442C147.536 51.5721 147.24 52.1328 146.647 52.5264C146.059 52.9242 145.219 53.123 144.127 53.123C143.26 53.123 142.587 52.9559 142.109 52.6216C141.635 52.2873 141.398 51.8218 141.398 51.2251C141.398 50.7511 141.544 50.3576 141.836 50.0444C142.132 49.7313 142.532 49.5176 143.036 49.4033C142.828 49.3145 142.661 49.1896 142.534 49.0288C142.411 48.8638 142.35 48.6755 142.35 48.4639C142.35 48.0026 142.644 47.5964 143.232 47.2451C142.83 47.0801 142.517 46.8219 142.293 46.4707C142.069 46.1152 141.957 45.709 141.957 45.252C141.957 44.5622 142.174 44.0099 142.61 43.5952C143.05 43.1763 143.643 42.9668 144.388 42.9668C144.84 42.9668 145.192 43.0112 145.441 43.1001H147.65ZM142.064 51.168C142.064 52.1159 142.769 52.5898 144.178 52.5898C145.989 52.5898 146.895 52.0122 146.895 50.8569C146.895 50.4422 146.753 50.1418 146.47 49.9556C146.186 49.7694 145.727 49.6763 145.092 49.6763H143.962C142.697 49.6763 142.064 50.1735 142.064 51.168ZM142.591 45.252C142.591 45.7852 142.752 46.1999 143.074 46.4961C143.4 46.7881 143.833 46.9341 144.375 46.9341C144.951 46.9341 145.391 46.7881 145.695 46.4961C146.004 46.2041 146.159 45.7809 146.159 45.2266C146.159 44.6383 146 44.1982 145.683 43.9062C145.369 43.61 144.929 43.4619 144.362 43.4619C143.812 43.4619 143.378 43.6206 143.061 43.938C142.748 44.2511 142.591 44.6891 142.591 45.252Z" fill="#1976D2"/>
<defs>
<clipPath id="clip0_721_757">
<rect width="147" height="52" fill="white" transform="translate(0.485352)"/>
</clipPath>
</defs>
</svg>
