<svg width="870" height="717" viewBox="0 0 870 717" fill="none" xmlns="http://www.w3.org/2000/svg">
<path fill-rule="evenodd" clip-rule="evenodd" d="M36.7997 32.3863L36.803 32.3831C58.8015 10.9901 86.0568 0.300014 118.5 0.300014C154.342 0.300014 182.733 12.0918 203.551 35.7392L204.151 36.421L171.577 71.1874L170.85 70.3606C157.846 55.5839 141.223 48.2 120.9 48.2C101.73 48.2 86.0922 54.2188 73.9015 66.2128C61.7383 78.1798 55.6002 94.8962 55.6002 116.5C55.6002 137.705 61.5401 154.437 73.3243 166.81C85.1193 179.195 100.249 185.4 118.8 185.4C139.071 185.4 156.809 176.757 172.048 159.342L172.741 158.549L205.634 190.502L205.095 191.207C194.596 204.937 181.566 215.341 166.014 222.41C150.482 229.47 134.04 233 116.7 233C84.4518 233 57.5902 222.206 36.1898 200.604C14.7787 178.991 4.10019 150.925 4.10019 116.5C4.10019 81.8716 14.9813 53.8007 36.7997 32.3863ZM170.932 68.9506C157.832 54.4502 141.154 47.2 120.9 47.2C101.5 47.2 85.6002 53.3 73.2002 65.5C60.8002 77.7 54.6002 94.7 54.6002 116.5C54.6002 137.9 60.6002 154.9 72.6002 167.5C84.6002 180.1 100 186.4 118.8 186.4C139.105 186.4 156.884 177.85 172.137 160.75C172.359 160.502 172.58 160.252 172.8 160L204.3 190.6C193.9 204.2 181 214.5 165.6 221.5C150.2 228.5 133.9 232 116.7 232C84.7002 232 58.1002 221.3 36.9002 199.9C15.7002 178.5 5.10019 150.7 5.10019 116.5C5.10019 82.1 15.9002 54.3 37.5002 33.1C59.3002 11.9 86.3002 1.30001 118.5 1.30001C154.1 1.30001 182.2 13 202.8 36.4L171.6 69.7C171.379 69.4481 171.156 69.1983 170.932 68.9506ZM289.474 225.737L289.469 225.735C276.165 220.696 263.871 213.54 252.589 204.273L252.582 204.267C241.451 194.957 232.466 182.729 225.613 167.613L225.608 167.603C218.946 152.461 215.624 135.622 215.624 117.1C215.624 98.1814 218.945 81.0433 225.606 65.7017L225.611 65.6916C232.463 50.3753 241.448 38.0449 252.582 28.7329L252.589 28.7272C263.873 19.4586 276.17 12.4014 289.478 7.56152C302.986 2.52172 316.803 0 330.924 0C345.043 0 358.86 2.52152 372.367 7.5608C385.874 12.3999 398.272 19.4564 409.557 28.7258C421.091 38.0358 430.279 50.366 437.133 65.6849C444.2 81.0306 447.724 98.1748 447.724 117.1C447.724 135.626 444.3 152.469 437.434 167.613C430.58 182.733 421.492 194.963 410.158 204.273C398.872 213.544 386.375 220.699 372.67 225.738C359.16 230.779 345.243 233.3 330.924 233.3C316.802 233.3 302.983 230.778 289.474 225.737ZM408.924 29.5C397.724 20.3 385.424 13.3 372.024 8.50001C358.624 3.5 344.924 1 330.924 1C316.924 1 303.224 3.5 289.824 8.50001C276.624 13.3 264.424 20.3 253.224 29.5C242.224 38.7 233.324 50.9 226.524 66.1C219.924 81.3 216.624 98.3 216.624 117.1C216.624 135.5 219.924 152.2 226.524 167.2C233.324 182.2 242.224 194.3 253.224 203.5C264.424 212.7 276.624 219.8 289.824 224.8C303.224 229.8 316.924 232.3 330.924 232.3C345.124 232.3 358.924 229.8 372.324 224.8C385.924 219.8 398.324 212.7 409.524 203.5C420.724 194.3 429.724 182.2 436.524 167.2C443.324 152.2 446.724 135.5 446.724 117.1C446.724 98.3 443.224 81.3 436.224 66.1C429.424 50.9 420.324 38.7 408.924 29.5ZM376.757 65.645L376.751 65.64C363.735 53.8069 348.474 47.9 330.924 47.9C313.374 47.9 298.319 53.8061 285.708 65.6295C273.37 77.1836 267.124 94.2806 267.124 117.1C267.124 138.898 273.458 155.605 286.008 167.37C298.622 179.196 313.577 185.1 330.924 185.1C348.272 185.1 363.535 179.195 376.757 167.355C389.898 155.586 396.524 138.884 396.524 117.1C396.524 94.5029 389.891 77.407 376.757 65.645ZM535.715 228.5H486.015V4.80001H561.715C588.473 4.80001 609.918 11.3394 625.944 24.5222C642.207 37.5348 650.315 55.6369 650.315 78.7C650.315 103.746 641.918 122.77 625.02 135.597C608.186 148.374 584.844 154.7 555.115 154.7H535.715V228.5ZM534.715 153.7H555.115C584.715 153.7 607.815 147.4 624.415 134.8C641.015 122.2 649.315 103.5 649.315 78.7C649.315 55.9 641.315 38.1 625.315 25.3C609.515 12.3 588.315 5.80001 561.715 5.80001H487.015V227.5H534.715V153.7ZM589.329 56.7104L589.315 56.7C583.17 52.0916 573.531 49.7 560.215 49.7H535.715V110.7H555.115C570.447 110.7 581.497 108.203 588.445 103.379C595.283 98.6298 598.815 90.504 598.815 78.7C598.815 68.3124 595.593 61.0762 589.343 56.7204L589.329 56.7104ZM534.715 111.7V48.7H560.215C573.615 48.7 583.515 51.1 589.915 55.9C596.515 60.5 599.815 68.1 599.815 78.7C599.815 90.7 596.215 99.2 589.015 104.2C581.815 109.2 570.515 111.7 555.115 111.7H534.715ZM811.727 4.80001H869.881L786.925 144.674V228.5H737.525V146.472L654.278 4.80001H713.923L762.825 95.7877L811.727 4.80001ZM762.825 97.9L713.325 5.80001H656.025L738.525 146.2V227.5H785.925V144.4L868.125 5.80001H812.325L762.825 97.9ZM62.0002 470.5V291.7H0.200195V246.8H173.5V291.7H111.7V470.5H62.0002ZM110.7 290.7H172.5V247.8H1.2002V290.7H63.0002V469.5H110.7V290.7ZM382.235 470.5H323.063L257.102 370.239V470.5H207.402V246.8H289.702C316.635 246.8 337.782 252.728 353.017 264.711C368.508 276.739 376.202 294.459 376.202 317.7C376.202 335.78 371.426 350.36 361.778 361.335C352.396 372.008 338.501 379.163 320.21 382.883L382.235 470.5ZM318.502 382.2C318.862 382.131 319.221 382.061 319.578 381.99C356.661 374.589 375.202 353.159 375.202 317.7C375.202 294.7 367.602 277.3 352.402 265.5C337.402 253.7 316.502 247.8 289.702 247.8H208.402V469.5H256.102V366.9L323.602 469.5H380.302L318.502 382.2ZM314.058 342.061L314.068 342.054C321.322 337.473 325.002 330.129 325.002 319.8C325.002 310.052 321.704 302.881 315.209 298.106C308.658 293.288 298.709 290.8 285.202 290.8H257.102V349.1H278.902C295.25 349.1 306.907 346.699 314.058 342.061ZM256.102 350.1V289.8H285.202C312.402 289.8 326.002 299.8 326.002 319.8C326.002 330.4 322.202 338.1 314.602 342.9C307.202 347.7 295.302 350.1 278.902 350.1H256.102ZM545.714 470.5L529.814 432.4H454.051L438.451 470.5H385.225L489.037 242.9H496.624L600.133 470.5H545.714ZM453.38 431.4H530.48L546.38 469.5H598.58L495.98 243.9H489.68L386.78 469.5H437.78L453.38 431.4ZM491.78 331.5L466.88 392.4H516.98L491.78 331.5ZM491.785 334.129L468.369 391.4H515.484L491.785 334.129ZM778.988 440.561C755.557 460.558 723.701 470.5 683.538 470.5H622.538V246.8H683.538C725.476 246.8 757.841 256.43 780.485 275.837C803.146 295.058 814.438 321.858 814.438 356.1C814.438 392.14 802.647 420.339 778.988 440.561ZM743.525 307.39L743.518 307.384C730.369 296.983 710.631 291.7 684.138 291.7H671.638V425.6H684.138C708.981 425.6 728.323 419.639 742.288 407.84C756.218 395.871 763.238 378.677 763.238 356.1C763.238 333.698 756.605 317.542 743.525 307.39ZM684.138 426.6C709.138 426.6 728.738 420.6 742.938 408.6C757.138 396.4 764.238 378.9 764.238 356.1C764.238 333.5 757.538 317 744.138 306.6C730.738 296 710.738 290.7 684.138 290.7H670.638V426.6H684.138ZM15.8002 712.5V488.8H65.5002V712.5H15.8002ZM244.11 488.8H294.11V716.1H286.089L165.11 592.452V712.5H115.41V484.9H123.731L244.11 608.244V488.8ZM245.11 610.7L123.31 485.9H116.41V711.5H164.11V590L286.51 715.1H293.11V489.8H245.11V610.7ZM548.678 585.7L548.763 586.607C549.365 593.029 549.667 598.762 549.667 603.8C549.667 638.193 540.109 665.757 520.899 686.382L520.896 686.385C501.684 706.811 476.407 717 445.167 717C431.051 717 417.237 714.58 403.73 709.741L403.722 709.738L403.713 709.735C390.407 704.695 378.21 697.538 367.126 688.267L367.119 688.261C356.19 678.952 347.308 666.725 340.457 651.613L340.452 651.603C333.79 636.461 330.467 619.622 330.467 601.1C330.467 582.385 333.687 565.449 340.147 550.31C346.596 534.994 355.178 522.661 365.912 513.345C376.8 503.869 388.901 496.607 402.213 491.565C415.529 486.521 429.449 484 443.967 484C480.406 484 508.905 495.89 529.327 519.75L529.935 520.459L496.111 553.656L495.414 552.858C483.233 538.908 466.525 531.9 445.167 531.9C428.232 531.9 413.477 537.896 400.857 549.924L400.851 549.93C388.307 561.69 381.967 578.692 381.967 601.1C381.967 622.903 388.205 639.612 400.557 651.376C412.969 663.197 427.821 669.1 445.167 669.1C459.919 669.1 471.475 665.685 479.946 658.966C488.164 652.449 493.593 642.732 496.161 629.7H439.067V585.7H548.678ZM497.367 628.7C497.307 629.035 497.244 629.369 497.18 629.7C491.943 656.633 474.605 670.1 445.167 670.1C427.567 670.1 412.467 664.1 399.867 652.1C387.267 640.1 380.967 623.1 380.967 601.1C380.967 578.5 387.367 561.2 400.167 549.2C412.967 537 427.967 530.9 445.167 530.9C466.384 530.9 483.163 537.75 495.503 551.451C495.726 551.698 495.947 551.948 496.167 552.2L528.567 520.4C508.367 496.8 480.167 485 443.967 485C429.567 485 415.767 487.5 402.567 492.5C389.367 497.5 377.367 504.7 366.567 514.1C355.967 523.3 347.467 535.5 341.067 550.7C334.667 565.7 331.467 582.5 331.467 601.1C331.467 619.5 334.767 636.2 341.367 651.2C348.167 666.2 356.967 678.3 367.767 687.5C378.767 696.7 390.867 703.8 404.067 708.8C417.467 713.6 431.167 716 445.167 716C476.167 716 501.167 705.9 520.167 685.7C539.167 665.3 548.667 638 548.667 603.8C548.667 598.8 548.367 593.1 547.767 586.7H440.067V628.7H497.367ZM330.924 186.1C313.324 186.1 298.124 180.1 285.324 168.1C272.524 156.1 266.124 139.1 266.124 117.1C266.124 94.1 272.424 76.7 285.024 64.9C297.824 52.9 313.124 46.9 330.924 46.9C348.724 46.9 364.224 52.9 377.424 64.9C390.824 76.9 397.524 94.3 397.524 117.1C397.524 139.1 390.824 156.1 377.424 168.1C364.024 180.1 348.524 186.1 330.924 186.1ZM779.839 276.6C757.438 257.4 725.339 247.8 683.538 247.8H623.538V469.5H683.538C723.538 469.5 755.138 459.6 778.339 439.8C801.738 419.8 813.438 391.9 813.438 356.1C813.438 322.1 802.238 295.6 779.839 276.6ZM16.8002 711.5H64.5002V489.8H16.8002V711.5Z" fill="white" fill-opacity="0.04" style="mix-blend-mode:darken"/>
</svg>
