<svg width="870" height="718" viewBox="0 0 870 718" fill="none" xmlns="http://www.w3.org/2000/svg">
<path fill-rule="evenodd" clip-rule="evenodd" d="M36.7997 32.8863L36.803 32.8831C58.8015 11.4901 86.0568 0.800014 118.5 0.800014C154.342 0.800014 182.733 12.5918 203.551 36.2392L204.151 36.921L171.577 71.6874L170.85 70.8606C157.846 56.0839 141.223 48.7 120.9 48.7C101.73 48.7 86.0922 54.7188 73.9015 66.7128C61.7383 78.6798 55.6002 95.3962 55.6002 117C55.6002 138.205 61.5401 154.937 73.3243 167.31C85.1193 179.695 100.249 185.9 118.8 185.9C139.071 185.9 156.809 177.257 172.048 159.842L172.741 159.049L205.634 191.002L205.095 191.707C194.596 205.437 181.566 215.841 166.014 222.91C150.482 229.97 134.04 233.5 116.7 233.5C84.4518 233.5 57.5902 222.706 36.1898 201.104C14.7787 179.491 4.10019 151.425 4.10019 117C4.10019 82.3716 14.9813 54.3007 36.7997 32.8863ZM170.932 69.4506C157.832 54.9502 141.154 47.7 120.9 47.7C101.5 47.7 85.6002 53.8 73.2002 66C60.8002 78.2 54.6002 95.2 54.6002 117C54.6002 138.4 60.6002 155.4 72.6002 168C84.6002 180.6 100 186.9 118.8 186.9C139.105 186.9 156.884 178.35 172.137 161.25C172.359 161.002 172.58 160.752 172.8 160.5L204.3 191.1C193.9 204.7 181 215 165.6 222C150.2 229 133.9 232.5 116.7 232.5C84.7002 232.5 58.1002 221.8 36.9002 200.4C15.7002 179 5.10019 151.2 5.10019 117C5.10019 82.6 15.9002 54.8 37.5002 33.6C59.3002 12.4 86.3002 1.80001 118.5 1.80001C154.1 1.80001 182.2 13.5 202.8 36.9L171.6 70.2C171.379 69.9481 171.156 69.6983 170.932 69.4506ZM289.474 226.237L289.469 226.235C276.165 221.196 263.871 214.04 252.589 204.773L252.582 204.767C241.451 195.457 232.466 183.229 225.613 168.113L225.608 168.103C218.946 152.961 215.624 136.122 215.624 117.6C215.624 98.6814 218.945 81.5433 225.606 66.2017L225.611 66.1916C232.463 50.8753 241.448 38.5449 252.582 29.2329L252.589 29.2272C263.873 19.9586 276.17 12.9014 289.478 8.06152C302.986 3.02172 316.803 0.5 330.924 0.5C345.043 0.5 358.86 3.02152 372.367 8.0608C385.874 12.8999 398.272 19.9564 409.557 29.2258C421.091 38.5358 430.279 50.866 437.133 66.1849C444.2 81.5306 447.724 98.6748 447.724 117.6C447.724 136.126 444.3 152.969 437.434 168.113C430.58 183.233 421.492 195.463 410.158 204.773C398.872 214.044 386.375 221.199 372.67 226.238C359.16 231.279 345.243 233.8 330.924 233.8C316.802 233.8 302.983 231.278 289.474 226.237ZM408.924 30C397.724 20.8 385.424 13.8 372.024 9.00001C358.624 4 344.924 1.5 330.924 1.5C316.924 1.5 303.224 4 289.824 9.00001C276.624 13.8 264.424 20.8 253.224 30C242.224 39.2 233.324 51.4 226.524 66.6C219.924 81.8 216.624 98.8 216.624 117.6C216.624 136 219.924 152.7 226.524 167.7C233.324 182.7 242.224 194.8 253.224 204C264.424 213.2 276.624 220.3 289.824 225.3C303.224 230.3 316.924 232.8 330.924 232.8C345.124 232.8 358.924 230.3 372.324 225.3C385.924 220.3 398.324 213.2 409.524 204C420.724 194.8 429.724 182.7 436.524 167.7C443.324 152.7 446.724 136 446.724 117.6C446.724 98.8 443.224 81.8 436.224 66.6C429.424 51.4 420.324 39.2 408.924 30ZM376.757 66.145L376.751 66.14C363.735 54.3069 348.474 48.4 330.924 48.4C313.374 48.4 298.319 54.3061 285.708 66.1295C273.37 77.6836 267.124 94.7806 267.124 117.6C267.124 139.398 273.458 156.105 286.008 167.87C298.622 179.696 313.577 185.6 330.924 185.6C348.272 185.6 363.535 179.695 376.757 167.855C389.898 156.086 396.524 139.384 396.524 117.6C396.524 95.0029 389.891 77.907 376.757 66.145ZM535.715 229H486.015V5.30001H561.715C588.473 5.30001 609.918 11.8394 625.944 25.0222C642.207 38.0348 650.315 56.1369 650.315 79.2C650.315 104.246 641.918 123.27 625.02 136.097C608.186 148.874 584.844 155.2 555.115 155.2H535.715V229ZM534.715 154.2H555.115C584.715 154.2 607.815 147.9 624.415 135.3C641.015 122.7 649.315 104 649.315 79.2C649.315 56.4 641.315 38.6 625.315 25.8C609.515 12.8 588.315 6.30001 561.715 6.30001H487.015V228H534.715V154.2ZM589.329 57.2104L589.315 57.2C583.17 52.5916 573.531 50.2 560.215 50.2H535.715V111.2H555.115C570.447 111.2 581.497 108.703 588.445 103.879C595.283 99.1298 598.815 91.004 598.815 79.2C598.815 68.8124 595.593 61.5762 589.343 57.2204L589.329 57.2104ZM534.715 112.2V49.2H560.215C573.615 49.2 583.515 51.6 589.915 56.4C596.515 61 599.815 68.6 599.815 79.2C599.815 91.2 596.215 99.7 589.015 104.7C581.815 109.7 570.515 112.2 555.115 112.2H534.715ZM811.727 5.30001H869.881L786.925 145.174V229H737.525V146.972L654.278 5.30001H713.923L762.825 96.2877L811.727 5.30001ZM762.825 98.4L713.325 6.30001H656.025L738.525 146.7V228H785.925V144.9L868.125 6.30001H812.325L762.825 98.4ZM62.0002 471V292.2H0.200195V247.3H173.5V292.2H111.7V471H62.0002ZM110.7 291.2H172.5V248.3H1.2002V291.2H63.0002V470H110.7V291.2ZM382.235 471H323.063L257.102 370.739V471H207.402V247.3H289.702C316.635 247.3 337.782 253.228 353.017 265.211C368.508 277.239 376.202 294.959 376.202 318.2C376.202 336.28 371.426 350.86 361.778 361.835C352.396 372.508 338.501 379.663 320.21 383.383L382.235 471ZM318.502 382.7C318.862 382.631 319.221 382.561 319.578 382.49C356.661 375.089 375.202 353.659 375.202 318.2C375.202 295.2 367.602 277.8 352.402 266C337.402 254.2 316.502 248.3 289.702 248.3H208.402V470H256.102V367.4L323.602 470H380.302L318.502 382.7ZM314.058 342.561L314.068 342.554C321.322 337.973 325.002 330.629 325.002 320.3C325.002 310.552 321.704 303.381 315.209 298.606C308.658 293.788 298.709 291.3 285.202 291.3H257.102V349.6H278.902C295.25 349.6 306.907 347.199 314.058 342.561ZM256.102 350.6V290.3H285.202C312.402 290.3 326.002 300.3 326.002 320.3C326.002 330.9 322.202 338.6 314.602 343.4C307.202 348.2 295.302 350.6 278.902 350.6H256.102ZM545.714 471L529.814 432.9H454.051L438.451 471H385.225L489.037 243.4H496.624L600.133 471H545.714ZM453.38 431.9H530.48L546.38 470H598.58L495.98 244.4H489.68L386.78 470H437.78L453.38 431.9ZM491.78 332L466.88 392.9H516.98L491.78 332ZM491.785 334.629L468.369 391.9H515.484L491.785 334.629ZM778.988 441.061C755.557 461.058 723.701 471 683.538 471H622.538V247.3H683.538C725.476 247.3 757.841 256.93 780.485 276.337C803.146 295.558 814.438 322.358 814.438 356.6C814.438 392.64 802.647 420.839 778.988 441.061ZM743.525 307.89L743.518 307.884C730.369 297.483 710.631 292.2 684.138 292.2H671.638V426.1H684.138C708.981 426.1 728.323 420.139 742.288 408.34C756.218 396.371 763.238 379.177 763.238 356.6C763.238 334.198 756.605 318.042 743.525 307.89ZM684.138 427.1C709.138 427.1 728.738 421.1 742.938 409.1C757.138 396.9 764.238 379.4 764.238 356.6C764.238 334 757.538 317.5 744.138 307.1C730.738 296.5 710.738 291.2 684.138 291.2H670.638V427.1H684.138ZM15.8002 713V489.3H65.5002V713H15.8002ZM244.11 489.3H294.11V716.6H286.089L165.11 592.952V713H115.41V485.4H123.731L244.11 608.744V489.3ZM245.11 611.2L123.31 486.4H116.41V712H164.11V590.5L286.51 715.6H293.11V490.3H245.11V611.2ZM548.678 586.2L548.763 587.107C549.365 593.529 549.667 599.262 549.667 604.3C549.667 638.693 540.109 666.257 520.899 686.882L520.896 686.885C501.684 707.311 476.407 717.5 445.167 717.5C431.051 717.5 417.237 715.08 403.73 710.241L403.722 710.238L403.713 710.235C390.407 705.195 378.21 698.038 367.126 688.767L367.119 688.761C356.19 679.452 347.308 667.225 340.457 652.113L340.452 652.103C333.79 636.961 330.467 620.122 330.467 601.6C330.467 582.885 333.687 565.949 340.147 550.81C346.596 535.494 355.178 523.161 365.912 513.845C376.8 504.369 388.901 497.107 402.213 492.065C415.529 487.021 429.449 484.5 443.967 484.5C480.406 484.5 508.905 496.39 529.327 520.25L529.935 520.959L496.111 554.156L495.414 553.358C483.233 539.408 466.525 532.4 445.167 532.4C428.232 532.4 413.477 538.396 400.857 550.424L400.851 550.43C388.307 562.19 381.967 579.192 381.967 601.6C381.967 623.403 388.205 640.112 400.557 651.876C412.969 663.697 427.821 669.6 445.167 669.6C459.919 669.6 471.475 666.185 479.946 659.466C488.164 652.949 493.593 643.232 496.161 630.2H439.067V586.2H548.678ZM497.367 629.2C497.307 629.535 497.244 629.869 497.18 630.2C491.943 657.133 474.605 670.6 445.167 670.6C427.567 670.6 412.467 664.6 399.867 652.6C387.267 640.6 380.967 623.6 380.967 601.6C380.967 579 387.367 561.7 400.167 549.7C412.967 537.5 427.967 531.4 445.167 531.4C466.384 531.4 483.163 538.25 495.503 551.951C495.726 552.198 495.947 552.448 496.167 552.7L528.567 520.9C508.367 497.3 480.167 485.5 443.967 485.5C429.567 485.5 415.767 488 402.567 493C389.367 498 377.367 505.2 366.567 514.6C355.967 523.8 347.467 536 341.067 551.2C334.667 566.2 331.467 583 331.467 601.6C331.467 620 334.767 636.7 341.367 651.7C348.167 666.7 356.967 678.8 367.767 688C378.767 697.2 390.867 704.3 404.067 709.3C417.467 714.1 431.167 716.5 445.167 716.5C476.167 716.5 501.167 706.4 520.167 686.2C539.167 665.8 548.667 638.5 548.667 604.3C548.667 599.3 548.367 593.6 547.767 587.2H440.067V629.2H497.367ZM330.924 186.6C313.324 186.6 298.124 180.6 285.324 168.6C272.524 156.6 266.124 139.6 266.124 117.6C266.124 94.6 272.424 77.2 285.024 65.4C297.824 53.4 313.124 47.4 330.924 47.4C348.724 47.4 364.224 53.4 377.424 65.4C390.824 77.4 397.524 94.8 397.524 117.6C397.524 139.6 390.824 156.6 377.424 168.6C364.024 180.6 348.524 186.6 330.924 186.6ZM779.839 277.1C757.438 257.9 725.339 248.3 683.538 248.3H623.538V470H683.538C723.538 470 755.138 460.1 778.339 440.3C801.738 420.3 813.438 392.4 813.438 356.6C813.438 322.6 802.238 296.1 779.839 277.1ZM16.8002 712H64.5002V490.3H16.8002V712Z" fill="#052DFF" fill-opacity="0.11" style="mix-blend-mode:darken"/>
</svg>
