<svg width="71" height="68" viewBox="0 0 71 68" fill="none" xmlns="http://www.w3.org/2000/svg">
<path d="M65.356 0H5.65107C2.52555 0 0 2.52318 0 5.64395V62.1143C0 65.2256 2.52555 67.7559 5.65107 67.7559H65.356C68.4673 67.7559 71 65.228 71 62.1143V5.64395C70.9976 2.52318 68.465 0 65.356 0ZM47.7246 20.1167C46.2567 19.2582 45.0924 18.58 43.6292 18.58C42.1969 18.58 40.9732 18.9381 40.3472 19.5404C39.7211 20.138 39.4104 21.2953 39.4104 23.005V25.5353H47.0677L45.4101 32.5737H39.4104V55.9605H29.792V32.5737H25.3029V25.5353H29.7968V22.8485C29.7968 20.0194 30.1359 18.3263 30.8046 16.9295C31.471 15.5375 32.7634 13.9866 34.5609 13.1092C36.3561 12.2341 39.0121 11.793 41.7605 11.793C44.5778 11.793 46.7784 12.7321 49.4771 13.4886L47.7246 20.1167Z" fill="#1777F2"/>
</svg>
