<svg width="68" height="68" viewBox="0 0 68 68" fill="none" xmlns="http://www.w3.org/2000/svg">
<path d="M61.8489 0H6.15115C2.754 0 0 2.754 0 6.15115V61.8487C0 65.246 2.754 68 6.15115 68H61.8487C65.246 68 68 65.246 68 61.8487V6.15115C68 2.754 65.246 0 61.8489 0ZM21.0421 58.7157C21.0421 59.7044 20.2407 60.5058 19.252 60.5058H11.6321C10.6434 60.5058 9.84202 59.7044 9.84202 58.7157V26.7733C9.84202 25.7846 10.6434 24.9832 11.6321 24.9832H19.252C20.2407 24.9832 21.0421 25.7846 21.0421 26.7733V58.7157ZM15.4421 21.9722C11.4441 21.9722 8.20308 18.7312 8.20308 14.7332C8.20308 10.7353 11.4441 7.49424 15.4421 7.49424C19.44 7.49424 22.681 10.7353 22.681 14.7332C22.681 18.7312 19.4402 21.9722 15.4421 21.9722ZM60.8636 58.8599C60.8636 59.7688 60.1266 60.5058 59.2177 60.5058H51.0409C50.132 60.5058 49.3951 59.7688 49.3951 58.8599V43.8771C49.3951 41.642 50.0507 34.0828 43.554 34.0828C38.5147 34.0828 37.4926 39.2568 37.2873 41.5788V58.8599C37.2873 59.7688 36.5505 60.5058 35.6414 60.5058H27.7331C26.8242 60.5058 26.0873 59.7688 26.0873 58.8599V26.6291C26.0873 25.7202 26.8242 24.9832 27.7331 24.9832H35.6414C36.5504 24.9832 37.2873 25.7202 37.2873 26.6291V29.4159C39.1559 26.6117 41.9329 24.4472 47.8455 24.4472C60.9385 24.4472 60.8636 36.6794 60.8636 43.4004V58.8599Z" fill="#0077B7"/>
</svg>
