<svg width="71" height="67" viewBox="0 0 71 67" fill="none" xmlns="http://www.w3.org/2000/svg">
<path fill-rule="evenodd" clip-rule="evenodd" d="M0 6V60.5C0 63.8137 2.68629 66.5 6 66.5H65C68.3137 66.5 71 63.8137 71 60.5V6C71 2.68629 68.3137 0 65 0H6C2.68629 0 0 2.68629 0 6ZM51.9777 19.0427L50.6997 17.9119C49.3085 16.6791 47.5178 16 45.6571 16C43.4794 16 41.4043 16.932 39.9635 18.5573L36.3056 22.685C35.8346 23.2155 35.5986 23.8981 35.6415 24.6063C35.6844 25.3136 35.9996 25.9625 36.5302 26.4329L36.8726 26.7369C37.3586 27.1685 37.9849 27.4061 38.635 27.4061L38.7935 27.4015C39.5008 27.359 40.1501 27.0438 40.6221 26.5124L44.2808 22.3842C44.9245 21.6577 46.1456 21.5847 46.8734 22.2279L48.151 23.3612C48.5173 23.6855 48.7351 24.1344 48.7648 24.6254C48.7946 25.116 48.6319 25.5872 48.3067 25.9531L40.3051 34.9793C39.7664 35.5878 38.81 35.7635 38.0881 35.3914C36.9633 34.8113 35.4971 35.0882 34.6629 36.0285L34.6001 36.0999C34.0158 36.7571 33.7724 37.6306 33.9309 38.4998C34.0909 39.3639 34.6289 40.1048 35.4087 40.5129C36.4878 41.077 37.7051 41.3871 38.9287 41.3871C41.1054 41.3871 43.1824 40.4428 44.6239 38.8171L52.6246 29.786C55.4053 26.6483 55.1166 21.8263 51.9777 19.0427ZM34.6595 42.7923C33.6049 41.8585 31.849 41.9634 30.9116 43.019L27.2546 47.146C26.611 47.8722 25.3906 47.9474 24.6637 47.3036L23.3847 46.169C23.0184 45.8444 22.8006 45.3955 22.7709 44.9049C22.741 44.4151 22.9038 43.9441 23.2288 43.5781L31.2295 34.5526C31.7601 33.9534 32.6992 33.7724 33.4129 34.1231C34.5796 34.6978 36.064 34.4177 36.966 33.3966C37.5395 32.7505 37.7804 31.8923 37.6285 31.0461C37.4776 30.195 36.9536 29.4729 36.192 29.0658C35.0962 28.479 33.8561 28.1689 32.6067 28.1689C30.4291 28.1689 28.3539 29.1012 26.9131 30.7267L18.9114 39.7507C16.1289 42.8885 16.4186 47.7044 19.5565 50.4868L20.8346 51.6042C22.2251 52.8371 24.0158 53.5009 25.8765 53.5009H25.8774C28.055 53.5009 30.131 52.5836 31.5726 50.958L35.229 46.8393C35.7009 46.308 35.937 45.6287 35.8939 44.9244C35.8528 44.2247 35.5285 43.5591 35.0037 43.0952L34.6595 42.7923Z" fill="#E97777"/>
</svg>
