<svg width="71" height="67" viewBox="0 0 71 67" fill="none" xmlns="http://www.w3.org/2000/svg">
<path fill-rule="evenodd" clip-rule="evenodd" d="M0 6V61C0 64.3137 2.68629 67 6 67H65C68.3137 67 71 64.3137 71 61V6C71 2.68629 68.3137 0 65 0H6C2.68629 0 0 2.68629 0 6ZM54.8748 20.9295C55.6009 20.7196 56.3116 20.461 57.0028 20.1547C57.2918 20.0267 57.6303 20.1049 57.8334 20.3466C58.0368 20.5881 58.0558 20.9349 57.8802 21.1973C56.7245 22.9251 55.3041 24.4283 53.6544 25.6704C53.6623 25.9311 53.6663 26.1927 53.6663 26.4517C53.6663 32.6514 51.2682 38.926 47.0868 43.6664C43.7336 47.4682 37.7177 52 28.101 52C23.2092 52 18.446 50.6049 14.3266 47.9653C14.0483 47.787 13.9302 47.4402 14.0416 47.1292C14.153 46.8183 14.4659 46.6252 14.793 46.6641C15.4516 46.742 16.1245 46.7813 16.7936 46.7813C20.0002 46.7813 23.0548 45.9055 25.7258 44.2337C22.5053 43.5097 19.8414 41.1352 18.8067 37.9069C18.7302 37.6686 18.7851 37.4076 18.9511 37.2203C19.1169 37.033 19.3697 36.9469 19.6155 36.9938C19.854 37.0394 20.094 37.0741 20.3342 37.0981C17.5388 35.4322 15.7103 32.3756 15.7103 28.9807C15.7103 28.9383 15.7103 28.8964 15.7113 28.8546C15.717 28.6062 15.8523 28.379 16.068 28.2555C16.2836 28.1319 16.5485 28.1301 16.7655 28.2508C17.1697 28.475 17.5933 28.6638 18.0297 28.8149C16.5943 27.1287 15.7817 24.9707 15.7817 22.6963C15.7817 21.0264 16.2242 19.3852 17.061 17.9502C17.1782 17.7492 17.3867 17.6184 17.6188 17.6002C17.8507 17.5817 18.0773 17.6788 18.2243 17.8591C22.3504 22.917 28.3589 26.0915 34.8219 26.6586C34.7705 26.2566 34.7445 25.849 34.7445 25.4391C34.7445 20.2344 38.9819 16 44.1902 16C46.6576 16 49.0443 16.9766 50.8016 18.6926C52.5462 18.3085 54.2099 17.6516 55.7521 16.7376C56.0057 16.5874 56.3258 16.6093 56.5561 16.7929C56.7868 16.9763 56.8797 17.2832 56.79 17.5637C56.3899 18.8147 55.7345 19.9579 54.8748 20.9295Z" fill="#1DA1F2"/>
</svg>
