<?xml version="1.0" standalone="no"?>
<!DOCTYPE svg PUBLIC "-//W3C//DTD SVG 1.1//EN" "http://www.w3.org/Graphics/SVG/1.1/DTD/svg11.dtd" >
<svg xmlns="http://www.w3.org/2000/svg" xmlns:xlink="http://www.w3.org/1999/xlink" version="1.1">
<metadata>
Created by FontForge 20200427 at Fri Jan 19 18:00:36 2018
 By www
Copyright (c) 2018 Monotype Imaging Inc. All rights reserved
</metadata>
<defs>
<font id="MaderaW01-Bold" horiz-adv-x="300" >
  <font-face 
    font-family="Madera W01"
    font-weight="700"
    font-stretch="normal"
    units-per-em="1000"
    panose-1="2 11 8 4 2 2 4 2 2 4"
    ascent="800"
    descent="-200"
    x-height="531"
    cap-height="739"
    bbox="-74 -221 1448 1038"
    underline-thickness="50"
    underline-position="-125"
    unicode-range="U+000D-2122"
  />
<missing-glyph horiz-adv-x="794" 
d="M86 881h622v-1015h-622v1015zM301 226h136v13q0 29 21 52t51.5 41t60.5 39.5t51 58t21 84.5q0 95 -62 156.5t-184 61.5q-157 0 -251 -109l94 -104q55 72 144 72q51 0 76 -24t25 -61q0 -28 -19 -49.5t-46 -38t-53.5 -35.5t-45.5 -53t-19 -80v-24zM377 -1q38 0 62 24t24 61
t-24 61t-62 24t-62.5 -24t-24.5 -61t24.5 -61t62.5 -24z" />
    <glyph glyph-name=".notdef" horiz-adv-x="794" 
d="M86 881h622v-1015h-622v1015zM301 226h136v13q0 29 21 52t51.5 41t60.5 39.5t51 58t21 84.5q0 95 -62 156.5t-184 61.5q-157 0 -251 -109l94 -104q55 72 144 72q51 0 76 -24t25 -61q0 -28 -19 -49.5t-46 -38t-53.5 -35.5t-45.5 -53t-19 -80v-24zM377 -1q38 0 62 24t24 61
t-24 61t-62 24t-62.5 -24t-24.5 -61t24.5 -61t62.5 -24z" />
    <glyph glyph-name=".null" horiz-adv-x="0" 
 />
    <glyph glyph-name="nonmarkingreturn" horiz-adv-x="333" 
 />
    <glyph glyph-name="NULL" horiz-adv-x="0" 
 />
    <glyph glyph-name="NULL" horiz-adv-x="0" 
 />
    <glyph glyph-name="CR" unicode="&#xd;" horiz-adv-x="254" 
 />
    <glyph glyph-name="space" unicode=" " horiz-adv-x="254" 
 />
    <glyph glyph-name="exclam" unicode="!" 
d="M208 226h-116l-30 513h176zM151 -11q-39 0 -64 24t-25 61t25 61t64 24q37 0 61.5 -24t24.5 -61t-24.5 -61t-61.5 -24z" />
    <glyph glyph-name="quotedbl" unicode="&#x22;" horiz-adv-x="499" 
d="M130 418l-78 321h181l-77 -321h-26zM343 418l-78 321h181l-77 -321h-26z" />
    <glyph glyph-name="numbersign" unicode="#" horiz-adv-x="827" 
d="M775 453h-119l-42 -166h119l-31 -125h-119l-40 -162h-144l41 162h-156l-40 -162h-144l41 162h-119l30 125h120l41 166h-119l31 126h120l40 160h142l-40 -160h157l40 160h143l-40 -160h118zM471 287l41 166h-156l-41 -166h156z" />
    <glyph glyph-name="dollar" unicode="$" horiz-adv-x="630" 
d="M588 223q0 -89 -52 -149t-142 -80v-107h-141v101q-126 15 -229 111l93 117q90 -86 195 -86q55 0 85 21.5t30 58.5q0 27 -20.5 44.5t-53 27t-72 18.5t-79 23.5t-72 36.5t-53 63.5t-20.5 99.5q0 84 52.5 143.5t143.5 79.5v106h141v-102q112 -16 190 -91l-89 -115
q-71 65 -160 65q-57 0 -87 -22t-30 -59q0 -29 27.5 -48t68.5 -27t89 -23.5t89 -35t68.5 -63.5t27.5 -108z" />
    <glyph glyph-name="percent" unicode="%" horiz-adv-x="1056" 
d="M241 367q-84 0 -142.5 55t-58.5 138q0 85 58.5 140t142.5 55q85 0 143.5 -54.5t58.5 -140.5q0 -84 -58.5 -138.5t-143.5 -54.5zM216 0l476 739h148l-476 -739h-148zM241 481q32 0 54 22.5t22 56.5t-22 57.5t-54 23.5t-53 -23.5t-21 -57.5t21 -56.5t53 -22.5zM813 -15
q-85 0 -142.5 54t-57.5 140q0 84 58 139t142 55q85 0 143.5 -55t58.5 -139q0 -86 -58 -140t-144 -54zM813 99q32 0 53.5 23t21.5 57t-21.5 56.5t-53.5 22.5q-30 0 -52.5 -23t-22.5 -56t22.5 -56.5t52.5 -23.5z" />
    <glyph glyph-name="ampersand" unicode="&#x26;" horiz-adv-x="753" 
d="M730 100l-94 -102l-80 71q-95 -81 -240 -81q-123 0 -196 53t-73 143q0 70 40 116t125 78q-89 92 -89 181q0 74 59.5 134t173.5 60q100 0 160 -56.5t60 -139.5q0 -127 -154 -184l115 -102q14 47 14 99h147q-12 -109 -56 -192zM353 622q-38 0 -59.5 -20.5t-21.5 -51.5
q0 -27 15 -47.5t63 -64.5q82 51 82 107q0 35 -19.5 56t-59.5 21zM326 116q78 0 133 40l-173 154q-78 -49 -78 -115q0 -37 30 -58t88 -21z" />
    <glyph glyph-name="quotesingle" unicode="'" horiz-adv-x="286" 
d="M130 418l-78 321h181l-77 -321h-26z" />
    <glyph glyph-name="parenleft" unicode="(" horiz-adv-x="408" 
d="M344 -171q-297 179 -297 510q0 332 297 506l63 -83q-97 -80 -148 -177.5t-51 -245.5q0 -149 50.5 -247t148.5 -181z" />
    <glyph glyph-name="parenright" unicode=")" horiz-adv-x="408" 
d="M63 -171l-62 82q97 82 147.5 180.5t50.5 247.5q0 148 -50.5 246t-147.5 177l62 83q297 -173 297 -506q0 -332 -297 -510z" />
    <glyph glyph-name="asterisk" unicode="*" horiz-adv-x="426" 
d="M392 564l-110 -16l79 -77l-99 -72l-49 100l-50 -100l-99 72l79 77l-110 16l39 117l98 -52l-19 110h124l-19 -110l98 52z" />
    <glyph glyph-name="plus" unicode="+" horiz-adv-x="600" 
d="M570 379v-141h-200v-200h-140v200h-200v141h200v199h140v-199h200z" />
    <glyph glyph-name="comma" unicode="," horiz-adv-x="292" 
d="M80 -175l-35 68q81 34 97 97l1 4q-7 -1 -15 -1q-35 0 -57.5 23t-22.5 59q0 41 27.5 67t68.5 26q44 0 71 -31t27 -83q0 -71 -42.5 -132t-119.5 -97z" />
    <glyph glyph-name="hyphen" unicode="-" horiz-adv-x="357" 
d="M51 368h255v-129h-255v129z" />
    <glyph glyph-name="period" unicode="." horiz-adv-x="292" 
d="M146 -15q-41 0 -68 26t-27 66t27 66t68 26t68.5 -26t27.5 -66t-27.5 -66t-68.5 -26z" />
    <glyph glyph-name="slash" unicode="/" horiz-adv-x="490" 
d="M105 -206h-139l384 1057h140z" />
    <glyph glyph-name="zero" unicode="0" horiz-adv-x="737" 
d="M369 -13q-143 0 -227.5 105t-84.5 277q0 171 84.5 277t227.5 106q141 0 226 -106t85 -277t-84.5 -276.5t-226.5 -105.5zM369 130q70 0 110 59.5t40 179.5q0 121 -40 180t-110 59q-71 0 -111.5 -59t-40.5 -180q0 -120 40.5 -179.5t111.5 -59.5z" />
    <glyph glyph-name="one" unicode="1" horiz-adv-x="490" 
d="M374 753h21v-753h-159v523l-148 -77l-54 129z" />
    <glyph glyph-name="two" unicode="2" horiz-adv-x="636" 
d="M333 143h256v-143h-541v21l243 293q65 78 85.5 115.5t20.5 81.5q0 42 -28 70t-81 28q-90 0 -147 -92l-114 82q42 75 111.5 115t157.5 40q132 0 197.5 -68.5t65.5 -165.5q0 -74 -36.5 -137.5t-134.5 -176.5z" />
    <glyph glyph-name="three" unicode="3" horiz-adv-x="651" 
d="M597 739v-24l-195 -252q85 -14 135.5 -73t50.5 -151q0 -100 -74.5 -177t-210.5 -77q-167 0 -269 129l98 103q68 -89 169 -89q59 0 93 31t34 83q0 73 -59.5 98t-144.5 2l-26 66l140 188h-275v143h534z" />
    <glyph glyph-name="four" unicode="4" horiz-adv-x="717" 
d="M683 273v-137h-116v-136h-156v136h-415v22l415 581h156v-466h116zM243 273h168v243z" />
    <glyph glyph-name="five" unicode="5" horiz-adv-x="610" 
d="M316 487q119 0 183 -69.5t64 -174.5q0 -104 -74 -181t-209 -77q-156 0 -252 109l88 110q69 -77 162 -77q57 0 90.5 30t33.5 81q0 53 -35 85.5t-109 32.5q-95 0 -174 -44l-14 9v418h448v-143h-302v-125q48 16 100 16z" />
    <glyph glyph-name="six" unicode="6" horiz-adv-x="651" 
d="M366 500q105 0 175 -69t70 -184t-78 -188.5t-207 -73.5q-131 0 -208.5 74t-77.5 191q0 109 80 220l194 269h200l-194 -243q28 4 46 4zM326 127q56 0 89.5 33t33.5 87q0 55 -33.5 88t-89.5 33q-57 0 -91 -33.5t-34 -88.5q0 -54 34 -86.5t91 -32.5z" />
    <glyph glyph-name="seven" unicode="7" horiz-adv-x="565" 
d="M34 739h535v-21l-274 -718h-176l244 596h-329v143z" />
    <glyph glyph-name="eight" unicode="8" horiz-adv-x="683" 
d="M511 385q52 -23 83.5 -67t31.5 -101q0 -108 -78 -169t-205 -61t-206.5 61t-79.5 169q0 58 32 101.5t84 66.5q-92 52 -92 162q0 91 71.5 148t190.5 57t190 -57t71 -148q0 -110 -93 -162zM343 623q-49 0 -77.5 -27t-28.5 -68q0 -45 27.5 -68.5t78.5 -23.5q49 0 77 24t28 68
q0 41 -28 68t-77 27zM343 117q58 0 91.5 27t33.5 78q0 44 -34 72.5t-91 28.5q-59 0 -92.5 -28t-33.5 -73q0 -51 33.5 -78t92.5 -27z" />
    <glyph glyph-name="nine" unicode="9" horiz-adv-x="651" 
d="M324 754q131 0 209 -74t78 -191q0 -107 -80 -220l-194 -269h-200l194 244q-23 -5 -46 -5q-105 0 -175 69t-70 184t78 188.5t206 73.5zM324 371q58 0 92 33.5t34 88.5q0 54 -34 86.5t-92 32.5q-55 0 -89 -33t-34 -87q0 -55 33.5 -88t89.5 -33z" />
    <glyph glyph-name="colon" unicode=":" horiz-adv-x="292" 
d="M146 362q-41 0 -68 26t-27 66t27 66t68 26t68.5 -26t27.5 -66t-27.5 -66t-68.5 -26zM146 -15q-41 0 -68 26t-27 66t27 66t68 26t68.5 -26t27.5 -66t-27.5 -66t-68.5 -26z" />
    <glyph glyph-name="semicolon" unicode=";" horiz-adv-x="292" 
d="M143 362q-41 0 -68 26t-27 66t27 66t68 26q42 0 69 -26t27 -66t-27 -66t-69 -26zM80 -175l-35 68q81 34 97 97l1 4q-7 -1 -15 -1q-35 0 -57.5 23t-22.5 59q0 41 27.5 67t68.5 26q44 0 71 -31t27 -83q0 -71 -42.5 -132t-119.5 -97z" />
    <glyph glyph-name="less" unicode="&#x3c;" horiz-adv-x="562" 
d="M522 564v-147l-215 -109l215 -108v-148l-492 247v18z" />
    <glyph glyph-name="equal" unicode="=" horiz-adv-x="600" 
d="M40 362v140h520v-140h-520zM40 115v140h520v-140h-520z" />
    <glyph glyph-name="greater" unicode="&#x3e;" horiz-adv-x="562" 
d="M40 564l492 -247v-18l-492 -247v148l215 108l-215 109v147z" />
    <glyph glyph-name="question" unicode="?" horiz-adv-x="559" 
d="M178 226v24q0 50 18.5 86.5t45.5 57.5t54 39t45.5 41.5t18.5 53.5q0 37 -24.5 61t-75.5 24q-89 0 -144 -72l-95 104q96 109 251 109q122 0 184 -61t62 -157q0 -44 -15 -79.5t-38 -56t-49.5 -41t-49.5 -35.5t-38 -37t-15 -48v-13h-135zM253 -11q-38 0 -62.5 24t-24.5 61
t24.5 61t62.5 24t62.5 -24t24.5 -61t-24.5 -61t-62.5 -24z" />
    <glyph glyph-name="at" unicode="@" horiz-adv-x="947" 
d="M478 363q32 0 79 -5v8q0 79 -86 79q-62 0 -125 -48l-55 86q91 66 193 66q93 0 143.5 -47.5t50.5 -135.5v-124q0 -34 10.5 -49t34.5 -15q90 0 90 162q0 156 -88 243.5t-242 87.5q-152 0 -252 -99.5t-100 -259.5q0 -163 97 -263t253 -100q132 0 220 71l47 -65
q-112 -88 -267 -88q-191 0 -312.5 124.5t-121.5 320.5q0 194 123 317.5t313 123.5q189 0 302.5 -112.5t113.5 -300.5q0 -110 -54.5 -184.5t-145.5 -74.5q-95 0 -128 64q-43 -64 -137 -64q-70 0 -113.5 38t-43.5 107q0 68 52.5 102.5t148.5 34.5zM461 177q42 0 69 23.5
t27 68.5v5q-39 6 -68 6q-90 0 -90 -55q0 -48 62 -48z" />
    <glyph glyph-name="A" unicode="A" horiz-adv-x="700" 
d="M529 0l-53 127h-257l-52 -127h-170l343 752h21l342 -752h-174zM431 257l-84 203l-83 -203h167z" />
    <glyph glyph-name="B" unicode="B" horiz-adv-x="682" 
d="M511 390q123 -42 123 -177q0 -104 -71 -158.5t-191 -54.5h-286v739h256q126 0 194 -50t68 -141q0 -114 -93 -158zM336 600h-94v-159h89q112 0 112 80q0 79 -107 79zM366 139q50 0 78.5 22t28.5 64q0 86 -112 86h-119v-172h124z" />
    <glyph glyph-name="C" unicode="C" horiz-adv-x="733" 
d="M419 -15q-160 0 -266 107t-106 278q0 172 108.5 278t269.5 106q178 0 281 -117l-104 -111q-66 75 -169 75q-97 0 -159 -61t-62 -170q0 -107 60 -170t154 -63q103 0 180 88l105 -102q-52 -68 -129 -103t-163 -35z" />
    <glyph glyph-name="D" unicode="D" horiz-adv-x="767" 
d="M286 739q209 0 321 -95.5t112 -265.5q0 -179 -116.5 -278.5t-316.5 -99.5h-200v739h200zM288 143q125 0 196 60.5t71 174.5q0 113 -67 165.5t-200 52.5h-45v-453h45z" />
    <glyph glyph-name="E" unicode="E" horiz-adv-x="621" 
d="M243 143h318v-143h-475v739h464v-143h-307v-143h292v-141h-292v-169z" />
    <glyph glyph-name="F" unicode="F" horiz-adv-x="571" 
d="M520 596h-275v-155h261v-141h-261v-300h-159v739h434v-143z" />
    <glyph glyph-name="G" unicode="G" horiz-adv-x="809" 
d="M768 416q3 -32 3 -57q0 -171 -95 -272.5t-250 -101.5q-70 0 -136.5 24.5t-121 70.5t-88 121t-33.5 167q0 93 32 168.5t85.5 122t119.5 71.5t138 25q181 0 282 -118l-108 -106q-62 71 -170 71q-86 0 -150 -60.5t-64 -173.5q0 -110 63 -170t151 -60q149 0 174 138h-191v140
h359z" />
    <glyph glyph-name="H" unicode="H" horiz-adv-x="772" 
d="M526 739h159v-739h-159v313h-281v-313h-159v739h159v-283h281v283z" />
    <glyph glyph-name="I" unicode="I" horiz-adv-x="332" 
d="M86 0v739h159v-739h-159z" />
    <glyph glyph-name="J" unicode="J" horiz-adv-x="564" 
d="M490 739v-486q0 -130 -72.5 -199t-181.5 -69q-77 0 -129 26t-94 77l102 107q50 -64 117 -64q45 0 72 29.5t27 89.5v347h-250l35 142h374z" />
    <glyph glyph-name="K" unicode="K" horiz-adv-x="681" 
d="M684 0h-201l-238 356v-356h-159v739h159v-324l242 324h195l-279 -349z" />
    <glyph glyph-name="L" unicode="L" horiz-adv-x="540" 
d="M245 143h260v-143h-419v739h159v-596z" />
    <glyph glyph-name="M" unicode="M" horiz-adv-x="872" 
d="M838 0h-158l-56 353l-177 -357h-21l-177 358l-57 -354h-158l137 752h21l244 -494l245 494h23z" />
    <glyph glyph-name="N" unicode="N" horiz-adv-x="761" 
d="M515 739h160v-751h-22l-408 417v-405h-159v752h23l406 -416v403z" />
    <glyph glyph-name="O" unicode="O" horiz-adv-x="862" 
d="M428 -16q-70 0 -136.5 25t-122 71t-89 121t-33.5 167q0 94 33.5 170t89 122t122 70.5t136.5 24.5t137 -24.5t123.5 -70.5t91 -122t34.5 -170q0 -92 -34 -167t-90 -121t-123.5 -71t-138.5 -25zM428 138q88 0 155 60t67 170q0 114 -66.5 174t-155.5 60t-152.5 -59.5
t-63.5 -174.5q0 -110 64 -170t152 -60z" />
    <glyph glyph-name="P" unicode="P" horiz-adv-x="669" 
d="M335 739q133 0 212.5 -64.5t79.5 -178.5q0 -124 -83 -187t-231 -63h-68v-246h-159v739h249zM313 386q77 0 113 25t36 85q0 53 -32.5 76.5t-99.5 23.5h-85v-210h68z" />
    <glyph glyph-name="Q" unicode="Q" horiz-adv-x="862" 
d="M814 368q0 -145 -84 -247l71 -82l-114 -98l-75 87q-88 -44 -184 -44q-70 0 -136.5 25t-122 71t-89 121t-33.5 167q0 94 33.5 170t89 122t122 70.5t136.5 24.5t137 -24.5t123.5 -70.5t91 -122t34.5 -170zM428 138q41 0 77 13l-76 88l113 99l79 -91q29 53 29 121
q0 114 -66.5 174t-155.5 60t-152.5 -59.5t-63.5 -174.5q0 -110 64 -170t152 -60z" />
    <glyph glyph-name="R" unicode="R" horiz-adv-x="702" 
d="M659 0h-189l-225 342v-342h-159v739h271q134 0 209.5 -59t75.5 -174q0 -179 -189 -215zM245 398h76q82 0 119.5 24t37.5 77q0 100 -136 100h-97v-201z" />
    <glyph glyph-name="S" unicode="S" horiz-adv-x="630" 
d="M310 -15q-162 0 -286 114l93 117q90 -86 195 -86q55 0 85 21.5t30 58.5q0 27 -20.5 44.5t-53 27t-72 18.5t-79 23.5t-72 36.5t-53 63.5t-20.5 99.5q0 102 76 166.5t202 64.5q150 0 249 -95l-89 -115q-71 65 -160 65q-57 0 -87 -22t-30 -59q0 -29 27.5 -48t68.5 -27
t89 -23.5t89 -35t68.5 -63.5t27.5 -108q0 -109 -76 -173.5t-202 -64.5z" />
    <glyph glyph-name="T" unicode="T" horiz-adv-x="639" 
d="M240 0v596h-206v143h571v-143h-206v-596h-159z" />
    <glyph glyph-name="U" unicode="U" horiz-adv-x="747" 
d="M374 -15q-137 0 -219 81.5t-82 232.5l2 440h158l-1 -425q-1 -176 141 -176q140 0 140 176l1 425h159l-1 -440q0 -151 -81 -232.5t-217 -81.5z" />
    <glyph glyph-name="V" unicode="V" horiz-adv-x="703" 
d="M533 739h173l-345 -751h-22l-342 751h179l179 -425z" />
    <glyph glyph-name="W" unicode="W" horiz-adv-x="967" 
d="M798 739h173l-289 -751h-22l-178 429l-179 -429h-21l-286 751h176l134 -410l168 410h22l169 -410z" />
    <glyph glyph-name="X" unicode="X" horiz-adv-x="721" 
d="M724 0h-193l-177 260l-172 -260h-185l265 375l-254 364h192l156 -237l153 237h185l-245 -349z" />
    <glyph glyph-name="Y" unicode="Y" horiz-adv-x="703" 
d="M519 739h186l-274 -462v-277h-158v271l-275 468h191l165 -307z" />
    <glyph glyph-name="Z" unicode="Z" horiz-adv-x="598" 
d="M564 739v-22l-284 -574h282v-143h-520v22l285 574h-293l35 143h495z" />
    <glyph glyph-name="bracketleft" unicode="[" horiz-adv-x="326" 
d="M86 -169v1014h229v-100h-83v-814h83v-100h-229z" />
    <glyph glyph-name="backslash" unicode="\" horiz-adv-x="490" 
d="M384 -206l-384 1057h140l384 -1057h-140z" />
    <glyph glyph-name="bracketright" unicode="]" horiz-adv-x="326" 
d="M11 -169v100h83v814h-83v100h229v-1014h-229z" />
    <glyph glyph-name="asciicircum" unicode="^" horiz-adv-x="603" 
d="M583 271h-165l-118 196l-116 -196h-164l276 468h10z" />
    <glyph glyph-name="underscore" unicode="_" horiz-adv-x="424" 
d="M20 -170v129h384v-129h-384z" />
    <glyph glyph-name="grave" unicode="`" horiz-adv-x="313" 
d="M147 583l-97 125l145 64l68 -189h-116z" />
    <glyph glyph-name="a" unicode="a" horiz-adv-x="575" 
d="M520 0h-135l-12 65q-53 -76 -157 -76q-83 0 -133.5 44.5t-50.5 124.5q0 77 63 123t172 46q51 0 99 -13v14q0 45 -28.5 70t-80.5 25q-74 0 -140 -46l-55 111q94 59 207 59q111 0 176 -58.5t65 -159.5v-181q0 -78 10 -148zM256 103q46 0 78 25t32 70v21q-38 10 -79 10
q-108 0 -108 -68q0 -26 19.5 -42t57.5 -16z" />
    <glyph glyph-name="b" unicode="b" horiz-adv-x="688" 
d="M397 547q116 0 183 -80t67 -200q0 -119 -71 -200.5t-181 -81.5q-113 0 -171 87l-6 -72h-145v739h153v-280q62 88 171 88zM357 119q58 0 96 39.5t38 107.5q0 70 -36 108.5t-92 38.5q-58 0 -97.5 -39t-39.5 -108q0 -70 36.5 -108.5t94.5 -38.5z" />
    <glyph glyph-name="c" unicode="c" horiz-adv-x="551" 
d="M317 -15q-123 0 -200 75t-77 205q0 127 81 204.5t205 77.5q115 0 187 -68l-78 -111q-43 43 -102 43t-97.5 -39t-38.5 -108q0 -70 36.5 -106t95.5 -36q62 0 111 45l76 -107q-80 -75 -199 -75z" />
    <glyph glyph-name="d" unicode="d" horiz-adv-x="687" 
d="M461 739h152v-739h-144l-6 75q-62 -90 -174 -90q-116 0 -182.5 79.5t-66.5 199.5q0 119 70.5 201t180.5 82q111 0 170 -85v277zM325 118q57 0 96.5 39t39.5 108q0 71 -36.5 109t-93.5 38q-58 0 -96 -39.5t-38 -107.5q0 -70 36 -108.5t92 -38.5z" />
    <glyph glyph-name="e" unicode="e" horiz-adv-x="614" 
d="M576 254q0 -20 -1 -30h-377q21 -106 137 -106q76 0 136 52l73 -104q-88 -81 -224 -81q-126 0 -203 75t-77 204q0 132 81 208t194 76q117 0 189 -75.5t72 -218.5zM313 425q-43 0 -73 -27.5t-41 -75.5h221q-7 48 -34 75.5t-73 27.5z" />
    <glyph glyph-name="f" unicode="f" horiz-adv-x="443" 
d="M266 556v-25h151v-129h-151v-402h-153v402h-103l32 129h71v17q0 98 53 152t149 54q84 0 143 -41l-61 -107q-32 24 -66 24q-30 0 -47.5 -19t-17.5 -55z" />
    <glyph glyph-name="g" unicode="g" horiz-adv-x="667" 
d="M448 531h145v-470q0 -144 -80 -213t-215 -69q-94 0 -179 36l44 130q63 -31 132 -31q145 0 145 138v38q-60 -80 -158 -80q-113 0 -177.5 76.5t-64.5 190.5t68.5 192t175.5 78q103 0 159 -80zM313 141q54 0 90.5 36t36.5 101q0 67 -32.5 101t-85.5 34q-55 0 -90 -36
t-35 -99t32.5 -100t83.5 -37z" />
    <glyph glyph-name="h" unicode="h" horiz-adv-x="639" 
d="M392 547q84 0 134.5 -58.5t50.5 -169.5v-319h-152v294q0 113 -94 113q-47 0 -76 -30.5t-29 -95.5v-281h-153v739h153v-273q59 81 166 81z" />
    <glyph glyph-name="i" unicode="i" 
d="M149 586q-39 0 -65 23.5t-26 60.5t26 60.5t65 23.5q40 0 66 -23.5t26 -60.5t-26 -60.5t-66 -23.5zM74 0v531h152v-531h-152z" />
    <glyph glyph-name="j" unicode="j" 
d="M149 586q-39 0 -65 23.5t-26 60.5t26 60.5t65 23.5q40 0 66 -23.5t26 -60.5t-26 -60.5t-66 -23.5zM-74 -204l37 121q21 -10 46 -10q32 0 48.5 18t16.5 61v545h152v-538q0 -104 -52 -159t-144 -55q-58 0 -104 17z" />
    <glyph glyph-name="k" unicode="k" horiz-adv-x="575" 
d="M577 0h-190l-161 260v-260h-153v739h153v-446l170 238h179l-195 -245z" />
    <glyph glyph-name="l" unicode="l" 
d="M73 0v739h153v-739h-153z" />
    <glyph glyph-name="m" unicode="m" horiz-adv-x="967" 
d="M721 547q85 0 134.5 -58t49.5 -169v-320h-153v296q0 111 -87 111q-100 0 -100 -125v-282h-152v296q0 111 -88 111q-99 0 -99 -125v-282h-153v531h145l6 -68q53 84 157 84q113 0 158 -96q61 96 182 96z" />
    <glyph glyph-name="n" unicode="n" horiz-adv-x="638" 
d="M392 547q84 0 134 -58.5t50 -169.5v-319h-153v294q0 60 -23.5 86.5t-69.5 26.5q-47 0 -75.5 -30.5t-28.5 -95.5v-281h-153v531h145l6 -68q60 84 168 84z" />
    <glyph glyph-name="o" unicode="o" horiz-adv-x="648" 
d="M323 -15q-116 0 -199.5 75t-83.5 206q0 132 83.5 206.5t202.5 74.5q116 0 199 -74.5t83 -206.5q0 -131 -83 -206t-202 -75zM323 117q53 0 91 40.5t38 109.5q0 68 -37 108t-89 40q-53 0 -91 -40.5t-38 -109.5q0 -68 36.5 -108t89.5 -40z" />
    <glyph glyph-name="p" unicode="p" horiz-adv-x="687" 
d="M397 547q116 0 182.5 -80t66.5 -200t-70.5 -201t-180.5 -81q-109 0 -169 84v-275h-153v737h145l6 -75q62 91 173 91zM357 119q58 0 95.5 39t37.5 108q0 70 -35.5 108.5t-91.5 38.5q-58 0 -97.5 -39t-39.5 -108q0 -70 36.5 -108.5t94.5 -38.5z" />
    <glyph glyph-name="q" unicode="q" horiz-adv-x="687" 
d="M470 531h143v-737h-152v278q-61 -87 -172 -87q-116 0 -182.5 79.5t-66.5 199.5q0 119 70.5 201t180.5 82q113 0 173 -89zM325 118q57 0 96.5 39t39.5 108q0 71 -36.5 109t-93.5 38q-58 0 -96 -39.5t-38 -107.5q0 -70 36 -108.5t92 -38.5z" />
    <glyph glyph-name="r" unicode="r" horiz-adv-x="435" 
d="M224 440q59 101 181 101v-154q-78 8 -128.5 -22t-50.5 -104v-261h-153v531h145z" />
    <glyph glyph-name="s" unicode="s" horiz-adv-x="494" 
d="M248 -15q-78 0 -132.5 23t-101.5 67l83 99q67 -66 149 -66q70 0 70 42q0 21 -20.5 34.5t-51.5 19.5t-67.5 17.5t-67.5 25.5t-51.5 46.5t-20.5 78.5q0 79 61.5 126.5t158.5 47.5q126 0 207 -74l-75 -100q-59 52 -128 52q-32 0 -51 -11.5t-19 -30.5q0 -21 28.5 -33.5
t69.5 -21.5t82.5 -24t70 -50.5t28.5 -89.5q0 -82 -64.5 -130t-157.5 -48z" />
    <glyph glyph-name="t" unicode="t" horiz-adv-x="474" 
d="M402 143l49 -117q-68 -41 -143 -41q-88 0 -141.5 47t-53.5 152v218h-103l32 129h71v134h153v-134h172v-129h-172v-216q0 -64 64 -64q38 0 72 21z" />
    <glyph glyph-name="u" unicode="u" horiz-adv-x="638" 
d="M412 531h153v-531h-145l-6 69q-59 -84 -168 -84q-84 0 -134 58.5t-50 168.5v319h153v-294q0 -60 23.5 -86.5t69.5 -26.5q47 0 75.5 31t28.5 96v280z" />
    <glyph glyph-name="v" unicode="v" horiz-adv-x="586" 
d="M415 531h173l-284 -542h-22l-284 542h176l122 -274z" />
    <glyph glyph-name="w" unicode="w" horiz-adv-x="791" 
d="M625 531h166l-243 -542h-22l-131 285l-131 -285h-23l-240 542h166l98 -248l120 251h22l125 -251z" />
    <glyph glyph-name="x" unicode="x" horiz-adv-x="564" 
d="M566 0h-183l-106 165l-107 -165h-172l195 271l-187 260h184l92 -148l93 148h172l-181 -252z" />
    <glyph glyph-name="y" unicode="y" horiz-adv-x="581" 
d="M414 531h165l-232 -531l-86 -206h-159l116 269l-216 468h173l121 -300z" />
    <glyph glyph-name="z" unicode="z" horiz-adv-x="480" 
d="M466 531v-21l-221 -380h207v-130h-432v22l219 380h-222l31 129h418z" />
    <glyph glyph-name="braceleft" unicode="{" horiz-adv-x="380" 
d="M369 -166q-119 2 -186 58t-67 135q0 38 17.5 95.5t17.5 84.5q0 47 -25 72t-92 49v21q67 26 92 50t25 70q0 28 -17.5 85.5t-17.5 96.5q0 80 67 135t186 56v-95q-105 -4 -105 -96q0 -27 18 -85t18 -97q0 -44 -23.5 -71.5t-80.5 -58.5q57 -32 80.5 -59.5t23.5 -72.5
q0 -39 -18 -96t-18 -84q0 -93 105 -96v-97z" />
    <glyph glyph-name="bar" unicode="|" horiz-adv-x="393" 
d="M129 851h134v-1057h-134v1057z" />
    <glyph glyph-name="braceright" unicode="}" horiz-adv-x="380" 
d="M11 -166v97q105 3 105 96q0 27 -18 84t-18 96q0 45 23.5 72.5t80.5 59.5q-57 31 -80.5 58.5t-23.5 71.5q0 39 18 97t18 85q0 92 -105 96v95q119 -1 186 -56t67 -135q0 -39 -17.5 -96.5t-17.5 -85.5q0 -46 25 -70t92 -50v-21q-67 -24 -92 -49t-25 -72q0 -27 17.5 -84.5
t17.5 -95.5q0 -79 -67 -135t-186 -58z" />
    <glyph glyph-name="asciitilde" unicode="~" horiz-adv-x="696" 
d="M452 250q-33 0 -66 20.5t-55.5 44.5t-47.5 44.5t-43 20.5q-27 0 -43.5 -33t-16.5 -89h-130q0 127 55 203t142 76q32 0 64.5 -21t54.5 -45.5t47 -45.5t43 -21q26 0 42.5 35t17.5 92h130q0 -128 -54 -204.5t-140 -76.5z" />
    <glyph glyph-name="uni00A0" unicode="&#xa0;" horiz-adv-x="254" 
 />
    <glyph glyph-name="exclamdown" unicode="&#xa1;" 
d="M150 377q-38 0 -62.5 24t-24.5 61t24.5 61t62.5 24t63 -24t25 -61t-25 -61t-63 -24zM62 -203l30 513h116l30 -513h-176z" />
    <glyph glyph-name="cent" unicode="&#xa2;" horiz-adv-x="546" 
d="M523 165q-61 -58 -145 -71v-94h-142v101q-87 25 -138 95t-51 174q0 100 51.5 170.5t137.5 97.5v101h142v-90q85 -11 142 -65l-78 -110q-43 42 -102 42t-97.5 -39t-38.5 -108q0 -70 37 -106t95 -36q61 0 111 45z" />
    <glyph glyph-name="sterling" unicode="&#xa3;" horiz-adv-x="631" 
d="M307 273q0 -75 -37 -126h322v-147h-556v21q67 69 90 115.5t23 113.5q0 15 -4 43h-101v109h66q-17 60 -17 113q0 105 76.5 172t202.5 67q149 0 236 -106l-96 -108q-51 66 -133 66q-59 0 -90 -31t-31 -83q0 -35 19 -90h218v-109h-189q1 -6 1 -20z" />
    <glyph glyph-name="currency" unicode="&#xa4;" horiz-adv-x="739" 
d="M628 389q0 -76 -32 -134l88 -86l-94 -94l-87 87q-59 -31 -133 -31q-75 0 -134 31l-87 -87l-93 94l86 86q-32 58 -32 134t32 134l-86 86l93 94l86 -86q59 31 135 31q75 0 134 -31l86 86l94 -94l-87 -86q31 -59 31 -134zM244 389q0 -56 34.5 -91t91.5 -35q56 0 91 35t35 91
t-35 91t-91 35q-57 0 -91.5 -35t-34.5 -91z" />
    <glyph glyph-name="yen" unicode="&#xa5;" horiz-adv-x="713" 
d="M710 739l-234 -349h145v-105h-185v-67h185v-105h-185v-113h-158v113h-185v105h185v67h-185v105h142l-232 349h192l164 -271l164 271h187z" />
    <glyph glyph-name="brokenbar" unicode="&#xa6;" horiz-adv-x="393" 
d="M129 851h134v-396h-134v396zM129 190h134v-396h-134v396z" />
    <glyph glyph-name="section" unicode="&#xa7;" horiz-adv-x="528" 
d="M337 365q0 21 -21.5 33.5t-54 17t-70.5 14.5t-70.5 24t-54 47t-21.5 81q0 78 62 125t160 47q132 0 212 -83l-79 -92q-53 58 -131 58q-80 0 -80 -48q0 -18 21.5 -29.5t54 -17t70 -16.5t70 -26.5t54 -50t21.5 -84.5h-143zM266 -15q-150 0 -241 93l83 96q39 -39 75 -55
t82 -16q32 0 54.5 12t22.5 38q0 19 -16 30.5t-42 18t-57 12.5t-62 16.5t-57 27t-42 47t-16 73.5h144q0 -21 30 -32t72.5 -19t85 -22t72.5 -50.5t30 -94.5q0 -80 -63 -127.5t-155 -47.5z" />
    <glyph glyph-name="dieresis" unicode="&#xa8;" horiz-adv-x="446" 
d="M127 586q-34 0 -55.5 22t-21.5 57q0 33 21.5 55.5t55.5 22.5t55.5 -22.5t21.5 -55.5q0 -35 -21.5 -57t-55.5 -22zM320 586q-34 0 -55.5 22t-21.5 57q0 33 21.5 55.5t55.5 22.5t55 -22.5t21 -55.5q0 -36 -20.5 -57.5t-55.5 -21.5z" />
    <glyph glyph-name="copyright" unicode="&#xa9;" horiz-adv-x="849" 
d="M425 -15q-166 0 -272 107.5t-106 277.5q0 169 106 277t272 108q165 0 270.5 -108t105.5 -277t-105.5 -277t-270.5 -108zM425 59q133 0 216 86t83 225q0 138 -83 224t-216 86q-134 0 -217.5 -85.5t-83.5 -224.5t83.5 -225t217.5 -86zM427 138q-97 0 -158 64.5t-61 167.5
q0 105 62.5 168.5t162.5 63.5q112 0 178 -88l-84 -74q-37 46 -92 46q-49 0 -76.5 -31t-27.5 -85q0 -51 27.5 -82.5t72.5 -31.5q63 0 98 54l78 -82q-72 -90 -180 -90z" />
    <glyph glyph-name="ordfeminine" unicode="&#xaa;" horiz-adv-x="441" 
d="M394 361h-106q-2 7 -4.5 21t-3.5 20q-38 -50 -113 -50q-61 0 -99 32.5t-38 89.5q0 56 47 88.5t129 32.5q32 0 68 -8v3q0 29 -20 44.5t-57 15.5q-55 0 -102 -31l-44 87q73 42 155 42q83 0 132 -42t49 -116v-127q0 -49 7 -102zM197 442q33 0 55 15t22 47v7q-26 6 -54 6
q-76 0 -76 -42q0 -14 13.5 -23.5t39.5 -9.5z" />
    <glyph glyph-name="guillemotleft" unicode="&#xab;" horiz-adv-x="639" 
d="M206 58l-184 222l184 222h121l-126 -222l126 -222h-121zM486 58l-184 222l184 222h121l-126 -222l126 -222h-121z" />
    <glyph glyph-name="logicalnot" unicode="&#xac;" horiz-adv-x="620" 
d="M570 477v-368h-140v228h-400v140h540z" />
    <glyph glyph-name="uni00AD" unicode="&#xad;" horiz-adv-x="357" 
d="M51 368h255v-129h-255v129z" />
    <glyph glyph-name="registered" unicode="&#xae;" horiz-adv-x="517" 
d="M258 739q98 0 161.5 -63t63.5 -161t-63.5 -161.5t-161.5 -63.5t-161.5 63.5t-63.5 161.5q0 97 63.5 160.5t161.5 63.5zM258 358q70 0 113 43.5t43 113.5t-43 113.5t-113 43.5q-69 0 -112.5 -43.5t-43.5 -113.5t43.5 -113.5t112.5 -43.5zM345 549q0 -44 -38 -59l55 -76
h-75l-44 67h-2v-67h-61v202h83q38 0 60 -18t22 -49zM261 561h-20v-26h15q28 0 28 14q0 12 -23 12z" />
    <glyph glyph-name="macron" unicode="&#xaf;" horiz-adv-x="394" 
d="M50 600v117h294v-117h-294z" />
    <glyph glyph-name="degree" unicode="&#xb0;" horiz-adv-x="500" 
d="M254 344q-94 0 -154 58.5t-60 147.5q0 91 58 147t151 56q91 0 151 -58t60 -147q0 -87 -59.5 -145.5t-146.5 -58.5zM254 461q34 0 57.5 25t23.5 62q0 39 -24 64t-62 25t-61 -24t-23 -63t25 -64t64 -25z" />
    <glyph glyph-name="plusminus" unicode="&#xb1;" horiz-adv-x="602" 
d="M370 497h182v-134h-182v-162h-140v162h-180v134h180v163h140v-163zM50 0v133h502v-133h-502z" />
    <glyph glyph-name="uni00B2" unicode="&#xb2;" horiz-adv-x="375" 
d="M222 635h115v-96h-312v13l128 141q37 39 49.5 58.5t12.5 35.5t-12 25.5t-35 9.5q-45 0 -80 -47l-66 66q57 77 156 77q75 0 110 -36t35 -85q0 -68 -90 -152z" />
    <glyph glyph-name="uni00B3" unicode="&#xb3;" horiz-adv-x="390" 
d="M190 531q-104 0 -163 64l63 73q38 -41 92 -41q57 0 57 45q0 32 -38.5 41t-77.5 -8l-17 34l70 75h-139v95h311v-26l-103 -109q44 -5 71.5 -35.5t27.5 -77.5q0 -59 -40 -94.5t-114 -35.5z" />
    <glyph glyph-name="acute" unicode="&#xb4;" horiz-adv-x="313" 
d="M50 583l68 189l145 -64l-96 -125h-117z" />
    <glyph glyph-name="uni00B5" unicode="&#xb5;" horiz-adv-x="645" 
d="M422 531h149v-531h-136l-7 53q-40 -63 -120 -63q-54 0 -90 28l1 -224h-146v737h151v-283q0 -124 97 -124q101 0 101 130v277z" />
    <glyph glyph-name="paragraph" unicode="&#xb6;" horiz-adv-x="706" 
d="M310 285q-124 0 -195.5 58t-71.5 167q0 114 75.5 171.5t211.5 57.5h53v-454h-73zM463 0v739h157v-739h-157z" />
    <glyph glyph-name="periodcentered" unicode="&#xb7;" horiz-adv-x="292" 
d="M146 211q-41 0 -68 26t-27 66t27 66t68 26t68.5 -26t27.5 -66t-27.5 -66t-68.5 -26z" />
    <glyph glyph-name="cedilla" unicode="&#xb8;" horiz-adv-x="277" 
d="M50 -206l35 147h142l-68 -147h-109z" />
    <glyph glyph-name="uni00B9" unicode="&#xb9;" horiz-adv-x="321" 
d="M141 539v234l-77 -31l-37 85l204 89h14v-377h-104z" />
    <glyph glyph-name="ordmasculine" unicode="&#xba;" horiz-adv-x="485" 
d="M240 352q-82 0 -141 52t-59 145q0 95 59.5 147t144.5 52q82 0 141.5 -52.5t59.5 -146.5q0 -93 -59.5 -145t-145.5 -52zM240 454q33 0 57 25.5t24 70.5q0 44 -23 69.5t-54 25.5q-32 0 -56.5 -25.5t-24.5 -70.5q0 -44 23 -69.5t54 -25.5z" />
    <glyph glyph-name="guillemotright" unicode="&#xbb;" horiz-adv-x="639" 
d="M32 58l126 222l-126 222h121l184 -222l-184 -222h-121zM312 58l126 222l-126 222h121l184 -222l-184 -222h-121z" />
    <glyph glyph-name="onequarter" unicode="&#xbc;" horiz-adv-x="838" 
d="M141 369v234l-77 -31l-37 85l204 89h14v-377h-104zM96 0l462 739h135l-462 -739h-135zM811 142v-84h-62v-58h-96v58h-236v12l230 300h102v-228h62zM573 142h80v104z" />
    <glyph glyph-name="onehalf" unicode="&#xbd;" horiz-adv-x="844" 
d="M141 369v234l-77 -31l-37 85l204 89h14v-377h-104zM96 0l462 739h135l-462 -739h-135zM691 96h115v-96h-312v13l128 141q37 39 49.5 58.5t12.5 35.5t-12 25.5t-35 9.5q-45 0 -80 -47l-66 66q57 77 156 77q75 0 110 -36t35 -85q0 -68 -90 -152z" />
    <glyph glyph-name="threequarters" unicode="&#xbe;" horiz-adv-x="907" 
d="M190 361q-104 0 -163 64l63 73q38 -41 92 -41q57 0 57 45q0 32 -38.5 41t-77.5 -8l-17 34l70 75h-139v95h311v-26l-103 -109q44 -5 71.5 -35.5t27.5 -77.5q0 -59 -40 -94.5t-114 -35.5zM165 0l462 739h135l-462 -739h-135zM880 142v-84h-62v-58h-96v58h-236v12l230 300
h102v-228h62zM642 142h80v104z" />
    <glyph glyph-name="questiondown" unicode="&#xbf;" horiz-adv-x="509" 
d="M305 377q-37 0 -61.5 24t-24.5 61t24.5 61t61.5 24q38 0 62.5 -24t24.5 -61t-24.5 -61t-62.5 -24zM286 -218q-122 0 -184 61t-62 157q0 44 15 79.5t38 56t49.5 41t49.5 35.5t38 37t15 48v13h136v-24q0 -50 -18.5 -86.5t-45.5 -57.5t-54 -39t-45.5 -41.5t-18.5 -53.5
q0 -37 24.5 -61t75.5 -24q87 0 144 72l94 -104q-96 -109 -251 -109z" />
    <glyph glyph-name="Agrave" unicode="&#xc0;" horiz-adv-x="700" 
d="M411 791h-116l-97 125l145 64zM529 0l-53 127h-257l-52 -127h-170l343 752h21l342 -752h-174zM431 257l-84 203l-83 -203h167z" />
    <glyph glyph-name="Aacute" unicode="&#xc1;" horiz-adv-x="700" 
d="M502 916l-96 -125h-117l68 189zM529 0l-53 127h-257l-52 -127h-170l343 752h21l342 -752h-174zM431 257l-84 203l-83 -203h167z" />
    <glyph glyph-name="Acircumflex" unicode="&#xc2;" horiz-adv-x="700" 
d="M349 861l-58 -70h-115l86 156h173l87 -156h-116zM529 0l-53 127h-257l-52 -127h-170l343 752h21l342 -752h-174zM431 257l-84 203l-83 -203h167z" />
    <glyph glyph-name="Atilde" unicode="&#xc3;" horiz-adv-x="700" 
d="M297 834q-22 0 -32 -40l-98 25q11 63 37.5 95.5t63.5 32.5q31 0 67 -17t47 -17q23 0 33 39l98 -25q-11 -63 -37.5 -95.5t-64.5 -32.5q-31 0 -66.5 17.5t-47.5 17.5zM529 0l-53 127h-257l-52 -127h-170l343 752h21l342 -752h-174zM431 257l-84 203l-83 -203h167z" />
    <glyph glyph-name="Adieresis" unicode="&#xc4;" horiz-adv-x="700" 
d="M253 794q-34 0 -55.5 22t-21.5 57q0 33 21.5 55.5t55.5 22.5t55.5 -22.5t21.5 -55.5q0 -35 -21.5 -57t-55.5 -22zM446 794q-34 0 -55.5 22t-21.5 57q0 33 21.5 55.5t55.5 22.5t55 -22.5t21 -55.5q0 -36 -20.5 -57.5t-55.5 -21.5zM529 0l-53 127h-257l-52 -127h-170
l343 752h21l342 -752h-174zM431 257l-84 203l-83 -203h167z" />
    <glyph glyph-name="Aring" unicode="&#xc5;" horiz-adv-x="700" 
d="M350 781q-60 0 -97.5 36.5t-37.5 92.5t38 92t96 36q60 0 98 -36.5t38 -91.5q0 -56 -38 -92.5t-97 -36.5zM349 960q-21 0 -35 -14t-14 -36q0 -23 14 -37t36 -14q21 0 35 14t14 37t-14 36.5t-36 13.5zM529 0l-53 127h-257l-52 -127h-170l343 752h21l342 -752h-174zM431 257
l-84 203l-83 -203h167z" />
    <glyph glyph-name="AE" unicode="&#xc6;" horiz-adv-x="975" 
d="M630 143h285v-143h-441v177h-212l-86 -177h-179l391 739h516v-143h-274v-143h259v-140h-259v-170zM328 311h146v283h-8z" />
    <glyph glyph-name="Ccedilla" unicode="&#xc7;" horiz-adv-x="733" 
d="M419 -15q-160 0 -266 107t-106 278q0 172 108.5 278t269.5 106q178 0 281 -117l-104 -111q-66 75 -169 75q-97 0 -159 -61t-62 -170q0 -107 60 -170t154 -63q103 0 180 88l105 -102q-52 -68 -129 -103t-163 -35zM321 -206l35 147h142l-68 -147h-109z" />
    <glyph glyph-name="Egrave" unicode="&#xc8;" horiz-adv-x="621" 
d="M380 791h-116l-97 125l145 64zM243 143h318v-143h-475v739h464v-143h-307v-143h292v-141h-292v-169z" />
    <glyph glyph-name="Eacute" unicode="&#xc9;" horiz-adv-x="621" 
d="M471 916l-96 -125h-117l68 189zM243 143h318v-143h-475v739h464v-143h-307v-143h292v-141h-292v-169z" />
    <glyph glyph-name="Ecircumflex" unicode="&#xca;" horiz-adv-x="621" 
d="M319 861l-58 -70h-115l86 156h173l87 -156h-116zM243 143h318v-143h-475v739h464v-143h-307v-143h292v-141h-292v-169z" />
    <glyph glyph-name="Edieresis" unicode="&#xcb;" horiz-adv-x="621" 
d="M223 794q-34 0 -55.5 22t-21.5 57q0 33 21.5 55.5t55.5 22.5t55.5 -22.5t21.5 -55.5q0 -35 -21.5 -57t-55.5 -22zM416 794q-34 0 -55.5 22t-21.5 57q0 33 21.5 55.5t55.5 22.5t55 -22.5t21 -55.5q0 -36 -20.5 -57.5t-55.5 -21.5zM243 143h318v-143h-475v739h464v-143
h-307v-143h292v-141h-292v-169z" />
    <glyph glyph-name="Igrave" unicode="&#xcc;" horiz-adv-x="332" 
d="M110 791l-97 125l145 64l68 -189h-116zM86 0v739h159v-739h-159z" />
    <glyph glyph-name="Iacute" unicode="&#xcd;" horiz-adv-x="332" 
d="M104 791l68 189l145 -64l-96 -125h-117zM86 0v739h159v-739h-159z" />
    <glyph glyph-name="Icircumflex" unicode="&#xce;" horiz-adv-x="332" 
d="M165 861l-58 -70h-115l86 156h173l87 -156h-116zM86 0v739h159v-739h-159z" />
    <glyph glyph-name="Idieresis" unicode="&#xcf;" horiz-adv-x="332" 
d="M68 794q-34 0 -55.5 22t-21.5 57q0 33 21.5 55.5t55.5 22.5t55.5 -22.5t21.5 -55.5q0 -35 -21.5 -57t-55.5 -22zM261 794q-34 0 -55.5 22t-21.5 57q0 33 21.5 55.5t55.5 22.5t55 -22.5t21 -55.5q0 -36 -20.5 -57.5t-55.5 -21.5zM86 0v739h159v-739h-159z" />
    <glyph glyph-name="Eth" unicode="&#xd0;" horiz-adv-x="767" 
d="M286 739q209 0 321 -95.5t112 -265.5q0 -179 -116.5 -278.5t-316.5 -99.5h-200v309h-53v122h53v308h200zM288 143q125 0 196 60.5t71 174.5q0 113 -67 165.5t-200 52.5h-45v-165h148v-122h-148v-166h45z" />
    <glyph glyph-name="Ntilde" unicode="&#xd1;" horiz-adv-x="761" 
d="M302 834q-22 0 -32 -40l-98 25q11 63 37.5 95.5t63.5 32.5q31 0 67 -17t47 -17q23 0 33 39l98 -25q-11 -63 -37.5 -95.5t-64.5 -32.5q-31 0 -66.5 17.5t-47.5 17.5zM515 739h160v-751h-22l-408 417v-405h-159v752h23l406 -416v403z" />
    <glyph glyph-name="Ograve" unicode="&#xd2;" horiz-adv-x="862" 
d="M376 791l-97 125l145 64l68 -189h-116zM428 -16q-70 0 -136.5 25t-122 71t-89 121t-33.5 167q0 94 33.5 170t89 122t122 70.5t136.5 24.5t137 -24.5t123.5 -70.5t91 -122t34.5 -170q0 -92 -34 -167t-90 -121t-123.5 -71t-138.5 -25zM428 138q88 0 155 60t67 170
q0 114 -66.5 174t-155.5 60t-152.5 -59.5t-63.5 -174.5q0 -110 64 -170t152 -60z" />
    <glyph glyph-name="Oacute" unicode="&#xd3;" horiz-adv-x="862" 
d="M370 791l68 189l145 -64l-96 -125h-117zM428 -16q-70 0 -136.5 25t-122 71t-89 121t-33.5 167q0 94 33.5 170t89 122t122 70.5t136.5 24.5t137 -24.5t123.5 -70.5t91 -122t34.5 -170q0 -92 -34 -167t-90 -121t-123.5 -71t-138.5 -25zM428 138q88 0 155 60t67 170
q0 114 -66.5 174t-155.5 60t-152.5 -59.5t-63.5 -174.5q0 -110 64 -170t152 -60z" />
    <glyph glyph-name="Ocircumflex" unicode="&#xd4;" horiz-adv-x="862" 
d="M431 861l-58 -70h-115l86 156h173l87 -156h-116zM428 755q70 0 137 -24.5t123.5 -70.5t91 -122t34.5 -170q0 -92 -34 -167t-90 -121t-123.5 -71t-138.5 -25q-70 0 -136.5 25t-122 71t-89 121t-33.5 167q0 94 33.5 170t89 122t122 70.5t136.5 24.5zM428 138q88 0 155 60
t67 170q0 114 -66.5 174t-155.5 60t-152.5 -59.5t-63.5 -174.5q0 -110 64 -170t152 -60z" />
    <glyph glyph-name="Otilde" unicode="&#xd5;" horiz-adv-x="862" 
d="M248 819q11 63 37.5 95.5t63.5 32.5q31 0 67 -17t47 -17q23 0 33 39l98 -25q-11 -63 -37.5 -95.5t-64.5 -32.5q-31 0 -66.5 17.5t-47.5 17.5q-22 0 -32 -40zM428 -16q-70 0 -136.5 25t-122 71t-89 121t-33.5 167q0 94 33.5 170t89 122t122 70.5t136.5 24.5t137 -24.5
t123.5 -70.5t91 -122t34.5 -170q0 -92 -34 -167t-90 -121t-123.5 -71t-138.5 -25zM428 138q88 0 155 60t67 170q0 114 -66.5 174t-155.5 60t-152.5 -59.5t-63.5 -174.5q0 -110 64 -170t152 -60z" />
    <glyph glyph-name="Odieresis" unicode="&#xd6;" horiz-adv-x="862" 
d="M334 794q-34 0 -55.5 22t-21.5 57q0 33 21.5 55.5t55.5 22.5t55.5 -22.5t21.5 -55.5q0 -35 -21.5 -57t-55.5 -22zM527 794q-34 0 -55.5 22t-21.5 57q0 33 21.5 55.5t55.5 22.5t55 -22.5t21 -55.5q0 -36 -20.5 -57.5t-55.5 -21.5zM428 -16q-70 0 -136.5 25t-122 71
t-89 121t-33.5 167q0 94 33.5 170t89 122t122 70.5t136.5 24.5t137 -24.5t123.5 -70.5t91 -122t34.5 -170q0 -92 -34 -167t-90 -121t-123.5 -71t-138.5 -25zM428 138q88 0 155 60t67 170q0 114 -66.5 174t-155.5 60t-152.5 -59.5t-63.5 -174.5q0 -110 64 -170t152 -60z" />
    <glyph glyph-name="multiply" unicode="&#xd7;" horiz-adv-x="579" 
d="M539 158l-99 -98l-150 150l-151 -151l-99 99l151 150l-151 150l99 99l151 -150l150 150l98 -99l-150 -150z" />
    <glyph glyph-name="Oslash" unicode="&#xd8;" horiz-adv-x="862" 
d="M722 627q92 -104 92 -259q0 -92 -34 -167t-90 -121t-123.5 -71t-138.5 -25q-113 0 -207 58l-34 -40l-82 70l33 39q-91 104 -91 257q0 94 33.5 170t89 122t122 70.5t136.5 24.5q115 0 211 -59l35 41l83 -70zM212 368q0 -75 34 -132l290 340q-48 26 -108 26
q-89 0 -152.5 -59.5t-63.5 -174.5zM428 138q88 0 155 60t67 170q0 77 -34 134l-291 -339q47 -25 103 -25z" />
    <glyph glyph-name="Ugrave" unicode="&#xd9;" horiz-adv-x="747" 
d="M319 791l-97 125l145 64l68 -189h-116zM374 -15q-137 0 -219 81.5t-82 232.5l2 440h158l-1 -425q-1 -176 141 -176q140 0 140 176l1 425h159l-1 -440q0 -151 -81 -232.5t-217 -81.5z" />
    <glyph glyph-name="Uacute" unicode="&#xda;" horiz-adv-x="747" 
d="M313 791l68 189l145 -64l-96 -125h-117zM374 -15q-137 0 -219 81.5t-82 232.5l2 440h158l-1 -425q-1 -176 141 -176q140 0 140 176l1 425h159l-1 -440q0 -151 -81 -232.5t-217 -81.5z" />
    <glyph glyph-name="Ucircumflex" unicode="&#xdb;" horiz-adv-x="747" 
d="M373 861l-58 -70h-115l86 156h173l87 -156h-116zM514 739h159l-1 -440q0 -151 -81 -232.5t-217 -81.5q-137 0 -219 81.5t-82 232.5l2 440h158l-1 -425q-1 -176 141 -176q140 0 140 176z" />
    <glyph glyph-name="Udieresis" unicode="&#xdc;" horiz-adv-x="747" 
d="M277 794q-34 0 -55.5 22t-21.5 57q0 33 21.5 55.5t55.5 22.5t55.5 -22.5t21.5 -55.5q0 -35 -21.5 -57t-55.5 -22zM470 794q-34 0 -55.5 22t-21.5 57q0 33 21.5 55.5t55.5 22.5t55 -22.5t21 -55.5q0 -36 -20.5 -57.5t-55.5 -21.5zM374 -15q-137 0 -219 81.5t-82 232.5
l2 440h158l-1 -425q-1 -176 141 -176q140 0 140 176l1 425h159l-1 -440q0 -151 -81 -232.5t-217 -81.5z" />
    <glyph glyph-name="Yacute" unicode="&#xdd;" horiz-adv-x="703" 
d="M504 916l-96 -125h-117l68 189zM519 739h186l-274 -462v-277h-158v271l-275 468h191l165 -307z" />
    <glyph glyph-name="Thorn" unicode="&#xde;" horiz-adv-x="669" 
d="M335 621q134 0 213 -65t79 -179q0 -124 -83 -187t-231 -63h-68v-127h-159v739h159v-118h90zM312 265q77 0 113.5 25.5t36.5 86.5q0 54 -33 77.5t-100 23.5h-84v-213h67z" />
    <glyph glyph-name="germandbls" unicode="&#xdf;" horiz-adv-x="674" 
d="M480 400q169 -91 169 -226q0 -88 -58.5 -138.5t-155.5 -50.5q-78 0 -149 31l43 118q46 -26 93 -26q32 0 51.5 17t19.5 45q0 48 -39.5 93.5t-149.5 103.5v21q63 47 89.5 83t26.5 75q0 37 -25 60.5t-65 23.5q-104 0 -104 -142v-488h-153v486q0 127 68.5 197.5t190.5 70.5
q118 0 181.5 -57.5t63.5 -146.5q0 -87 -97 -150z" />
    <glyph glyph-name="agrave" unicode="&#xe0;" horiz-adv-x="575" 
d="M333 584h-116l-97 125l145 64zM520 0h-135l-12 65q-53 -76 -157 -76q-83 0 -133.5 44.5t-50.5 124.5q0 77 63 123t172 46q51 0 99 -13v14q0 45 -28.5 70t-80.5 25q-74 0 -140 -46l-55 111q94 59 207 59q111 0 176 -58.5t65 -159.5v-181q0 -78 10 -148zM256 103
q46 0 78 25t32 70v21q-38 10 -79 10q-108 0 -108 -68q0 -26 19.5 -42t57.5 -16z" />
    <glyph glyph-name="aacute" unicode="&#xe1;" horiz-adv-x="575" 
d="M424 709l-96 -125h-117l68 189zM520 0h-135l-12 65q-53 -76 -157 -76q-83 0 -133.5 44.5t-50.5 124.5q0 77 63 123t172 46q51 0 99 -13v14q0 45 -28.5 70t-80.5 25q-74 0 -140 -46l-55 111q94 59 207 59q111 0 176 -58.5t65 -159.5v-181q0 -78 10 -148zM256 103
q46 0 78 25t32 70v21q-38 10 -79 10q-108 0 -108 -68q0 -26 19.5 -42t57.5 -16z" />
    <glyph glyph-name="acircumflex" unicode="&#xe2;" horiz-adv-x="575" 
d="M272 654l-58 -70h-115l86 156h173l87 -156h-116zM520 0h-135l-12 65q-53 -76 -157 -76q-83 0 -133.5 44.5t-50.5 124.5q0 77 63 123t172 46q51 0 99 -13v14q0 45 -28.5 70t-80.5 25q-74 0 -140 -46l-55 111q94 59 207 59q111 0 176 -58.5t65 -159.5v-181q0 -78 10 -148z
M256 103q46 0 78 25t32 70v21q-38 10 -79 10q-108 0 -108 -68q0 -26 19.5 -42t57.5 -16z" />
    <glyph glyph-name="atilde" unicode="&#xe3;" horiz-adv-x="575" 
d="M219 627q-22 0 -32 -40l-98 25q11 63 37.5 95.5t63.5 32.5q31 0 67 -17t47 -17q23 0 33 39l98 -25q-11 -63 -37.5 -95.5t-64.5 -32.5q-31 0 -66.5 17.5t-47.5 17.5zM520 0h-135l-12 65q-53 -76 -157 -76q-83 0 -133.5 44.5t-50.5 124.5q0 77 63 123t172 46q51 0 99 -13
v14q0 45 -28.5 70t-80.5 25q-74 0 -140 -46l-55 111q94 59 207 59q111 0 176 -58.5t65 -159.5v-181q0 -78 10 -148zM256 103q46 0 78 25t32 70v21q-38 10 -79 10q-108 0 -108 -68q0 -26 19.5 -42t57.5 -16z" />
    <glyph glyph-name="adieresis" unicode="&#xe4;" horiz-adv-x="575" 
d="M176 587q-34 0 -55.5 22t-21.5 57q0 33 21.5 55.5t55.5 22.5t55.5 -22.5t21.5 -55.5q0 -35 -21.5 -57t-55.5 -22zM369 587q-34 0 -55.5 22t-21.5 57q0 33 21.5 55.5t55.5 22.5t55 -22.5t21 -55.5q0 -36 -20.5 -57.5t-55.5 -21.5zM520 0h-135l-12 65q-53 -76 -157 -76
q-83 0 -133.5 44.5t-50.5 124.5q0 77 63 123t172 46q51 0 99 -13v14q0 45 -28.5 70t-80.5 25q-74 0 -140 -46l-55 111q94 59 207 59q111 0 176 -58.5t65 -159.5v-181q0 -78 10 -148zM256 103q46 0 78 25t32 70v21q-38 10 -79 10q-108 0 -108 -68q0 -26 19.5 -42t57.5 -16z
" />
    <glyph glyph-name="aring" unicode="&#xe5;" horiz-adv-x="575" 
d="M273 574q-60 0 -97.5 36.5t-37.5 92.5t38 92t96 36q60 0 98 -36.5t38 -91.5q0 -56 -38 -92.5t-97 -36.5zM272 753q-21 0 -35 -14t-14 -36q0 -23 14 -37t36 -14q21 0 35 14t14 37t-14 36.5t-36 13.5zM520 0h-135l-12 65q-53 -76 -157 -76q-83 0 -133.5 44.5t-50.5 124.5
q0 77 63 123t172 46q51 0 99 -13v14q0 45 -28.5 70t-80.5 25q-74 0 -140 -46l-55 111q94 59 207 59q111 0 176 -58.5t65 -159.5v-181q0 -78 10 -148zM256 103q46 0 78 25t32 70v21q-38 10 -79 10q-108 0 -108 -68q0 -26 19.5 -42t57.5 -16z" />
    <glyph glyph-name="ae" unicode="&#xe6;" horiz-adv-x="921" 
d="M622 548q124 0 197 -84.5t63 -243.5h-375q22 -102 138 -102q73 0 133 56l75 -107q-90 -82 -223 -82q-132 0 -203 93q-62 -89 -194 -89q-91 0 -146 44.5t-55 124.5q0 78 64 124t173 46q47 0 91 -11v9q0 48 -26.5 73t-73.5 25q-70 0 -132 -46l-58 110q88 58 200 58
q120 0 177 -71q70 73 175 73zM622 425q-43 0 -73 -26t-41 -73l220 -1q-17 100 -106 100zM256 101q44 0 74 25.5t30 73.5v21q-33 9 -73 9q-108 0 -108 -68q0 -61 77 -61z" />
    <glyph glyph-name="ccedilla" unicode="&#xe7;" horiz-adv-x="551" 
d="M317 -15q-123 0 -200 75t-77 205q0 127 81 204.5t205 77.5q115 0 187 -68l-78 -111q-43 43 -102 43t-97.5 -39t-38.5 -108q0 -70 36.5 -106t95.5 -36q62 0 111 45l76 -107q-80 -75 -199 -75zM213 -206l35 147h142l-68 -147h-109z" />
    <glyph glyph-name="egrave" unicode="&#xe8;" horiz-adv-x="614" 
d="M371 583h-116l-97 125l145 64zM576 254q0 -20 -1 -30h-377q21 -106 137 -106q76 0 136 52l73 -104q-88 -81 -224 -81q-126 0 -203 75t-77 204q0 132 81 208t194 76q117 0 189 -75.5t72 -218.5zM313 425q-43 0 -73 -27.5t-41 -75.5h221q-7 48 -34 75.5t-73 27.5z" />
    <glyph glyph-name="eacute" unicode="&#xe9;" horiz-adv-x="614" 
d="M462 708l-96 -125h-117l68 189zM576 254q0 -20 -1 -30h-377q21 -106 137 -106q76 0 136 52l73 -104q-88 -81 -224 -81q-126 0 -203 75t-77 204q0 132 81 208t194 76q117 0 189 -75.5t72 -218.5zM313 425q-43 0 -73 -27.5t-41 -75.5h221q-7 48 -34 75.5t-73 27.5z" />
    <glyph glyph-name="ecircumflex" unicode="&#xea;" horiz-adv-x="614" 
d="M310 653l-58 -70h-115l86 156h173l87 -156h-116zM576 254q0 -20 -1 -30h-377q21 -106 137 -106q76 0 136 52l73 -104q-88 -81 -224 -81q-126 0 -203 75t-77 204q0 132 81 208t194 76q117 0 189 -75.5t72 -218.5zM313 425q-43 0 -73 -27.5t-41 -75.5h221q-7 48 -34 75.5
t-73 27.5z" />
    <glyph glyph-name="edieresis" unicode="&#xeb;" horiz-adv-x="614" 
d="M214 586q-34 0 -55.5 22t-21.5 57q0 33 21.5 55.5t55.5 22.5t55.5 -22.5t21.5 -55.5q0 -35 -21.5 -57t-55.5 -22zM407 586q-34 0 -55.5 22t-21.5 57q0 33 21.5 55.5t55.5 22.5t55 -22.5t21 -55.5q0 -36 -20.5 -57.5t-55.5 -21.5zM576 254q0 -20 -1 -30h-377
q21 -106 137 -106q76 0 136 52l73 -104q-88 -81 -224 -81q-126 0 -203 75t-77 204q0 132 81 208t194 76q117 0 189 -75.5t72 -218.5zM313 425q-43 0 -73 -27.5t-41 -75.5h221q-7 48 -34 75.5t-73 27.5z" />
    <glyph glyph-name="igrave" unicode="&#xec;" 
d="M94 583l-97 125l145 64l68 -189h-116zM73 0v531h153v-531h-153z" />
    <glyph glyph-name="iacute" unicode="&#xed;" 
d="M88 583l68 189l145 -64l-96 -125h-117zM73 0v531h153v-531h-153z" />
    <glyph glyph-name="icircumflex" unicode="&#xee;" 
d="M149 653l-58 -70h-115l86 156h173l87 -156h-116zM73 0v531h153v-531h-153z" />
    <glyph glyph-name="idieresis" unicode="&#xef;" 
d="M52 586q-34 0 -55.5 22t-21.5 57q0 33 21.5 55.5t55.5 22.5t55.5 -22.5t21.5 -55.5q0 -35 -21.5 -57t-55.5 -22zM245 586q-34 0 -55.5 22t-21.5 57q0 33 21.5 55.5t55.5 22.5t55 -22.5t21 -55.5q0 -36 -20.5 -57.5t-55.5 -21.5zM73 0v531h153v-531h-153z" />
    <glyph glyph-name="eth" unicode="&#xf0;" horiz-adv-x="648" 
d="M521 478q86 -114 86 -228q0 -117 -77.5 -191t-208.5 -74q-128 0 -204.5 69.5t-76.5 182.5q0 114 73 184t179 70q29 0 48 -4l-73 89l-142 -56l-33 77l119 47l-78 95h191l29 -39l121 48l34 -77l-102 -40zM323 117q55 0 90 35.5t35 91.5q0 53 -35 88t-90 35q-56 0 -91 -34.5
t-35 -88.5q0 -57 34.5 -92t91.5 -35z" />
    <glyph glyph-name="ntilde" unicode="&#xf1;" horiz-adv-x="638" 
d="M284 626q-22 0 -32 -40l-98 25q11 63 37.5 95.5t63.5 32.5q31 0 67 -17t47 -17q23 0 33 39l98 -25q-11 -63 -37.5 -95.5t-64.5 -32.5q-31 0 -66.5 17.5t-47.5 17.5zM392 547q84 0 134 -58.5t50 -169.5v-319h-153v294q0 60 -23.5 86.5t-69.5 26.5q-47 0 -75.5 -30.5
t-28.5 -95.5v-281h-153v531h145l6 -68q60 84 168 84z" />
    <glyph glyph-name="ograve" unicode="&#xf2;" horiz-adv-x="648" 
d="M270 584l-97 125l145 64l68 -189h-116zM323 -15q-116 0 -199.5 75t-83.5 206q0 132 83.5 206.5t202.5 74.5q116 0 199 -74.5t83 -206.5q0 -131 -83 -206t-202 -75zM323 117q53 0 91 40.5t38 109.5q0 68 -37 108t-89 40q-53 0 -91 -40.5t-38 -109.5q0 -68 36.5 -108
t89.5 -40z" />
    <glyph glyph-name="oacute" unicode="&#xf3;" horiz-adv-x="648" 
d="M264 584l68 189l145 -64l-96 -125h-117zM323 -15q-116 0 -199.5 75t-83.5 206q0 132 83.5 206.5t202.5 74.5q116 0 199 -74.5t83 -206.5q0 -131 -83 -206t-202 -75zM323 117q53 0 91 40.5t38 109.5q0 68 -37 108t-89 40q-53 0 -91 -40.5t-38 -109.5q0 -68 36.5 -108
t89.5 -40z" />
    <glyph glyph-name="ocircumflex" unicode="&#xf4;" horiz-adv-x="648" 
d="M325 654l-58 -70h-115l86 156h173l87 -156h-116zM326 547q116 0 199 -74.5t83 -206.5q0 -131 -83 -206t-202 -75q-116 0 -199.5 75t-83.5 206q0 132 83.5 206.5t202.5 74.5zM323 117q53 0 91 40.5t38 109.5q0 68 -37 108t-89 40q-53 0 -91 -40.5t-38 -109.5
q0 -68 36.5 -108t89.5 -40z" />
    <glyph glyph-name="otilde" unicode="&#xf5;" horiz-adv-x="648" 
d="M142 612q11 63 37.5 95.5t63.5 32.5q31 0 67 -17t47 -17q23 0 33 39l98 -25q-11 -63 -37.5 -95.5t-64.5 -32.5q-31 0 -66.5 17.5t-47.5 17.5q-22 0 -32 -40zM323 -15q-116 0 -199.5 75t-83.5 206q0 132 83.5 206.5t202.5 74.5q116 0 199 -74.5t83 -206.5q0 -131 -83 -206
t-202 -75zM323 117q53 0 91 40.5t38 109.5q0 68 -37 108t-89 40q-53 0 -91 -40.5t-38 -109.5q0 -68 36.5 -108t89.5 -40z" />
    <glyph glyph-name="odieresis" unicode="&#xf6;" horiz-adv-x="648" 
d="M228 587q-34 0 -55.5 22t-21.5 57q0 33 21.5 55.5t55.5 22.5t55.5 -22.5t21.5 -55.5q0 -35 -21.5 -57t-55.5 -22zM421 587q-34 0 -55.5 22t-21.5 57q0 33 21.5 55.5t55.5 22.5t55 -22.5t21 -55.5q0 -36 -20.5 -57.5t-55.5 -21.5zM323 -15q-116 0 -199.5 75t-83.5 206
q0 132 83.5 206.5t202.5 74.5q116 0 199 -74.5t83 -206.5q0 -131 -83 -206t-202 -75zM323 117q53 0 91 40.5t38 109.5q0 68 -37 108t-89 40q-53 0 -91 -40.5t-38 -109.5q0 -68 36.5 -108t89.5 -40z" />
    <glyph glyph-name="divide" unicode="&#xf7;" horiz-adv-x="571" 
d="M285 440q-43 0 -70.5 26t-27.5 66t27.5 65.5t70.5 25.5t71 -25.5t28 -65.5t-27.5 -66t-71.5 -26zM30 238v141h511v-141h-511zM285 -6q-43 0 -70.5 25.5t-27.5 65.5t27.5 66t70.5 26q44 0 71.5 -26t27.5 -66t-28 -65.5t-71 -25.5z" />
    <glyph glyph-name="oslash" unicode="&#xf8;" horiz-adv-x="648" 
d="M543 453q65 -75 65 -187q0 -131 -83 -206t-202 -75q-77 0 -141 33l-29 -35l-74 62l27 33q-66 74 -66 188q0 132 83.5 206.5t202.5 74.5q77 0 140 -33l29 34l75 -63zM197 265q0 -36 11 -64l168 203q-25 11 -50 11q-53 0 -91 -40.5t-38 -109.5zM323 117q53 0 91 40.5
t38 109.5q0 33 -10 63l-169 -202q25 -11 50 -11z" />
    <glyph glyph-name="ugrave" unicode="&#xf9;" horiz-adv-x="638" 
d="M371 583h-116l-97 125l145 64zM412 531h153v-531h-145l-6 69q-59 -84 -168 -84q-84 0 -134 58.5t-50 168.5v319h153v-294q0 -60 23.5 -86.5t69.5 -26.5q47 0 75.5 31t28.5 96v280z" />
    <glyph glyph-name="uacute" unicode="&#xfa;" horiz-adv-x="638" 
d="M462 708l-96 -125h-117l68 189zM412 531h153v-531h-145l-6 69q-59 -84 -168 -84q-84 0 -134 58.5t-50 168.5v319h153v-294q0 -60 23.5 -86.5t69.5 -26.5q47 0 75.5 31t28.5 96v280z" />
    <glyph glyph-name="ucircumflex" unicode="&#xfb;" horiz-adv-x="638" 
d="M310 653l-58 -70h-115l86 156h173l87 -156h-116zM412 531h153v-531h-145l-6 69q-59 -84 -168 -84q-84 0 -134 58.5t-50 168.5v319h153v-294q0 -60 23.5 -86.5t69.5 -26.5q47 0 75.5 31t28.5 96v280z" />
    <glyph glyph-name="udieresis" unicode="&#xfc;" horiz-adv-x="638" 
d="M213 586q-34 0 -55.5 22t-21.5 57q0 33 21.5 55.5t55.5 22.5t55.5 -22.5t21.5 -55.5q0 -35 -21.5 -57t-55.5 -22zM406 586q-34 0 -55.5 22t-21.5 57q0 33 21.5 55.5t55.5 22.5t55 -22.5t21 -55.5q0 -36 -20.5 -57.5t-55.5 -21.5zM412 531h153v-531h-145l-6 69
q-59 -84 -168 -84q-84 0 -134 58.5t-50 168.5v319h153v-294q0 -60 23.5 -86.5t69.5 -26.5q47 0 75.5 31t28.5 96v280z" />
    <glyph glyph-name="yacute" unicode="&#xfd;" horiz-adv-x="581" 
d="M442 708l-96 -125h-117l68 189zM414 531h165l-232 -531l-86 -206h-159l116 269l-216 468h173l121 -300z" />
    <glyph glyph-name="thorn" unicode="&#xfe;" horiz-adv-x="688" 
d="M397 547q116 0 183 -80t67 -200q0 -119 -71 -200.5t-181 -81.5q-109 0 -169 84v-275h-153v945h153v-280q62 88 171 88zM357 119q58 0 96 39.5t38 107.5q0 70 -36 108.5t-92 38.5q-58 0 -97.5 -39t-39.5 -108q0 -70 36.5 -108.5t94.5 -38.5z" />
    <glyph glyph-name="ydieresis" unicode="&#xff;" horiz-adv-x="581" 
d="M194 586q-34 0 -55.5 22t-21.5 57q0 33 21.5 55.5t55.5 22.5t55.5 -22.5t21.5 -55.5q0 -35 -21.5 -57t-55.5 -22zM387 586q-34 0 -55.5 22t-21.5 57q0 33 21.5 55.5t55.5 22.5t55 -22.5t21 -55.5q0 -36 -20.5 -57.5t-55.5 -21.5zM414 531h165l-232 -531l-86 -206h-159
l116 269l-216 468h173l121 -300z" />
    <glyph glyph-name="dotlessi" unicode="&#x131;" 
d="M73 0v531h153v-531h-153z" />
    <glyph glyph-name="OE" unicode="&#x152;" horiz-adv-x="993" 
d="M648 143h285v-143h-493q-75 0 -144 22.5t-125.5 66t-90 115.5t-33.5 164q0 94 33.5 167.5t90.5 116.5t125 65t144 22h482v-143h-274v-143h260v-141h-260v-169zM440 143h52v453h-52q-100 0 -164 -54.5t-64 -173.5q0 -114 64.5 -169.5t163.5 -55.5z" />
    <glyph glyph-name="oe" unicode="&#x153;" horiz-adv-x="1027" 
d="M728 548q123 0 196 -84t64 -244h-375q21 -102 137 -102q74 0 134 56l75 -107q-90 -82 -223 -82q-131 0 -207 79q-81 -79 -206 -79q-116 0 -199.5 75t-83.5 206q0 132 83.5 206.5t202.5 74.5q124 0 204 -80q79 81 198 81zM728 425q-43 0 -73 -26t-41 -73l220 -2
q-17 101 -106 101zM323 117q53 0 91 40.5t38 109.5q0 68 -37 108t-89 40q-53 0 -91 -40.5t-38 -109.5q0 -68 36.5 -108t89.5 -40z" />
    <glyph glyph-name="Scaron" unicode="&#x160;" horiz-adv-x="630" 
d="M423 792h-174l-86 155h116l57 -70l58 70h115zM218 528q0 -29 27.5 -48t68.5 -27t89 -23.5t89 -35t68.5 -63.5t27.5 -108q0 -109 -76 -173.5t-202 -64.5q-162 0 -286 114l93 117q90 -86 195 -86q55 0 85 21.5t30 58.5q0 27 -20.5 44.5t-53 27t-72 18.5t-79 23.5t-72 36.5
t-53 63.5t-20.5 99.5q0 102 76 166.5t202 64.5q150 0 249 -95l-89 -115q-71 65 -160 65q-57 0 -87 -22t-30 -59z" />
    <glyph glyph-name="scaron" unicode="&#x161;" horiz-adv-x="494" 
d="M347 584h-174l-86 155h116l57 -70l58 70h115zM191 382q0 -21 28.5 -33.5t69.5 -21.5t82.5 -24t70 -50.5t28.5 -89.5q0 -82 -64.5 -130t-157.5 -48q-78 0 -132.5 23t-101.5 67l83 99q67 -66 149 -66q70 0 70 42q0 21 -20.5 34.5t-51.5 19.5t-67.5 17.5t-67.5 25.5
t-51.5 46.5t-20.5 78.5q0 79 61.5 126.5t158.5 47.5q126 0 207 -74l-75 -100q-59 52 -128 52q-32 0 -51 -11.5t-19 -30.5z" />
    <glyph glyph-name="Ydieresis" unicode="&#x178;" horiz-adv-x="703" 
d="M256 794q-34 0 -55.5 22t-21.5 57q0 33 21.5 55.5t55.5 22.5t55.5 -22.5t21.5 -55.5q0 -35 -21.5 -57t-55.5 -22zM449 794q-34 0 -55.5 22t-21.5 57q0 33 21.5 55.5t55.5 22.5t55 -22.5t21 -55.5q0 -36 -20.5 -57.5t-55.5 -21.5zM519 739h186l-274 -462v-277h-158v271
l-275 468h191l165 -307z" />
    <glyph glyph-name="Zcaron" unicode="&#x17d;" horiz-adv-x="598" 
d="M395 792h-174l-86 155h116l57 -70l58 70h115zM564 739v-22l-284 -574h282v-143h-520v22l285 574h-293l35 143h495z" />
    <glyph glyph-name="zcaron" unicode="&#x17e;" horiz-adv-x="480" 
d="M325 584h-174l-86 155h116l57 -70l58 70h115zM466 531v-21l-221 -380h207v-130h-432v22l219 380h-222l31 129h418z" />
    <glyph glyph-name="florin" unicode="&#x192;" horiz-adv-x="442" 
d="M395 624q-55 0 -77 -22t-22 -73v-109h102v-124h-102v-275q0 -228 -233 -228q-19 0 -29 1v130q5 0 13 -0.5t11 -0.5q44 0 62 23.5t18 72.5v277h-94v124h94v107q0 112 56.5 170t182.5 58q21 0 31 -1v-130h-13z" />
    <glyph glyph-name="uni0237" unicode="&#x237;" 
d="M30 -221q-58 0 -104 17l37 121q21 -10 46 -10q32 0 48.5 18t16.5 61v545h152v-538q0 -104 -52 -159t-144 -55z" />
    <glyph glyph-name="circumflex" unicode="&#x2c6;" horiz-adv-x="446" 
d="M396 583h-116l-57 70l-58 -70h-115l86 156h173z" />
    <glyph glyph-name="tilde" unicode="&#x2dc;" horiz-adv-x="446" 
d="M50 611q11 63 37.5 95.5t63.5 32.5q31 0 67 -17t47 -17q23 0 33 39l98 -25q-11 -63 -37.5 -95.5t-64.5 -32.5q-31 0 -66.5 17.5t-47.5 17.5q-22 0 -32 -40z" />
    <glyph glyph-name="uni1E9E" unicode="&#x1e9e;" horiz-adv-x="745" 
d="M541 415q161 -73 161 -222q0 -90 -63.5 -149.5t-174.5 -59.5q-102 0 -174 40l52 132q53 -29 107 -29q41 0 65 20t24 60q0 48 -40 84t-145 65l-5 23l152 186q-52 49 -125 49q-70 0 -107 -40.5t-37 -119.5v-458h-158v458q0 146 82.5 223.5t211.5 77.5q61 0 111.5 -15.5
t87 -43.5t62 -58t48.5 -68z" />
    <glyph glyph-name="endash" unicode="&#x2013;" horiz-adv-x="424" 
d="M20 368h384v-129h-384v129z" />
    <glyph glyph-name="emdash" unicode="&#x2014;" horiz-adv-x="768" 
d="M0 368h768v-129h-768v129z" />
    <glyph glyph-name="quoteleft" unicode="&#x2018;" horiz-adv-x="292" 
d="M148 411q-44 0 -71 31t-27 83q0 71 42.5 132t119.5 97l35 -68q-37 -16 -63.5 -41t-33.5 -56l-1 -4q8 1 15 1q35 0 57.5 -22.5t22.5 -58.5q0 -42 -27.5 -68t-68.5 -26z" />
    <glyph glyph-name="quoteright" unicode="&#x2019;" horiz-adv-x="292" 
d="M80 411l-35 68q81 35 97 97l1 4q-7 -1 -15 -1q-35 0 -57.5 23t-22.5 59q0 42 27.5 67.5t68.5 25.5q44 0 71 -31t27 -83q0 -70 -42.5 -131t-119.5 -98z" />
    <glyph glyph-name="quotesinglbase" unicode="&#x201a;" horiz-adv-x="292" 
d="M80 -175l-35 68q81 35 97 97l1 4q-7 -1 -15 -1q-35 0 -57.5 23t-22.5 59q0 42 27.5 67.5t68.5 25.5q44 0 71 -31t27 -83q0 -70 -42.5 -131t-119.5 -98z" />
    <glyph glyph-name="quotedblleft" unicode="&#x201c;" horiz-adv-x="529" 
d="M148 411q-44 0 -71 31t-27 83q0 71 42.5 132t119.5 97l35 -68q-81 -34 -97 -97l-1 -4q8 1 15 1q35 0 57.5 -22.5t22.5 -58.5q0 -42 -27.5 -68t-68.5 -26zM386 411q-45 0 -72 31t-27 83q0 71 42.5 132t119.5 97l35 -68q-81 -34 -97 -97l-1 -4q8 1 15 1q35 0 57.5 -22.5
t22.5 -58.5q0 -42 -27.5 -68t-67.5 -26z" />
    <glyph glyph-name="quotedblright" unicode="&#x201d;" horiz-adv-x="529" 
d="M80 411l-35 68q82 36 97 97l1 4q-7 -1 -15 -1q-35 0 -57.5 23t-22.5 59q0 42 27.5 67.5t68.5 25.5q44 0 71 -31t27 -83q0 -70 -42.5 -131t-119.5 -98zM318 411l-36 68q82 36 97 97l1 4q-7 -1 -15 -1q-35 0 -57 22.5t-22 59.5q0 42 27 67.5t68 25.5q45 0 72 -31t27 -83
q0 -70 -42.5 -131t-119.5 -98z" />
    <glyph glyph-name="quotedblbase" unicode="&#x201e;" horiz-adv-x="529" 
d="M80 -175l-35 68q81 35 97 97l1 4q-7 -1 -15 -1q-35 0 -57.5 23t-22.5 59q0 42 27.5 67.5t68.5 25.5q44 0 71 -31t27 -83q0 -70 -42.5 -131t-119.5 -98zM318 -175l-36 68q82 36 97 97l1 4q-7 -1 -15 -1q-35 0 -57 22.5t-22 59.5q0 42 27 67.5t68 25.5q45 0 72 -31t27 -83
q0 -70 -42.5 -131t-119.5 -98z" />
    <glyph glyph-name="dagger" unicode="&#x2020;" horiz-adv-x="752" 
d="M365 499l-101 240h224l-102 -240h-21zM80 331v225l240 -102v-20zM672 331l-241 103v20l241 102v-225zM296 -206v433l69 161h21l69 -161v-433h-159z" />
    <glyph glyph-name="daggerdbl" unicode="&#x2021;" horiz-adv-x="752" 
d="M366 499l-102 240h224l-102 -240h-20zM80 331v225l240 -102v-20zM672 331l-241 103v20l241 102v-225zM366 146l-54 121l54 121h20l54 -121l-54 -121h-20zM80 -22v224l240 -102v-21zM672 -22l-241 101v21l241 102v-224zM264 -206l102 240h20l102 -240h-224z" />
    <glyph glyph-name="bullet" unicode="&#x2022;" horiz-adv-x="423" 
d="M212 212q-64 0 -105 39.5t-41 101.5q0 61 41 100.5t105 39.5q63 0 104.5 -39.5t41.5 -100.5t-41.5 -101t-104.5 -40z" />
    <glyph glyph-name="ellipsis" unicode="&#x2026;" horiz-adv-x="829" 
d="M146 -15q-41 0 -68 26t-27 66t27 66t68 26t68.5 -26t27.5 -66t-27.5 -66t-68.5 -26zM415 -15q-41 0 -68 26t-27 66t27 66t68 26t68.5 -26t27.5 -66t-27.5 -66t-68.5 -26zM683 -15q-41 0 -68 26t-27 66t27 66t68 26q42 0 69 -26t27 -66t-27 -66t-69 -26z" />
    <glyph glyph-name="perthousand" unicode="&#x2030;" horiz-adv-x="1488" 
d="M237 367q-82 0 -139.5 54.5t-57.5 138.5q0 85 57 140t140 55q84 0 141 -54.5t57 -140.5q0 -84 -57 -138.5t-141 -54.5zM212 0l465 739h158l-466 -739h-157zM237 481q31 0 51.5 22.5t20.5 56.5q0 35 -20.5 58t-51.5 23q-30 0 -50 -23t-20 -58q0 -34 20 -56.5t50 -22.5z
M808 -15q-83 0 -139.5 54t-56.5 140q0 84 56.5 139t139.5 55t140.5 -55t57.5 -139q0 -85 -57.5 -139.5t-140.5 -54.5zM1250 -15q-83 0 -139.5 54t-56.5 140q0 84 56.5 139t139.5 55q82 0 140 -55t58 -139q0 -85 -57.5 -139.5t-140.5 -54.5zM808 99q30 0 50.5 23t20.5 57
t-20.5 56.5t-50.5 22.5q-29 0 -50.5 -23t-21.5 -56t21.5 -56.5t50.5 -23.5zM1250 99q30 0 50.5 23t20.5 57t-20.5 56.5t-50.5 22.5q-29 0 -50.5 -23t-21.5 -56t21.5 -56.5t50.5 -23.5z" />
    <glyph glyph-name="guilsinglleft" unicode="&#x2039;" horiz-adv-x="359" 
d="M327 502l-126 -222l126 -222h-121l-184 222l184 222h121z" />
    <glyph glyph-name="guilsinglright" unicode="&#x203a;" horiz-adv-x="359" 
d="M32 58l126 222l-126 222h121l184 -222l-184 -222h-121z" />
    <glyph glyph-name="Euro" unicode="&#x20ac;" horiz-adv-x="720" 
d="M436 130q92 0 167 84l94 -111q-43 -51 -112 -84.5t-156 -33.5q-120 0 -204.5 63.5t-115.5 184.5h-75v105h60q-1 10 -1 32q0 24 1 35h-60v106h78q35 119 125 181t204 62q163 0 256 -110l-92 -106q-66 74 -160 74q-114 0 -162 -101h182v-106h-208q-1 -11 -1 -35
q0 -22 1 -32h208v-105h-187q42 -103 158 -103z" />
    <glyph glyph-name="trademark" unicode="&#x2122;" horiz-adv-x="911" 
d="M51 628v111h333v-111h-106v-296h-120v296h-107zM861 332h-120l-15 143l-83 -146h-16l-82 148l-16 -145h-120l74 407h14l138 -243l139 243h15z" />
    </font>
</defs>
</svg>
