<svg xmlns="http://www.w3.org/2000/svg" width="16.083" height="16.163" viewBox="0 0 16.083 16.163">
  <g id="close-icon" transform="translate(0.003 -0.037)">
    <g id="Layer_2" data-name="Layer 2" transform="translate(-0.003 0.037)">
      <path id="Path_653" data-name="Path 653" d="M9.473,8.11,15.8,1.787A.976.976,0,1,0,14.412.409L8.1,6.726,1.663.3A.975.975,0,0,0,.285,1.677L6.712,8.11.285,14.537a.968.968,0,0,0,0,1.378.955.955,0,0,0,.689.286.955.955,0,0,0,.689-.286L8.1,9.488l6.316,6.323A.981.981,0,0,0,15.8,14.426Z" transform="translate(0.003 -0.037)" fill="#fff"/>
    </g>
  </g>
</svg>
