<svg xmlns="http://www.w3.org/2000/svg" width="13.68" height="13.68" viewBox="0 0 13.68 13.68"><path d="M6.84,0a6.84,6.84,0,1,0,6.84,6.84A6.84,6.84,0,0,0,6.84,0Zm0,12.479A5.639,5.639,0,1,1,12.479,6.84,5.639,5.639,0,0,1,6.84,12.479Z" fill="#9e9e9e"/><path d="M15.778,17.182h-.592V13.7a.6.6,0,0,0-.6-.6H13.46a.6.6,0,1,0,0,1.2h.524v2.882H13.24a.6.6,0,1,0,0,1.2h2.537a.6.6,0,1,0,0-1.2Z" transform="translate(-7.581 -7.857)" fill="#9e9e9e"/><path d="M15.237,8.223A1.037,1.037,0,1,0,14.2,7.191a1.037,1.037,0,0,0,1.037,1.033Zm0-1.2a.168.168,0,1,1-.168.168.164.164,0,0,1,.168-.168Z" transform="translate(-8.517 -3.689)" fill="#9e9e9e"/></svg>