<svg xmlns="http://www.w3.org/2000/svg" width="44.738" height="40" viewBox="0 0 44.738 40">
  <g id="warning-icon" transform="translate(-0.006 0)">
    <g id="Layer_2" data-name="Layer 2" transform="translate(0.006 0)">
      <path id="Path_650" data-name="Path 650" d="M44.118,33,26.406,2.335A4.615,4.615,0,0,0,22.375,0h0a4.623,4.623,0,0,0-4.039,2.335L.632,33a4.669,4.669,0,0,0,4.039,7H40.079a4.669,4.669,0,0,0,4.039-7ZM42.095,36.49a2.335,2.335,0,0,1-2.016,1.16H4.671a2.335,2.335,0,0,1-2.016-3.486l17.7-30.669a2.335,2.335,0,0,1,4.031,0l17.7,30.669A2.335,2.335,0,0,1,42.095,36.49Z" transform="translate(-0.006 0)" fill="#fff"/>
      <path id="Path_651" data-name="Path 651" d="M28.417,30.407a1.167,1.167,0,0,0,1.167-1.167V17.387a1.167,1.167,0,1,0-2.335,0V29.278a1.167,1.167,0,0,0,1.167,1.128Z" transform="translate(-6.049 -3.597)" fill="#fff"/>
      <path id="Path_652" data-name="Path 652" d="M28.346,38.29a1.416,1.416,0,1,0,1.416,1.416A1.416,1.416,0,0,0,28.346,38.29Z" transform="translate(-5.978 -8.492)" fill="#fff"/>
    </g>
  </g>
</svg>
